<svg width="161" height="68" viewBox="0 0 161 68" fill="none" xmlns="http://www.w3.org/2000/svg">
<g clip-path="url(#clip0_23_81)">
<path d="M0 0C53.13 0 106.26 0 161 0C161 22.44 161 44.88 161 68C107.87 68 54.74 68 0 68C0 45.56 0 23.12 0 0Z" fill="black"/>
<path d="M5.12012 2.09232C6.19255 2.17938 6.9899 2.74362 7.87575 3.26924C12.6098 6.00026 17.5308 7.94354 22.8476 9.51583C26.7811 10.6791 30.2473 12.0713 32.3453 15.5064C33.3539 17.4565 33.68 19.3035 33.5653 21.4462C33.096 21.6188 32.6267 21.7914 32.1431 21.9692C32.0446 21.4676 32.0446 21.4676 31.9442 20.9558C31.8507 20.5089 31.757 20.0621 31.6631 19.6154C31.6207 19.3959 31.5784 19.1764 31.5347 18.9503C31.0535 16.7121 29.9697 14.971 28.0363 13.5234C25.289 11.8407 22.0259 11.0112 18.9161 10.0856C15.9578 9.20398 13.2299 8.20661 10.5247 6.80001C10.3587 6.71421 10.1927 6.6284 10.0216 6.54C8.74166 5.87592 7.48088 5.19579 6.25793 4.44616C6.21618 5.5685 6.19121 6.69067 6.16904 7.81347C6.15712 8.12836 6.1452 8.44325 6.13293 8.76768C6.10282 10.8048 6.25229 12.4909 7.68019 14.1231C9.48203 15.5369 12.0118 15.9846 14.2404 16.5587C14.5951 16.6526 14.9499 16.7464 15.3154 16.8432C16.183 17.0724 17.0513 17.299 17.9205 17.5231C18.0613 18.1704 18.0613 18.1704 18.2049 18.8308C16.303 18.9638 14.7072 18.4774 12.907 17.9481C12.6159 17.8651 12.3247 17.7822 12.0248 17.6968C10.7448 17.329 9.48996 16.9459 8.24909 16.4769C8.34581 17.959 8.7535 18.8897 9.95581 19.8769C10.9043 20.2987 10.9043 20.2987 11.9825 20.5471C12.176 20.5981 12.3694 20.6491 12.5687 20.7016C13.2131 20.8691 13.8596 21.0275 14.507 21.1846C15.0071 21.3086 15.5071 21.4325 16.0071 21.5565C17.3066 21.8759 18.6084 22.1862 19.9116 22.4923C20.0055 22.9239 20.0994 23.3554 20.1961 23.8C19.0143 24.1011 18.249 24.001 17.0793 23.6866C16.7631 23.6032 16.4468 23.5197 16.121 23.4338C15.7937 23.3442 15.4665 23.2547 15.1293 23.1625C14.7965 23.074 14.4638 22.9855 14.1209 22.8943C13.3006 22.6757 12.4812 22.4545 11.6625 22.2308C12.0291 24.0529 12.0291 24.0529 13.3692 25.3692C14.0827 25.6256 14.0827 25.6256 14.8804 25.7615C15.3325 25.8566 15.3325 25.8566 15.7937 25.9536C16.1201 26.0197 16.4464 26.0858 16.7827 26.1539C19.5825 26.7357 22.4388 27.3787 24.7473 29.0308C24.9896 29.7429 24.9896 29.7429 25.0318 30.3385C23.7154 30.4566 23.0024 30.2202 21.8861 29.5906C20.0028 28.5733 18.0112 28.1356 15.8938 27.7394C13.5998 27.3009 12.0244 26.7909 10.3825 25.2058C9.7755 23.9501 9.86152 22.7995 9.95581 21.4462C9.7402 21.3747 9.5246 21.3032 9.30246 21.2296C8.11073 20.7545 7.4152 20.1638 6.82683 19.0923C6.69664 18.1566 6.66615 17.2387 6.63794 16.2961C6.49945 15.042 5.98757 14.5532 5.12012 13.6C4.59574 12.2616 4.46708 11.016 4.47566 9.60644C4.47511 9.40709 4.47457 9.20774 4.47401 9.00235C4.47362 8.58454 4.47466 8.16672 4.47705 7.74892C4.48012 7.10784 4.47706 6.46695 4.47344 5.82588C4.47381 5.41876 4.47454 5.01164 4.47566 4.60452C4.47451 4.41273 4.47335 4.22094 4.47217 4.02334C4.4858 2.67554 4.4858 2.67554 5.12012 2.09232Z" fill="white"/>
<path d="M50.0636 29.0308C51.4364 29.0092 52.8093 28.9876 54.2237 28.9654C54.6537 28.9558 55.0837 28.9463 55.5267 28.9365C55.8689 28.9339 56.2112 28.9313 56.5638 28.9286C57.0866 28.9204 57.0866 28.9204 57.6201 28.912C59.029 29.0832 59.8843 29.6912 60.8728 30.6C61.2862 31.5884 61.323 32.6977 61.1572 33.7384C60.6061 34.6048 60.6061 34.6048 60.0194 35.3077C59.8786 35.6961 59.8786 35.6961 59.735 36.0923C60.0143 36.6097 60.0143 36.6097 60.4283 37.1221C61.075 37.9629 61.1572 38.1353 61.1572 39.2308C60.1583 39.3971 59.3045 39.4531 58.3127 39.2308C57.4492 38.4605 56.8541 37.6045 56.3215 36.6154C56.3215 36.4428 56.3215 36.2701 56.3215 36.0923C55.289 36.0923 54.2564 36.0923 53.1926 36.0923C53.1926 37.128 53.1926 38.1637 53.1926 39.2308C52.16 39.2308 51.1275 39.2308 50.0636 39.2308C50.0636 35.8648 50.0636 32.4988 50.0636 29.0308Z" fill="white"/>
<path d="M82.2067 2.09232C82.2986 3.77603 82.3837 5.4599 82.4595 7.1443C82.485 7.70796 82.5122 8.27154 82.5401 8.8351C82.5972 10.83 82.373 12.7053 81.0334 14.3356C80.1911 15.6522 80.2641 17.0669 80.2156 18.5692C79.6524 18.5692 79.0891 18.5692 78.5089 18.5692C78.5089 17.8788 78.5089 17.1883 78.5089 16.4769C78.1271 16.6049 78.1271 16.6049 77.7377 16.7354C76.6692 17.0905 75.5986 17.4389 74.5265 17.7846C74.2633 17.8709 74 17.9572 73.7287 18.0462C72.0677 18.5536 70.5827 18.6614 68.8375 18.5692C68.8375 18.224 68.8375 17.8788 68.8375 17.5231C73.842 15.9743 73.842 15.9743 75.5932 15.4962C75.807 15.4372 76.0208 15.3782 76.241 15.3174C76.7388 15.186 77.2414 15.0702 77.7444 14.9567C79.1042 14.4043 79.7268 13.5524 80.2533 12.3271C80.6865 10.8322 80.5592 9.26525 80.5356 7.73174C80.533 7.41567 80.5304 7.0996 80.5278 6.77396C80.5211 5.99797 80.5118 5.22209 80.5 4.44616C80.1865 4.61069 79.873 4.77521 79.55 4.94472C74.4152 7.61727 69.1642 9.94085 63.4807 11.4617C60.8696 12.1921 58.1107 13.2221 56.6038 15.4369C56.0496 16.452 55.602 17.5015 55.1838 18.5692C54.8083 18.5692 54.4328 18.5692 54.046 18.5692C54.2363 16.1193 55.2224 14.2453 57.1749 12.5539C59.2664 11.0912 61.4444 10.273 63.9432 9.57201C64.893 9.30463 65.8375 9.02209 66.7819 8.73907C66.9645 8.68447 67.1472 8.62986 67.3354 8.57361C69.3594 7.96135 71.2138 7.17584 73.1043 6.27693C73.4849 6.10804 73.866 5.9402 74.2476 5.77326C76.4234 4.81258 78.4135 3.78367 80.3711 2.47645C81.0689 2.09232 81.0689 2.09232 82.2067 2.09232Z" fill="white"/>
<path d="M21.9028 47.3385C22.6068 47.4679 22.6068 47.4679 23.3251 47.6C23.3841 47.806 23.4431 48.012 23.504 48.2242C25.0457 53.2361 28.1471 57.551 33.0453 60.2683C38.1517 62.8622 43.3909 63.8014 49.1136 62.4995C52.1123 61.6998 54.4625 60.6622 56.8904 58.8462C57.0951 58.7009 57.2997 58.5555 57.5105 58.4058C60.9295 55.8555 63.0662 51.9502 64.2862 48.1231C64.8494 48.1231 65.4126 48.1231 65.9929 48.1231C65.3736 51.6939 63.6284 54.4986 61.1572 57.2769C61.0403 57.4222 60.9233 57.5675 60.8028 57.7173C58.8121 60.069 55.8655 61.8749 52.9081 63.0308C52.6712 63.1269 52.4344 63.2229 52.1903 63.3219C49.4061 64.405 46.8755 64.6898 43.859 64.6817C43.3901 64.6881 43.3901 64.6881 42.9117 64.6945C39.8611 64.6962 37.1065 64.1583 34.4009 62.851C34.1127 62.7144 34.1127 62.7144 33.8186 62.5751C29.2389 60.3498 25.9942 57.283 23.6095 53.0923C23.4966 52.8985 23.3837 52.7046 23.2673 52.5049C22.2996 50.8017 21.8164 49.2848 21.9028 47.3385Z" fill="white"/>
<path d="M107.256 28.9817C107.634 28.982 107.634 28.982 108.019 28.9823C109.215 28.9897 110.34 29.0139 111.505 29.2923C111.505 30.1554 111.505 31.0185 111.505 31.9077C111.159 31.8646 110.813 31.8214 110.456 31.7769C107.497 31.3919 107.497 31.3919 104.678 31.9077C104.772 32.1666 104.866 32.4256 104.963 32.6923C105.426 32.7353 105.426 32.7353 105.898 32.7792C106.31 32.8209 106.721 32.8628 107.132 32.9048C107.335 32.9232 107.537 32.9416 107.746 32.9605C109.292 33.1235 110.567 33.4587 111.754 34.4414C112.226 35.3332 112.226 36.1767 112.074 37.1385C111.57 38.2365 110.961 38.7217 109.799 39.2308C108.49 39.556 107.196 39.5311 105.852 39.525C105.631 39.526 105.41 39.527 105.182 39.5281C103.847 39.526 102.582 39.4342 101.265 39.2308C101.265 38.3677 101.265 37.5046 101.265 36.6154C103.706 36.6154 106.146 36.6154 108.661 36.6154C108.661 36.3565 108.661 36.0976 108.661 35.8308C108.355 35.8021 108.05 35.7735 107.735 35.7439C107.327 35.7022 106.918 35.6603 106.51 35.6183C106.309 35.5999 106.109 35.5815 105.902 35.5626C104.279 35.3906 102.695 35.1214 101.567 33.951C101.17 32.985 101.038 32.1309 101.265 31.1231C102.76 28.9396 104.694 28.949 107.256 28.9817Z" fill="white"/>
<path d="M132.555 29.2923C133.681 29.2923 134.808 29.2923 135.968 29.2923C136.48 30.2642 136.991 31.2364 137.501 32.2087C137.675 32.5388 137.848 32.8688 138.022 33.1987C138.273 33.6757 138.523 34.153 138.774 34.6303C138.924 34.9166 139.075 35.2028 139.23 35.4978C139.374 35.7803 139.518 36.0628 139.666 36.3538C139.747 36.5115 139.828 36.6692 139.911 36.8316C140.347 37.7142 140.519 38.2416 140.519 39.2308C139.581 39.2308 138.642 39.2308 137.675 39.2308C137.106 38.1846 137.106 38.1846 137.106 37.4C135.229 37.4 133.351 37.4 131.417 37.4C131.229 38.0041 131.041 38.6083 130.848 39.2308C129.909 39.2308 128.971 39.2308 128.004 39.2308C128.149 37.8226 128.556 36.714 129.249 35.4476C129.391 35.1816 129.391 35.1816 129.535 34.9102C129.834 34.3495 130.136 33.7906 130.439 33.2317C130.644 32.8496 130.848 32.4673 131.052 32.0849C131.55 31.1527 132.051 30.2221 132.555 29.2923Z" fill="white"/>
<path d="M86.4735 29.2923C87.5061 29.2923 88.5386 29.2923 89.6025 29.2923C89.6025 30.5006 89.6025 31.7089 89.6025 32.9538C91.0812 32.6919 91.7281 32.4497 92.6216 31.2684C92.7283 31.1234 92.8349 30.9783 92.9448 30.8288C93.6345 29.9706 94.1477 29.3606 95.316 29.0859C96.0936 29.0951 96.8062 29.1486 97.5671 29.2923C97.4576 30.6643 96.6535 31.4004 95.7004 32.3817C95.5525 32.538 95.4045 32.6943 95.2521 32.8553C94.8884 33.2388 94.5214 33.6197 94.1537 34C94.6948 35.1895 95.6588 36.0816 96.5838 37.0281C97.3646 37.857 97.5671 38.0895 97.5671 39.2308C96.5568 39.4264 95.729 39.4624 94.7226 39.2308C93.4886 38.2855 92.3176 37.1621 91.5937 35.8308C90.9333 35.7242 90.269 35.6361 89.6025 35.5692C89.6025 36.7775 89.6025 37.9858 89.6025 39.2308C88.5699 39.2308 87.5374 39.2308 86.4735 39.2308C86.4735 35.9511 86.4735 32.6714 86.4735 29.2923Z" fill="white"/>
<path d="M40.7822 28.996C41.016 28.9957 41.2497 28.9953 41.4906 28.995C41.7324 28.996 41.9742 28.997 42.2234 28.9981C42.4641 28.997 42.7048 28.996 42.9528 28.995C44.1269 28.9967 45.2209 29.02 46.3657 29.2923C46.3657 30.1554 46.3657 31.0184 46.3657 31.9077C46.0665 31.8645 45.7673 31.8214 45.459 31.7769C44.3627 31.6543 43.2741 31.6036 42.17 31.5808C41.8606 31.574 41.5511 31.5673 41.2322 31.5603C40.2716 31.6585 39.8878 31.7581 39.2544 32.4308C39.0843 33.2389 39.0843 33.2389 39.13 34.1308C39.1305 34.5798 39.1305 34.5798 39.1311 35.038C39.1821 35.8245 39.1821 35.8245 39.6533 36.313C41.436 37.4992 44.3126 36.8311 46.3657 36.6154C46.3657 37.4784 46.3657 38.3415 46.3657 39.2308C44.9028 39.4963 43.4781 39.5667 41.9923 39.5904C41.7613 39.6001 41.5302 39.6099 41.2922 39.62C39.51 39.6436 38.3364 39.2564 36.9788 38.1846C35.7911 36.9546 35.6697 35.9799 35.7165 34.4086C35.7145 34.219 35.7125 34.0294 35.7104 33.834C35.7275 32.4897 36.006 31.5281 36.6943 30.3384C38.0266 29.3481 39.0988 28.9984 40.7822 28.996Z" fill="white"/>
<path d="M77.1199 28.996C77.3396 28.9957 77.5592 28.9953 77.7855 28.995C78.0125 28.996 78.2394 28.997 78.4733 28.9981C78.6981 28.997 78.9228 28.996 79.1544 28.995C80.3934 28.9969 81.5558 29.0651 82.7756 29.2923C82.7756 30.1554 82.7756 31.0184 82.7756 31.9077C82.4764 31.8645 82.1772 31.8214 81.8689 31.7769C80.7726 31.6543 79.684 31.6036 78.58 31.5808C78.2705 31.574 77.961 31.5673 77.6422 31.5603C76.6816 31.6585 76.2977 31.7581 75.6643 32.4308C75.4942 33.2389 75.4942 33.2389 75.5399 34.1308C75.5404 34.5798 75.5404 34.5798 75.541 35.038C75.5943 35.8211 75.5943 35.8211 76.0454 36.313C77.8561 37.4724 80.7342 36.8269 82.7756 36.6154C82.7756 37.4784 82.7756 38.3415 82.7756 39.2308C81.3128 39.4963 79.8881 39.5667 78.4022 39.5904C78.1712 39.6001 77.9402 39.6099 77.7022 39.62C75.9327 39.6435 74.7177 39.2812 73.3887 38.1846C72.2304 36.947 72.0719 35.7007 72.1087 34.1144C72.1043 33.9238 72.0999 33.7331 72.0953 33.5367C72.1059 32.1824 72.4362 31.417 73.3887 30.3384C74.5969 29.3109 75.4998 28.9984 77.1199 28.996Z" fill="white"/>
<path d="M115.203 29.2923C118.958 29.2923 122.713 29.2923 126.581 29.2923C126.581 30.0691 126.581 30.8458 126.581 31.6461C125.267 31.6461 123.953 31.6461 122.599 31.6461C122.599 34.1491 122.599 36.652 122.599 39.2308C121.566 39.2308 120.534 39.2308 119.47 39.2308C119.47 36.7278 119.47 34.2249 119.47 31.6461C118.062 31.6461 116.654 31.6461 115.203 31.6461C115.203 30.8694 115.203 30.0926 115.203 29.2923Z" fill="white"/>
<path d="M141.942 29.2923C145.603 29.2923 149.263 29.2923 153.035 29.2923C153.035 30.0691 153.035 30.8458 153.035 31.6461C151.721 31.6461 150.407 31.6461 149.053 31.6461C149.053 34.1491 149.053 36.652 149.053 39.2308C148.02 39.2308 146.988 39.2308 145.924 39.2308C145.924 36.7278 145.924 34.2249 145.924 31.6461C144.61 31.6461 143.296 31.6461 141.942 31.6461C141.942 30.8694 141.942 30.0926 141.942 29.2923Z" fill="white"/>
<path d="M28.1608 39.2308C28.3016 39.8781 28.3016 39.8781 28.4452 40.5385C28.1266 40.6175 28.1266 40.6175 27.8015 40.6982C26.8421 40.9374 25.8836 41.1792 24.9251 41.4211C24.5907 41.5041 24.2563 41.587 23.9118 41.6725C23.5928 41.7534 23.2737 41.8343 22.9451 41.9177C22.6501 41.9916 22.3552 42.0656 22.0513 42.1418C21.2966 42.3272 21.2966 42.3272 20.765 42.8923C20.6961 43.4105 20.6961 43.4105 20.7294 43.9711C20.7412 44.3056 20.7529 44.64 20.765 44.9846C22.6853 45.0669 24.0974 44.8399 25.8851 44.2163C29.38 43.0141 29.38 43.0141 31.0053 43.1538C31.5053 43.5442 31.5053 43.5442 31.8586 43.9385C31.7178 44.3268 31.7178 44.3268 31.5742 44.7231C31.0909 44.9197 31.0909 44.9197 30.4642 45.0582C30.2357 45.1107 30.0072 45.1632 29.7718 45.2173C29.4055 45.2963 29.4055 45.2963 29.0319 45.3769C28.5351 45.4892 28.0384 45.6019 27.5419 45.7151C27.3033 45.7688 27.0647 45.8225 26.8189 45.8779C26.0574 46.0572 25.3147 46.275 24.5696 46.5048C23.3062 46.8555 22.0735 47.0745 20.765 46.8154C19.8842 46.1779 19.3931 45.5771 18.7738 44.7231C18.5841 42.9205 18.5841 42.9205 19.2127 41.9606C20.0764 41.1728 20.9689 40.8532 22.0984 40.5058C22.3012 40.4402 22.5041 40.3746 22.7131 40.307C23.1142 40.1779 23.5159 40.0505 23.9183 39.9251C24.3783 39.7804 24.835 39.6266 25.2907 39.4708C26.3739 39.1067 27.0579 38.9055 28.1608 39.2308Z" fill="white"/>
<path d="M65.1396 29.2923C66.1721 29.2923 67.2047 29.2923 68.2686 29.2923C68.2686 32.572 68.2686 35.8517 68.2686 39.2308C67.236 39.2308 66.2034 39.2308 65.1396 39.2308C65.1396 35.9511 65.1396 32.6714 65.1396 29.2923Z" fill="white"/>
<path d="M26.4541 30.3385C26.6418 30.3385 26.8295 30.3385 27.023 30.3385C27.0143 32.2055 26.5656 33.3765 25.4552 34.9287C24.932 35.7202 24.6516 36.5039 24.3651 37.3867C24.106 38.1313 23.7273 38.8055 23.3251 39.4923C22.8557 39.4923 22.3864 39.4923 21.9028 39.4923C21.9028 36.2956 24.186 32.6831 26.4541 30.3385Z" fill="white"/>
<path d="M31.0053 43.1538C31.5031 43.5461 31.5031 43.5461 31.8587 43.9385C31.7648 44.1974 31.6709 44.4563 31.5742 44.7231C31.0593 44.928 31.0593 44.928 30.3942 45.0766C30.1551 45.1318 29.916 45.1871 29.6697 45.2441C29.4182 45.2987 29.1666 45.3533 28.9075 45.4096C28.4133 45.5219 27.9193 45.6342 27.4252 45.7467C27.2051 45.7952 26.9849 45.8436 26.7581 45.8935C26.2716 46.007 25.7924 46.1464 25.3163 46.2923C23.7411 46.3843 23.1503 46.4138 21.9028 45.5077C22.9631 45.163 24.024 44.8203 25.0851 44.4779C25.3853 44.3803 25.6854 44.2827 25.9946 44.1821C26.2852 44.0886 26.5758 43.995 26.8752 43.8986C27.2752 43.7692 27.2752 43.7692 27.6832 43.6371C28.8335 43.3024 29.7939 43.1538 31.0053 43.1538Z" fill="white"/>
<path d="M53.1926 31.3846C53.8384 31.3705 54.4844 31.3603 55.1304 31.3519C55.4901 31.3458 55.8498 31.3398 56.2204 31.3335C57.1749 31.3846 57.1749 31.3846 58.0283 31.9077C57.9344 32.4255 57.8405 32.9434 57.7438 33.4769C56.2419 33.4769 54.74 33.4769 53.1926 33.4769C53.1926 32.7865 53.1926 32.096 53.1926 31.3846Z" fill="black"/>
<path d="M34.7032 46.0308C35.0232 47.0115 35.0232 47.0115 34.7032 47.6C34.1032 47.7655 34.1032 47.7655 33.352 47.8942C33.1071 47.938 32.8622 47.9819 32.6098 48.027C31.8742 48.1211 31.1779 48.1402 30.4364 48.1231C30.4364 47.6915 30.4364 47.26 30.4364 46.8154C31.8881 46.3171 33.1283 45.9194 34.7032 46.0308Z" fill="white"/>
<path d="M133.977 32.1692C134.165 32.1692 134.353 32.1692 134.546 32.1692C134.737 32.5501 134.926 32.9316 135.115 33.3135C135.273 33.632 135.273 33.632 135.435 33.9571C135.684 34.5231 135.684 34.5231 135.684 35.0461C134.745 35.0461 133.806 35.0461 132.839 35.0461C133.657 32.7577 133.657 32.7577 133.977 32.1692Z" fill="black"/>
<path d="M28.1608 47.6C28.1608 48.0315 28.1608 48.4631 28.1608 48.9077C27.747 49.0095 27.3319 49.1067 26.9163 49.2019C26.6853 49.2565 26.4543 49.3112 26.2163 49.3674C26.0131 49.3883 25.81 49.4092 25.6007 49.4308C25.413 49.2582 25.2252 49.0855 25.0318 48.9077C25.0318 48.6488 25.0318 48.3898 25.0318 48.1231C26.1212 47.6517 26.9607 47.5487 28.1608 47.6Z" fill="white"/>
<path d="M58.3127 48.1231C59.8147 48.1231 61.3166 48.1231 62.864 48.1231C62.7701 48.5546 62.6762 48.9862 62.5795 49.4308C60.9692 49.3009 59.7701 49.0267 58.3127 48.3846C58.3127 48.2983 58.3127 48.212 58.3127 48.1231Z" fill="white"/>
<path d="M25.8852 35.8308C26.2606 35.8308 26.6361 35.8308 27.023 35.8308C27.1168 36.2623 27.2107 36.6939 27.3074 37.1385C26.8381 37.2248 26.3687 37.3111 25.8852 37.4C25.7764 36.9669 25.6821 36.5305 25.6007 36.0923C25.6946 36.006 25.7884 35.9197 25.8852 35.8308Z" fill="white"/>
<path d="M27.023 38.9692C27.5862 39.0987 27.5862 39.0987 28.1608 39.2308C28.2547 39.6623 28.3485 40.0939 28.4452 40.5385C27.882 40.6248 27.3188 40.7111 26.7385 40.8C26.8324 40.1959 26.9263 39.5917 27.023 38.9692Z" fill="white"/>
<path d="M13.6537 25.8923C14.1231 25.8923 14.5924 25.8923 15.076 25.8923C15.076 26.1512 15.076 26.4101 15.076 26.6769C14.8882 26.8495 14.7005 27.0221 14.5071 27.2C14.1316 26.9411 13.7561 26.6821 13.3693 26.4154C13.4631 26.2428 13.557 26.0701 13.6537 25.8923Z" fill="white"/>
<path d="M58.8816 13.0769C59.0693 13.1632 59.2571 13.2496 59.4505 13.3385C58.7934 13.9426 58.1363 14.5468 57.4593 15.1692C57.2716 15.0829 57.0839 14.9966 56.8904 14.9077C57.5542 14.2974 58.2179 13.6872 58.8816 13.0769Z" fill="white"/>
<path d="M21.9028 42.1077C21.8207 42.2533 21.7386 42.399 21.6539 42.549C21.3222 43.1761 21.0398 43.8119 20.765 44.4615C20.6712 44.4615 20.5773 44.4615 20.4806 44.4615C20.3763 43.0231 20.3763 43.0231 20.8717 42.4019C21.3339 42.1077 21.3339 42.1077 21.9028 42.1077Z" fill="white"/>
</g>
<defs>
<clipPath id="clip0_23_81">
<rect width="161" height="68" fill="white"/>
</clipPath>
</defs>
</svg>
