<?xml version="1.0" encoding="UTF-8"?>
<svg version="1.1" xmlns="http://www.w3.org/2000/svg" width="566" height="260">
<path d="M0 0 C186.78 0 373.56 0 566 0 C566 85.8 566 171.6 566 260 C379.22 260 192.44 260 0 260 C0 174.2 0 88.4 0 0 Z " fill="#FDFDFD" transform="translate(0,0)"/>
<path d="M0 0 C3.77015225 0.33290528 6.57325334 2.49029409 9.6875 4.5 C26.33023262 14.94212596 43.63021256 22.3723397 62.32128906 28.3840332 C76.14993419 32.83188589 88.33529825 38.15490277 95.7109375 51.2890625 C99.25653521 58.74556193 100.4029065 65.80756781 100 74 C98.35 74.66 96.7 75.32 95 76 C94.65388672 74.081875 94.65388672 74.081875 94.30078125 72.125 C93.97222342 70.41649927 93.64274716 68.70817499 93.3125 67 C93.16361328 66.16082031 93.01472656 65.32164063 92.86132812 64.45703125 C91.16964696 55.89911478 87.35938467 49.24199432 80.5625 43.70703125 C70.90438694 37.27319679 59.43258312 34.10177129 48.5 30.5625 C38.10015568 27.19166386 28.51022535 23.37819641 19 18 C18.41637695 17.67193359 17.83275391 17.34386719 17.23144531 17.00585938 C12.73162945 14.46673123 8.29933422 11.86622282 4 9 C3.85322329 13.29129925 3.76543414 17.58194224 3.6875 21.875 C3.64560547 23.07898438 3.60371094 24.28296875 3.56054688 25.5234375 C3.45471868 33.31239241 3.98016234 39.75910061 9 46 C15.3344177 51.40585156 24.2279719 53.1174993 32.0625 55.3125 C33.30966797 55.67150391 34.55683594 56.03050781 35.84179688 56.40039062 C38.89185055 57.27684283 41.94441228 58.14308123 45 59 C45.495 61.475 45.495 61.475 46 64 C39.31387326 64.50852232 33.70365774 62.64888547 27.375 60.625 C26.35148437 60.30789062 25.32796875 59.99078125 24.2734375 59.6640625 C19.77388779 58.25795322 15.36228456 56.793002 11 55 C11.33999463 60.66657714 12.77324605 64.22512053 17 68 C20.33460694 69.61263201 20.33460694 69.61263201 24.125 70.5625 C24.80498047 70.75739014 25.48496094 70.95228027 26.18554688 71.15307617 C28.4509298 71.79372605 30.7237703 72.3990828 33 73 C34.75781643 73.47394375 36.51562883 73.94790247 38.2734375 74.421875 C42.84181229 75.64329545 47.41828616 76.82967092 52 78 C52.33 79.65 52.66 81.3 53 83 C48.84538194 84.1512797 46.15483676 83.7683369 42.04296875 82.56640625 C40.93115234 82.24736328 39.81933594 81.92832031 38.67382812 81.59960938 C37.52333984 81.25736328 36.37285156 80.91511719 35.1875 80.5625 C34.01767578 80.22412109 32.84785156 79.88574219 31.64257812 79.53710938 C28.75865479 78.70136016 25.8781561 77.85535945 23 77 C24.28880519 83.96685683 24.28880519 83.96685683 29 89 C31.50831174 89.98004896 31.50831174 89.98004896 34.3125 90.5 C35.90191406 90.86351563 35.90191406 90.86351563 37.5234375 91.234375 C38.67070313 91.48703125 39.81796875 91.7396875 41 92 C50.84304601 94.22465432 60.88413216 96.68328086 69 103 C69.8515625 105.72265625 69.8515625 105.72265625 70 108 C65.37227958 108.45148492 62.8655635 107.54766746 58.94140625 105.140625 C52.32048248 101.25066576 45.31907926 99.5771912 37.875 98.0625 C29.81069724 96.38583724 24.27203482 94.43563656 18.5 88.375 C16.36612419 83.57377944 16.66852564 79.17468303 17 74 C16.24203125 73.72671875 15.4840625 73.4534375 14.703125 73.171875 C10.51357385 71.3555956 8.06843507 69.09670636 6 65 C5.5423086 61.42244885 5.43509799 57.9126961 5.3359375 54.30859375 C4.84907965 49.51361001 3.04954638 47.64457982 0 44 C-1.84346687 38.88245096 -2.29579705 34.12012066 -2.265625 28.73046875 C-2.26753845 27.96825516 -2.2694519 27.20604156 -2.27142334 26.42073059 C-2.27277546 24.82320827 -2.26914753 23.2256746 -2.26074219 21.62817383 C-2.24995378 19.1769988 -2.26070805 16.72654426 -2.2734375 14.27539062 C-2.27211718 12.71874838 -2.26955745 11.16210659 -2.265625 9.60546875 C-2.26967346 8.87216843 -2.27372192 8.1388681 -2.27789307 7.38334656 C-2.22997358 2.22997358 -2.22997358 2.22997358 0 0 Z " fill="#121212" transform="translate(18,8)"/>
<path d="M0 0 C4.82625 -0.0825 9.6525 -0.165 14.625 -0.25 C16.13658691 -0.28641602 17.64817383 -0.32283203 19.20556641 -0.36035156 C20.40874512 -0.3703418 21.61192383 -0.38033203 22.8515625 -0.390625 C24.68968506 -0.4220459 24.68968506 -0.4220459 26.56494141 -0.45410156 C31.51812742 0.20069062 34.52510752 2.52510752 38 6 C39.45351225 9.77913185 39.58269809 14.02078543 39 18 C37.0625 21.3125 37.0625 21.3125 35 24 C34.505 25.485 34.505 25.485 34 27 C34.98204928 28.97850905 34.98204928 28.97850905 36.4375 30.9375 C38.71076357 34.15227872 39 34.81157547 39 39 C35.48810455 39.63595692 32.48671481 39.85017139 29 39 C25.96436502 36.05506061 23.87233889 32.78187657 22 29 C22 28.34 22 27.68 22 27 C18.37 27 14.74 27 11 27 C11 30.96 11 34.92 11 39 C7.37 39 3.74 39 0 39 C0 26.13 0 13.26 0 0 Z " fill="#070707" transform="translate(176,111)"/>
<path d="M0 0 C0.32308952 6.43773049 0.62208788 12.87607542 0.88867188 19.31640625 C0.97807811 21.47156717 1.07393001 23.62646025 1.171875 25.78125 C1.37259883 33.40875563 0.58460401 40.57920057 -4.125 46.8125 C-7.08617306 51.8464942 -6.82955201 57.25590267 -7 63 C-8.98 63 -10.96 63 -13 63 C-13 60.36 -13 57.72 -13 55 C-14.34191406 55.48919922 -14.34191406 55.48919922 -15.7109375 55.98828125 C-19.46729863 57.34585739 -23.23094975 58.67807841 -27 60 C-27.92554688 60.33 -28.85109375 60.66 -29.8046875 61 C-35.64391353 62.94019012 -40.8646751 63.35245483 -47 63 C-47 61.68 -47 60.36 -47 59 C-29.40655094 53.07802205 -29.40655094 53.07802205 -23.25 51.25 C-22.49847656 51.02441406 -21.74695313 50.79882812 -20.97265625 50.56640625 C-19.22267306 50.06393583 -17.45577536 49.62122792 -15.6875 49.1875 C-10.90720055 47.07527466 -8.71829327 43.81802503 -6.8671875 39.1328125 C-5.34443417 33.41720018 -5.79183077 27.42593095 -5.875 21.5625 C-5.88402344 20.35400391 -5.89304687 19.14550781 -5.90234375 17.90039062 C-5.92579832 14.93338722 -5.95862206 11.96679857 -6 9 C-7.10214844 9.6290625 -8.20429688 10.258125 -9.33984375 10.90625 C-27.39141657 21.12484068 -45.85124739 30.00912165 -65.83203125 35.82421875 C-75.01115402 38.61684018 -84.7102698 42.55510282 -90.0078125 51.0234375 C-91.95602759 54.9045274 -93.52957024 58.91729839 -95 63 C-96.32 63 -97.64 63 -99 63 C-98.33089778 53.63256888 -94.86408354 46.46719549 -88 40 C-80.64739581 34.40743503 -72.99070887 31.2789405 -64.20587158 28.59881592 C-60.86677992 27.5765089 -57.54666561 26.4961918 -54.2265625 25.4140625 C-53.58443817 25.20528473 -52.94231384 24.99650696 -52.2807312 24.78140259 C-45.16505708 22.44041987 -38.64591117 19.43699785 -32 16 C-30.66200782 15.3542225 -29.32206128 14.7124829 -27.98046875 14.07421875 C-20.33140825 10.40102205 -13.33527485 6.46695939 -6.453125 1.46875 C-4 0 -4 0 0 0 Z " fill="#151515" transform="translate(289,8)"/>
<path d="M0 0 C2.475 0.495 2.475 0.495 5 1 C5.20753906 1.78761719 5.41507812 2.57523438 5.62890625 3.38671875 C11.0489669 22.54969468 21.95181263 39.0477417 39.171875 49.4375 C57.1233906 59.35546442 75.54200106 62.94643788 95.66015625 57.96875 C106.20217905 54.91094689 114.46444889 50.94349691 123 44 C123.71929687 43.44441406 124.43859375 42.88882813 125.1796875 42.31640625 C137.19939493 32.56500936 144.710999 17.63306223 149 3 C150.98 3 152.96 3 155 3 C152.822762 16.65309662 146.68731246 27.37679619 138 38 C137.58878906 38.55558594 137.17757812 39.11117187 136.75390625 39.68359375 C129.75559137 48.67549388 119.39666427 55.58057105 109 60 C108.16726562 60.36738281 107.33453125 60.73476562 106.4765625 61.11328125 C96.68858418 65.254349 87.79210909 66.34327368 77.1875 66.3125 C75.53911133 66.33666992 75.53911133 66.33666992 73.85742188 66.36132812 C63.13277723 66.36764789 53.44895591 64.31130262 43.9375 59.3125 C42.92417603 58.79030884 42.92417603 58.79030884 41.89038086 58.25756836 C25.7902962 49.74930021 14.3834986 38.02329974 6 22 C5.60296875 21.25878906 5.2059375 20.51757812 4.796875 19.75390625 C1.39487002 13.2418594 -0.30375051 7.44188741 0 0 Z " fill="#121212" transform="translate(77,181)"/>
<path d="M0 0 C1.32741211 0.0009668 1.32741211 0.0009668 2.68164062 0.00195312 C6.88518879 0.03033417 10.84169243 0.12310094 14.9375 1.1875 C14.9375 4.4875 14.9375 7.7875 14.9375 11.1875 C13.720625 11.0225 12.50375 10.8575 11.25 10.6875 C0.84449652 9.2151059 0.84449652 9.2151059 -9.0625 11.1875 C-8.7325 12.1775 -8.4025 13.1675 -8.0625 14.1875 C-6.43441406 14.35185547 -6.43441406 14.35185547 -4.7734375 14.51953125 C-3.32805848 14.67908608 -1.88274949 14.83927611 -0.4375 15 C0.27535156 15.07025391 0.98820312 15.14050781 1.72265625 15.21289062 C7.15602606 15.83598349 11.63769811 17.1176783 15.8125 20.875 C17.47138477 24.2849298 17.47226711 27.51006043 16.9375 31.1875 C15.16489086 35.3857848 13.02490461 37.24111685 8.9375 39.1875 C4.33776093 40.43113316 -0.21057738 40.33578533 -4.9375 40.3125 C-5.71480469 40.31636719 -6.49210937 40.32023437 -7.29296875 40.32421875 C-11.98608006 40.31633117 -16.43376895 39.96512682 -21.0625 39.1875 C-21.0625 35.8875 -21.0625 32.5875 -21.0625 29.1875 C-12.4825 29.1875 -3.9025 29.1875 4.9375 29.1875 C4.9375 28.1975 4.9375 27.2075 4.9375 26.1875 C3.86371094 26.07792969 2.78992188 25.96835938 1.68359375 25.85546875 C0.2473322 25.69588413 -1.18886233 25.53569558 -2.625 25.375 C-3.32947266 25.30474609 -4.03394531 25.23449219 -4.75976562 25.16210938 C-10.46727693 24.50456199 -16.03615436 23.47530959 -20 19 C-21.39522985 15.30674451 -21.86184182 12.04093085 -21.0625 8.1875 C-15.80593552 -0.16116124 -9.00702504 -0.12518908 0 0 Z " fill="#080808" transform="translate(377.0625,110.8125)"/>
<path d="M0 0 C3.96 0 7.92 0 12 0 C13.79845167 3.71608478 15.59483924 7.43315973 17.3894043 11.15112305 C17.99887781 12.41310879 18.60889312 13.67483303 19.21948242 14.9362793 C20.10221194 16.76020202 20.98292213 18.58508843 21.86328125 20.41015625 C22.39219971 21.50465088 22.92111816 22.59914551 23.46606445 23.72680664 C23.97226318 24.80696045 24.47846191 25.88711426 25 27 C25.28459076 27.60286835 25.56918152 28.20573669 25.86239624 28.82687378 C27.39539484 32.20124406 28 34.2178412 28 38 C24.7 38 21.4 38 18 38 C16 34 16 34 16 31 C9.4 31 2.8 31 -4 31 C-4.66 33.31 -5.32 35.62 -6 38 C-9.3 38 -12.6 38 -16 38 C-15.48738299 32.61600474 -14.05694842 28.37720313 -11.62109375 23.53515625 C-11.12380516 22.51789711 -11.12380516 22.51789711 -10.61647034 21.48008728 C-9.56589074 19.33628373 -8.50198675 17.19942641 -7.4375 15.0625 C-6.71850661 13.60135124 -6.00039863 12.13976645 -5.28320312 10.67773438 C-3.5323314 7.11336673 -1.76948674 3.55516071 0 0 Z " fill="#070707" transform="translate(466,112)"/>
<path d="M0 0 C3.63 0 7.26 0 11 0 C11 4.62 11 9.24 11 14 C16.19834114 12.99836841 18.4728183 12.07222428 21.61376953 7.55566406 C21.98872559 7.00104492 22.36368164 6.44642578 22.75 5.875 C25.17457094 2.59329604 26.97882575 0.26111038 31.0859375 -0.7890625 C33.81956683 -0.75392588 36.3246948 -0.54930221 39 0 C38.61472468 5.24567172 35.78798357 8.06046034 32.4375 11.8125 C31.91736328 12.40998047 31.39722656 13.00746094 30.86132812 13.62304688 C29.58264738 15.08942387 28.29244159 16.54573706 27 18 C28.90227034 22.54795668 32.29119792 25.95907427 35.54296875 29.578125 C38.28790507 32.74720599 39 33.63634439 39 38 C35.44806242 38.74817409 32.5380003 38.88569696 29 38 C24.66178301 34.38580828 20.54516713 30.09033426 18 25 C15.67843403 24.59270772 13.3431213 24.25561323 11 24 C11 28.62 11 33.24 11 38 C7.37 38 3.74 38 0 38 C0 25.46 0 12.92 0 0 Z " fill="#070707" transform="translate(304,112)"/>
<path d="M0 0 C0.82177734 -0.00128906 1.64355469 -0.00257812 2.49023438 -0.00390625 C3.34037109 -0.00003906 4.19050781 0.00382812 5.06640625 0.0078125 C5.91267578 0.00394531 6.75894531 0.00007813 7.63085938 -0.00390625 C11.75836577 0.00255813 15.60430731 0.0915405 19.62890625 1.1328125 C19.62890625 4.4328125 19.62890625 7.7328125 19.62890625 11.1328125 C18.57703125 10.9678125 17.52515625 10.8028125 16.44140625 10.6328125 C12.58735983 10.16398396 8.76021039 9.97032781 4.87890625 9.8828125 C3.7909375 9.85703125 2.70296875 9.83125 1.58203125 9.8046875 C-1.7950051 10.17991376 -3.14450547 10.56081077 -5.37109375 13.1328125 C-5.96922064 16.22282214 -5.96922064 16.22282214 -5.80859375 19.6328125 C-5.80666016 21.34984375 -5.80666016 21.34984375 -5.8046875 23.1015625 C-5.6253827 26.1087931 -5.6253827 26.1087931 -3.96875 27.9765625 C2.29847817 32.51225819 12.41111029 29.95770347 19.62890625 29.1328125 C19.62890625 32.4328125 19.62890625 35.7328125 19.62890625 39.1328125 C14.48614967 40.14804924 9.47753303 40.41746675 4.25390625 40.5078125 C3.44179687 40.54519531 2.6296875 40.58257812 1.79296875 40.62109375 C-4.47240176 40.71145967 -8.59842238 39.23098819 -13.37109375 35.1328125 C-17.54638967 30.42983305 -17.97326788 26.70326228 -17.80859375 20.6953125 C-17.81568359 19.97021484 -17.82277344 19.24511719 -17.83007812 18.49804688 C-17.77004178 13.35801226 -16.79097811 9.68151023 -14.37109375 5.1328125 C-9.68763028 1.34618246 -5.91829428 0.00898169 0 0 Z " fill="#080808" transform="translate(143.37109375,110.8671875)"/>
<path d="M0 0 C0.77214844 -0.00128906 1.54429687 -0.00257812 2.33984375 -0.00390625 C3.13777344 -0.00003906 3.93570312 0.00382812 4.7578125 0.0078125 C5.54800781 0.00394531 6.33820313 0.00007813 7.15234375 -0.00390625 C11.5080087 0.00334111 15.59441752 0.26410226 19.8828125 1.1328125 C19.8828125 4.4328125 19.8828125 7.7328125 19.8828125 11.1328125 C18.8309375 10.9678125 17.7790625 10.8028125 16.6953125 10.6328125 C12.84126608 10.16398396 9.01411664 9.97032781 5.1328125 9.8828125 C4.04484375 9.85703125 2.956875 9.83125 1.8359375 9.8046875 C-1.54109885 10.17991376 -2.89059922 10.56081077 -5.1171875 13.1328125 C-5.71531439 16.22282214 -5.71531439 16.22282214 -5.5546875 19.6328125 C-5.55275391 21.34984375 -5.55275391 21.34984375 -5.55078125 23.1015625 C-5.36341697 26.0959935 -5.36341697 26.0959935 -3.77734375 27.9765625 C2.58806269 32.40988087 12.70608608 29.94145773 19.8828125 29.1328125 C19.8828125 32.4328125 19.8828125 35.7328125 19.8828125 39.1328125 C14.74005592 40.14804924 9.73143928 40.41746675 4.5078125 40.5078125 C3.69570313 40.54519531 2.88359375 40.58257812 2.046875 40.62109375 C-4.17364938 40.71081285 -8.44490004 39.32583957 -13.1171875 35.1328125 C-17.18938262 30.40083157 -17.74658298 25.63572568 -17.6171875 19.5703125 C-17.63265625 18.84134766 -17.648125 18.11238281 -17.6640625 17.36132812 C-17.62677559 12.18310807 -16.46562466 9.2568068 -13.1171875 5.1328125 C-8.869771 1.20395223 -5.69571722 0.00924415 0 0 Z " fill="#060606" transform="translate(271.1171875,110.8671875)"/>
<path d="M0 0 C13.2 0 26.4 0 40 0 C40 2.97 40 5.94 40 9 C35.38 9 30.76 9 26 9 C26 18.57 26 28.14 26 38 C22.37 38 18.74 38 15 38 C15 28.43 15 18.86 15 9 C10.05 9 5.1 9 0 9 C0 6.03 0 3.06 0 0 Z " fill="#070707" transform="translate(405,112)"/>
<path d="M0 0 C12.87 0 25.74 0 39 0 C39 2.97 39 5.94 39 9 C34.38 9 29.76 9 25 9 C25 18.57 25 28.14 25 38 C21.37 38 17.74 38 14 38 C14 28.43 14 18.86 14 9 C9.38 9 4.76 9 0 9 C0 6.03 0 3.06 0 0 Z " fill="#040404" transform="translate(499,112)"/>
<path d="M0 0 C0.495 2.475 0.495 2.475 1 5 C-0.12027588 5.30236572 -0.12027588 5.30236572 -1.26318359 5.61083984 C-4.63571925 6.52527445 -8.00534827 7.44999757 -11.375 8.375 C-12.550625 8.69210938 -13.72625 9.00921875 -14.9375 9.3359375 C-16.05898437 9.6453125 -17.18046875 9.9546875 -18.3359375 10.2734375 C-19.37282715 10.55622559 -20.4097168 10.83901367 -21.47802734 11.13037109 C-24.13126306 11.83927987 -24.13126306 11.83927987 -26 14 C-26.24212873 15.98128508 -26.24212873 15.98128508 -26.125 18.125 C-26.08375 19.40375 -26.0425 20.6825 -26 22 C-19.24929661 22.31476494 -14.28482748 21.4465882 -8 19.0625 C4.28635967 14.46578037 4.28635967 14.46578037 10 15 C11.7578125 16.49243164 11.7578125 16.49243164 13 18 C12.505 19.485 12.505 19.485 12 21 C10.30102539 21.75195312 10.30102539 21.75195312 8.09765625 22.28125 C7.29440918 22.48210205 6.49116211 22.6829541 5.66357422 22.88989258 C4.37604248 23.19189575 4.37604248 23.19189575 3.0625 23.5 C1.31601771 23.92941241 -0.43008124 24.3603871 -2.17578125 24.79296875 C-3.01447754 24.99841309 -3.85317383 25.20385742 -4.71728516 25.41552734 C-7.39437903 26.1009779 -10.00556259 26.9338016 -12.625 27.8125 C-17.06641695 29.15345136 -21.39995458 29.99091888 -26 29 C-29.09632649 26.56246638 -30.82300487 24.26549269 -33 21 C-33.666995 14.10771829 -33.666995 14.10771829 -31.45703125 10.4375 C-28.42082096 7.42542492 -25.28329623 6.20336321 -21.3125 4.875 C-20.59932617 4.62419678 -19.88615234 4.37339355 -19.15136719 4.11499023 C-17.74145627 3.6214573 -16.32922366 3.13449779 -14.91455078 2.65478516 C-13.29725448 2.1016624 -11.69195277 1.51365224 -10.08984375 0.91796875 C-6.28161962 -0.47435359 -3.87703909 -1.24374042 0 0 Z " fill="#181818" transform="translate(99,150)"/>
<path d="M0 0 C3.63 0 7.26 0 11 0 C11 12.54 11 25.08 11 38 C7.37 38 3.74 38 0 38 C0 25.46 0 12.92 0 0 Z " fill="#0A0A0A" transform="translate(229,112)"/>
<path d="M0 0 C0.66 0 1.32 0 2 0 C1.96962332 7.13852036 0.39211455 11.61583659 -3.51171875 17.55078125 C-5.35077892 20.5772661 -6.33653276 23.57384193 -7.34375 26.94921875 C-8.25473246 29.79603893 -9.58598539 32.37397287 -11 35 C-12.65 35 -14.3 35 -16 35 C-16 22.7773182 -7.97345494 8.96474933 0 0 Z " fill="#171717" transform="translate(93,116)"/>
<path d="M0 0 C1.75 1.5 1.75 1.5 3 3 C2.67 3.99 2.34 4.98 2 6 C0.18994141 6.78369141 0.18994141 6.78369141 -2.1484375 7.3515625 C-2.98890625 7.56296875 -3.829375 7.774375 -4.6953125 7.9921875 C-5.57960938 8.20101562 -6.46390625 8.40984375 -7.375 8.625 C-9.11210765 9.05416777 -10.84909207 9.48383473 -12.5859375 9.9140625 C-13.3598584 10.0992041 -14.1337793 10.2843457 -14.93115234 10.47509766 C-16.6413831 10.90901271 -18.32612594 11.44204198 -20 12 C-25.53747907 12.35158597 -27.61437249 12.46459428 -32 9 C-28.27273839 7.68204603 -24.54287917 6.37160127 -20.8125 5.0625 C-19.75740234 4.68931641 -18.70230469 4.31613281 -17.61523438 3.93164062 C-16.59365234 3.57392578 -15.57207031 3.21621094 -14.51953125 2.84765625 C-13.11344604 2.3527771 -13.11344604 2.3527771 -11.67895508 1.84790039 C-7.63518781 0.56803128 -4.25861792 0 0 0 Z " fill="#141414" transform="translate(109,165)"/>
<path d="M0 0 C2.27057377 -0.05398987 4.54151288 -0.09278742 6.8125 -0.125 C8.07707031 -0.14820312 9.34164062 -0.17140625 10.64453125 -0.1953125 C14 0 14 0 17 2 C16.67 3.98 16.34 5.96 16 8 C10.72 8 5.44 8 0 8 C0 5.36 0 2.72 0 0 Z " fill="#F1F1F1" transform="translate(187,120)"/>
<path d="M0 0 C1.125 3.75 1.125 3.75 0 6 C-2.109375 6.6328125 -2.109375 6.6328125 -4.75 7.125 C-5.61109375 7.29257813 -6.4721875 7.46015625 -7.359375 7.6328125 C-9.94533821 7.9923991 -12.39313809 8.06564041 -15 8 C-15 6.35 -15 4.7 -15 3 C-9.89665983 1.094753 -5.53657294 -0.42589023 0 0 Z " fill="#1B1B1B" transform="translate(122,176)"/>
<path d="M0 0 C0.66 0 1.32 0 2 0 C2.67119549 1.4562545 3.33681807 2.91507867 4 4.375 C4.556875 5.59316406 4.556875 5.59316406 5.125 6.8359375 C6 9 6 9 6 11 C2.7 11 -0.6 11 -4 11 C-1.125 2.25 -1.125 2.25 0 0 Z " fill="#DEDEDE" transform="translate(471,123)"/>
<path d="M0 0 C0 1.65 0 3.3 0 5 C-1.45463481 5.38909985 -2.91391207 5.76088029 -4.375 6.125 C-5.18710938 6.33382812 -5.99921875 6.54265625 -6.8359375 6.7578125 C-7.55007812 6.83773437 -8.26421875 6.91765625 -9 7 C-9.66 6.34 -10.32 5.68 -11 5 C-11 4.01 -11 3.02 -11 2 C-7.17010894 0.19769832 -4.21878192 -0.19622241 0 0 Z " fill="#161616" transform="translate(99,182)"/>
<path d="M0 0 C5.28 0 10.56 0 16 0 C15.67 1.65 15.34 3.3 15 5 C9.33895411 4.50341703 5.12325529 3.45489316 0 1 C0 0.67 0 0.34 0 0 Z " fill="#292929" transform="translate(205,184)"/>
<path d="M0 0 C1.32 0 2.64 0 4 0 C4.33 1.65 4.66 3.3 5 5 C3.35 5.33 1.7 5.66 0 6 C-0.38218767 4.34385343 -0.71395102 2.67542976 -1 1 C-0.67 0.67 -0.34 0.34 0 0 Z " fill="#363636" transform="translate(91,137)"/>
<path d="M0 0 C1.98 0.495 1.98 0.495 4 1 C4.33 2.65 4.66 4.3 5 6 C3.02 6.33 1.04 6.66 -1 7 C-0.67 4.69 -0.34 2.38 0 0 Z " fill="#292929" transform="translate(95,149)"/>
<path d="M0 0 C1.65 0 3.3 0 5 0 C5 0.99 5 1.98 5 3 C4.34 3.66 3.68 4.32 3 5 C1.68 4.01 0.36 3.02 -1 2 C-0.67 1.34 -0.34 0.68 0 0 Z " fill="#070708" transform="translate(48,99)"/>
<path d="M0 0 C0.66 0.33 1.32 0.66 2 1 C-0.31 3.31 -2.62 5.62 -5 8 C-5.66 7.67 -6.32 7.34 -7 7 C-4.66666667 4.66666667 -2.33333333 2.33333333 0 0 Z " fill="#D2D2D2" transform="translate(207,50)"/>
<path d="M0 0 C-0.28875 0.556875 -0.5775 1.11375 -0.875 1.6875 C-2.0413253 4.08494645 -3.0339881 6.51596939 -4 9 C-4.33 9 -4.66 9 -5 9 C-5.36666667 3.5 -5.36666667 3.5 -3.625 1.125 C-2 0 -2 0 0 0 Z " fill="#CACACB" transform="translate(77,161)"/>
</svg>
