<svg width="877" height="365" viewBox="0 0 877 365" fill="none" xmlns="http://www.w3.org/2000/svg">
<g clip-path="url(#clip0_14_1749)">
<path d="M0 0C289.41 0 578.82 0 877 0C877 120.45 877 240.9 877 365C587.59 365 298.18 365 0 365C0 244.55 0 124.1 0 0Z" fill="black"/>
<path d="M27.8905 11.2308C33.7322 11.6981 38.0755 14.7268 42.901 17.5481C68.6884 32.2072 95.4942 42.6381 124.455 51.0776C145.883 57.3217 164.763 64.7944 176.192 83.2327C181.686 93.7005 183.462 103.614 182.837 115.115C180.281 116.042 177.724 116.968 175.09 117.923C174.554 115.23 174.554 115.23 174.007 112.483C173.498 110.085 172.987 107.686 172.475 105.288C172.245 104.11 172.014 102.932 171.776 101.719C169.155 89.7045 163.251 80.359 152.72 72.5887C137.755 63.5566 119.979 59.1044 103.04 54.1358C86.9255 49.4037 72.0662 44.0502 57.3304 36.5C56.4261 36.0394 55.5218 35.5789 54.5901 35.1044C47.6178 31.5398 40.7501 27.8891 34.0884 23.8654C33.8609 29.8897 33.7249 35.9131 33.6042 41.9399C33.5392 43.6301 33.4743 45.3203 33.4074 47.0618C33.2435 57.9962 34.0576 67.0464 41.8357 75.8077C51.6507 83.3967 65.431 85.7996 77.5704 88.881C79.5028 89.385 81.4353 89.889 83.4263 90.4082C88.1522 91.6386 92.8821 92.8547 97.6166 94.0577C98.3836 97.5322 98.3836 97.5322 99.1661 101.077C88.8062 101.791 80.1133 99.1802 70.3072 96.3389C68.7213 95.8938 67.1354 95.4486 65.5014 94.9899C58.5295 93.016 51.6939 90.9594 44.9347 88.4423C45.4615 96.3973 47.6823 101.393 54.2315 106.692C59.3983 108.956 59.3983 108.956 65.2715 110.29C66.3251 110.563 67.3787 110.837 68.4642 111.119C71.9743 112.018 75.496 112.868 79.023 113.712C81.7467 114.377 84.4704 115.042 87.194 115.708C94.2726 117.422 101.364 119.088 108.463 120.731C108.974 123.047 109.486 125.363 110.012 127.75C103.575 129.366 99.406 128.829 93.0348 127.141C91.3121 126.693 89.5894 126.246 87.8144 125.784C86.0318 125.304 84.2491 124.823 82.4125 124.328C80.5999 123.853 78.7872 123.378 76.9197 122.889C72.4512 121.715 67.9879 120.528 63.5283 119.327C65.5253 129.107 65.5253 129.107 72.8251 136.173C76.7117 137.549 76.7117 137.549 81.0567 138.279C83.5194 138.789 83.5194 138.789 86.0319 139.31C87.8096 139.664 89.5872 140.019 91.4188 140.385C106.67 143.508 122.229 146.959 134.804 155.827C136.123 159.649 136.123 159.649 136.353 162.846C129.183 163.48 125.299 162.211 119.218 158.832C108.96 153.371 98.111 151.022 86.5767 148.895C74.0813 146.542 65.4993 143.804 56.5557 135.296C53.2493 128.556 53.7179 122.38 54.2315 115.115C53.057 114.732 51.8826 114.348 50.6725 113.953C44.181 111.403 40.3923 108.232 37.1873 102.481C36.4781 97.4584 36.312 92.5313 36.1584 87.4717C35.404 80.7403 32.6157 78.1164 27.8905 73C25.0341 65.8158 24.3332 59.1302 24.38 51.5639C24.377 50.4939 24.374 49.4239 24.371 48.3214C24.3689 46.0787 24.3745 43.836 24.3875 41.5934C24.4043 38.1523 24.3876 34.7123 24.3679 31.2712C24.3699 29.0859 24.3739 26.9007 24.38 24.7154C24.3737 23.6859 24.3674 22.6565 24.361 21.5959C24.4352 14.3613 24.4352 14.3613 27.8905 11.2308Z" fill="#434343"/>
<path d="M272.707 155.827C280.185 155.711 287.663 155.595 295.368 155.476C297.71 155.425 300.052 155.374 302.465 155.321C304.33 155.307 306.194 155.293 308.115 155.279C310.963 155.234 310.963 155.234 313.868 155.189C321.543 156.109 326.202 159.372 331.587 164.25C333.839 169.555 334.039 175.51 333.136 181.096C330.134 185.746 330.134 185.746 326.938 189.519C326.171 191.604 326.171 191.604 325.389 193.731C326.91 196.508 326.91 196.508 329.166 199.258C332.688 203.771 333.136 204.697 333.136 210.577C327.695 211.47 323.044 211.77 317.641 210.577C312.938 206.443 309.696 201.848 306.795 196.538C306.795 195.612 306.795 194.685 306.795 193.731C301.171 193.731 295.546 193.731 289.751 193.731C289.751 199.29 289.751 204.849 289.751 210.577C284.126 210.577 278.502 210.577 272.707 210.577C272.707 192.509 272.707 174.442 272.707 155.827Z" fill="#434343"/>
<path d="M447.797 11.2308C448.297 20.2684 448.761 29.3068 449.174 38.348C449.312 41.3736 449.461 44.3987 449.613 47.4237C449.924 58.1315 448.703 68.1977 441.405 76.9483C436.817 84.0153 437.215 91.6093 436.951 99.6731C433.883 99.6731 430.815 99.6731 427.654 99.6731C427.654 95.9669 427.654 92.2608 427.654 88.4423C425.574 89.1291 425.574 89.1291 423.453 89.8297C417.633 91.7355 411.801 93.6058 405.961 95.4615C404.527 95.9248 403.093 96.3881 401.615 96.8654C392.568 99.5891 384.478 100.168 374.972 99.6731C374.972 97.82 374.972 95.9669 374.972 94.0577C402.232 85.7441 402.232 85.7441 411.772 83.1779C412.936 82.8612 414.101 82.5445 415.3 82.2182C418.012 81.5128 420.75 80.8913 423.49 80.2825C430.896 77.3172 434.288 72.7445 437.156 66.1672C439.516 58.1434 438.823 49.7326 438.694 41.5012C438.68 39.8047 438.666 38.1081 438.651 36.3602C438.615 32.195 438.564 28.0303 438.5 23.8654C436.792 24.7485 435.085 25.6316 433.325 26.5415C405.355 40.8868 376.752 53.359 345.792 61.5225C331.569 65.4429 316.541 70.9716 308.332 82.8598C305.314 88.3083 302.876 93.9416 300.597 99.6731C298.552 99.6731 296.507 99.6731 294.399 99.6731C295.436 86.5227 300.808 76.4636 311.443 67.3846C322.836 59.5335 334.7 55.1416 348.312 51.3791C353.486 49.944 358.63 48.4273 363.774 46.9082C364.769 46.6151 365.764 46.322 366.789 46.0201C377.815 42.7337 387.916 38.5173 398.214 33.6923C400.287 32.7857 402.363 31.8848 404.442 30.9888C416.294 25.8322 427.134 20.3094 437.798 13.2927C441.599 11.2308 441.599 11.2308 447.797 11.2308Z" fill="#434343"/>
<path d="M119.309 254.096C123.144 254.791 123.144 254.791 127.057 255.5C127.378 256.606 127.7 257.711 128.031 258.851C136.429 285.752 153.323 308.913 180.005 323.499C207.82 337.422 236.359 342.463 267.532 335.475C283.866 331.183 296.668 325.613 309.894 315.865C311.009 315.085 312.123 314.305 313.271 313.502C331.896 299.812 343.535 278.85 350.18 258.308C353.248 258.308 356.316 258.308 359.477 258.308C356.103 277.475 346.597 292.529 333.136 307.442C332.499 308.222 331.862 309.002 331.205 309.806C320.362 322.429 304.311 332.123 288.201 338.327C286.911 338.843 285.621 339.358 284.291 339.89C269.125 345.703 255.34 347.232 238.909 347.189C236.355 347.223 236.355 347.223 233.749 347.257C217.132 347.266 202.127 344.379 187.389 337.362C185.819 336.629 185.819 336.629 184.217 335.881C159.27 323.937 141.596 307.475 128.606 284.981C127.991 283.94 127.376 282.9 126.742 281.828C121.47 272.686 118.839 264.543 119.309 254.096Z" fill="#434343"/>
<path d="M584.247 155.564C586.304 155.565 586.304 155.565 588.402 155.566C594.915 155.606 601.046 155.737 607.392 157.231C607.392 161.863 607.392 166.496 607.392 171.269C605.507 171.038 603.621 170.806 601.679 170.567C585.556 168.5 585.556 168.5 570.205 171.269C570.716 172.659 571.228 174.049 571.754 175.481C574.277 175.712 574.277 175.712 576.851 175.947C579.09 176.171 581.33 176.396 583.569 176.621C584.674 176.72 585.778 176.819 586.916 176.92C595.335 177.795 602.279 179.594 608.748 184.869C611.318 189.656 611.32 194.184 610.491 199.346C607.745 205.24 604.429 207.845 598.095 210.577C590.968 212.323 583.921 212.189 576.597 212.156C575.392 212.162 574.188 212.167 572.947 212.173C565.675 212.162 558.783 211.669 551.611 210.577C551.611 205.944 551.611 201.312 551.611 196.538C564.906 196.538 578.2 196.538 591.898 196.538C591.898 195.149 591.898 193.759 591.898 192.327C590.234 192.173 588.57 192.019 586.856 191.861C584.63 191.637 582.405 191.412 580.18 191.186C579.088 191.088 577.997 190.989 576.872 190.887C568.028 189.964 559.399 188.519 553.258 182.237C551.096 177.052 550.373 172.467 551.611 167.058C559.756 155.337 570.291 155.388 584.247 155.564Z" fill="#434343"/>
<path d="M722.053 157.231C728.189 157.231 734.325 157.231 740.647 157.231C743.433 162.448 746.217 167.666 748.997 172.885C749.942 174.657 750.887 176.428 751.833 178.199C753.201 180.76 754.565 183.321 755.929 185.883C756.749 187.42 757.569 188.956 758.413 190.54C759.197 192.056 759.982 193.572 760.79 195.135C761.231 195.981 761.672 196.827 762.126 197.699C764.501 202.436 765.438 205.267 765.438 210.577C760.325 210.577 755.212 210.577 749.943 210.577C746.845 204.962 746.845 204.962 746.845 200.75C736.618 200.75 726.392 200.75 715.855 200.75C714.832 203.993 713.81 207.236 712.756 210.577C707.643 210.577 702.53 210.577 697.261 210.577C698.056 203.019 700.272 197.068 704.046 190.271C704.817 188.842 704.817 188.842 705.603 187.386C707.231 184.376 708.879 181.376 710.529 178.376C711.643 176.325 712.756 174.273 713.867 172.221C716.58 167.217 719.311 162.222 722.053 157.231Z" fill="#434343"/>
<path d="M471.039 157.231C476.663 157.231 482.288 157.231 488.083 157.231C488.083 163.717 488.083 170.202 488.083 176.885C496.138 175.478 499.662 174.178 504.529 167.838C505.11 167.059 505.691 166.281 506.289 165.478C510.046 160.871 512.842 157.597 519.206 156.123C523.441 156.172 527.323 156.46 531.468 157.231C530.871 164.595 526.491 168.546 521.3 173.814C520.494 174.652 519.688 175.491 518.858 176.355C516.876 178.414 514.877 180.458 512.874 182.5C515.822 188.885 521.073 193.673 526.112 198.754C530.365 203.203 531.468 204.451 531.468 210.577C525.965 211.627 521.455 211.82 515.973 210.577C509.252 205.503 502.873 199.473 498.929 192.327C495.332 191.755 491.714 191.282 488.083 190.923C488.083 197.409 488.083 203.895 488.083 210.577C482.458 210.577 476.834 210.577 471.039 210.577C471.039 192.973 471.039 175.368 471.039 157.231Z" fill="#434343"/>
<path d="M222.149 155.64C223.423 155.639 224.696 155.637 226.008 155.635C227.325 155.64 228.642 155.646 229.999 155.651C231.311 155.646 232.622 155.641 233.973 155.635C240.368 155.644 246.328 155.769 252.564 157.231C252.564 161.863 252.564 166.496 252.564 171.269C250.934 171.038 249.304 170.806 247.625 170.567C241.653 169.909 235.723 169.637 229.709 169.514C228.023 169.478 226.337 169.442 224.6 169.405C219.368 169.931 217.277 170.466 213.827 174.077C212.9 178.415 212.9 178.415 213.149 183.202C213.152 185.612 213.152 185.612 213.155 188.072C213.433 192.293 213.433 192.293 216 194.915C225.711 201.283 241.38 197.696 252.564 196.538C252.564 201.171 252.564 205.804 252.564 210.577C244.595 212.002 236.834 212.38 228.74 212.507C227.482 212.56 226.224 212.612 224.927 212.666C215.219 212.793 208.826 210.715 201.431 204.962C194.962 198.359 194.3 193.128 194.555 184.693C194.544 183.676 194.533 182.658 194.522 181.609C194.615 174.393 196.132 169.232 199.882 162.846C207.138 157.53 212.979 155.653 222.149 155.64Z" fill="#434343"/>
<path d="M420.088 155.64C421.284 155.639 422.481 155.637 423.713 155.635C424.95 155.64 426.186 155.646 427.46 155.651C428.684 155.646 429.909 155.641 431.17 155.635C437.919 155.645 444.251 156.011 450.896 157.231C450.896 161.863 450.896 166.496 450.896 171.269C449.266 171.038 447.636 170.806 445.957 170.567C439.985 169.909 434.055 169.637 428.041 169.514C426.355 169.478 424.67 169.442 422.933 169.405C417.7 169.931 415.609 170.466 412.159 174.077C411.232 178.415 411.232 178.415 411.481 183.202C411.484 185.612 411.484 185.612 411.487 188.072C411.778 192.275 411.778 192.275 414.235 194.915C424.098 201.139 439.776 197.674 450.896 196.538C450.896 201.171 450.896 205.804 450.896 210.577C442.927 212.002 435.167 212.38 427.073 212.507C425.814 212.56 424.556 212.612 423.26 212.666C413.621 212.792 407.003 210.848 399.763 204.962C393.454 198.319 392.59 191.629 392.791 183.114C392.767 182.091 392.743 181.067 392.718 180.013C392.776 172.744 394.575 168.636 399.763 162.846C406.345 157.331 411.263 155.653 420.088 155.64Z" fill="#434343"/>
<path d="M627.535 157.231C647.988 157.231 668.441 157.231 689.514 157.231C689.514 161.4 689.514 165.57 689.514 169.865C682.356 169.865 675.197 169.865 667.822 169.865C667.822 183.3 667.822 196.735 667.822 210.577C662.197 210.577 656.572 210.577 650.777 210.577C650.777 197.142 650.777 183.707 650.777 169.865C643.108 169.865 635.438 169.865 627.535 169.865C627.535 165.696 627.535 161.527 627.535 157.231Z" fill="#434343"/>
<path d="M773.185 157.231C793.127 157.231 813.069 157.231 833.615 157.231C833.615 161.4 833.615 165.57 833.615 169.865C826.456 169.865 819.298 169.865 811.922 169.865C811.922 183.3 811.922 196.735 811.922 210.577C806.298 210.577 800.673 210.577 794.878 210.577C794.878 197.142 794.878 183.707 794.878 169.865C787.719 169.865 780.561 169.865 773.185 169.865C773.185 165.696 773.185 161.527 773.185 157.231Z" fill="#434343"/>
<path d="M153.398 210.577C154.165 214.051 154.165 214.051 154.947 217.596C153.211 218.021 153.211 218.021 151.44 218.454C146.215 219.737 140.993 221.036 135.772 222.334C133.951 222.779 132.129 223.224 130.252 223.683C128.515 224.117 126.777 224.552 124.987 224.999C123.38 225.396 121.773 225.793 120.118 226.202C116.007 227.197 116.007 227.197 113.111 230.231C112.736 233.012 112.736 233.012 112.918 236.022C112.982 237.817 113.045 239.612 113.111 241.462C123.571 241.903 131.264 240.685 141.002 237.338C160.039 230.885 160.039 230.885 168.892 231.635C171.616 233.73 171.616 233.73 173.541 235.846C172.774 237.931 172.774 237.931 171.991 240.058C169.359 241.113 169.359 241.113 165.945 241.856C164.7 242.138 163.455 242.42 162.173 242.711C160.178 243.135 160.178 243.135 158.143 243.567C155.437 244.17 152.731 244.775 150.026 245.382C148.727 245.671 147.427 245.959 146.088 246.256C141.94 247.219 137.894 248.388 133.835 249.621C126.954 251.504 120.239 252.68 113.111 251.288C108.314 247.867 105.638 244.642 102.265 240.058C101.232 230.382 101.232 230.382 104.656 225.23C109.36 221.001 114.222 219.285 120.374 217.421C121.479 217.069 122.585 216.717 123.723 216.354C125.908 215.661 128.096 214.977 130.288 214.304C132.794 213.527 135.281 212.702 137.764 211.866C143.664 209.911 147.39 208.831 153.398 210.577Z" fill="#434343"/>
<path d="M354.829 157.231C360.453 157.231 366.078 157.231 371.873 157.231C371.873 174.835 371.873 192.439 371.873 210.577C366.248 210.577 360.624 210.577 354.829 210.577C354.829 192.973 354.829 175.368 354.829 157.231Z" fill="#434343"/>
<path d="M144.101 162.846C145.123 162.846 146.146 162.846 147.2 162.846C147.153 172.868 144.708 179.153 138.659 187.485C135.81 191.733 134.282 195.94 132.722 200.679C131.31 204.675 129.248 208.294 127.057 211.981C124.5 211.981 121.943 211.981 119.309 211.981C119.309 194.822 131.746 175.431 144.101 162.846Z" fill="#434343"/>
<path d="M168.892 231.635C171.604 233.74 171.604 233.74 173.541 235.846C173.029 237.236 172.518 238.626 171.991 240.058C169.187 241.158 169.187 241.158 165.563 241.955C164.261 242.252 162.959 242.549 161.617 242.854C160.247 243.148 158.877 243.441 157.465 243.743C154.773 244.345 152.082 244.948 149.391 245.552C148.192 245.812 146.992 246.072 145.757 246.34C143.107 246.949 140.496 247.697 137.903 248.481C129.323 248.974 126.105 249.133 119.309 244.269C125.084 242.419 130.864 240.579 136.644 238.742C138.279 238.218 139.914 237.694 141.598 237.154C143.181 236.652 144.764 236.15 146.395 235.632C148.573 234.938 148.573 234.938 150.796 234.229C157.062 232.432 162.294 231.635 168.892 231.635Z" fill="#434343"/>
<path d="M289.751 168.462C293.269 168.386 296.788 168.331 300.307 168.286C302.266 168.253 304.225 168.221 306.244 168.187C311.443 168.462 311.443 168.462 316.092 171.269C315.581 174.049 315.069 176.828 314.542 179.692C306.361 179.692 298.18 179.692 289.751 179.692C289.751 175.986 289.751 172.28 289.751 168.462Z" fill="black"/>
<path d="M189.035 247.077C190.778 252.341 190.778 252.341 189.035 255.5C185.767 256.388 185.767 256.388 181.675 257.079C180.341 257.315 179.007 257.55 177.632 257.792C173.625 258.297 169.833 258.4 165.793 258.308C165.793 255.991 165.793 253.675 165.793 251.288C173.701 248.614 180.457 246.479 189.035 247.077Z" fill="#434343"/>
<path d="M729.8 172.673C730.823 172.673 731.846 172.673 732.899 172.673C733.939 174.717 734.971 176.765 735.998 178.815C736.861 180.525 736.861 180.525 737.741 182.27C739.097 185.308 739.097 185.308 739.097 188.115C733.984 188.115 728.871 188.115 723.603 188.115C728.057 175.832 728.057 175.832 729.8 172.673Z" fill="black"/>
<path d="M153.398 255.5C153.398 257.816 153.398 260.133 153.398 262.519C151.144 263.065 148.883 263.587 146.619 264.099C145.36 264.392 144.102 264.685 142.805 264.987C141.699 265.099 140.592 265.211 139.452 265.327C138.43 264.4 137.407 263.474 136.353 262.519C136.353 261.129 136.353 259.74 136.353 258.308C142.288 255.778 146.861 255.225 153.398 255.5Z" fill="#434343"/>
<path d="M317.641 258.308C325.823 258.308 334.004 258.308 342.433 258.308C341.922 260.624 341.41 262.94 340.883 265.327C332.112 264.63 325.58 263.158 317.641 259.712C317.641 259.248 317.641 258.785 317.641 258.308Z" fill="#434343"/>
<path d="M141.002 192.327C143.047 192.327 145.092 192.327 147.2 192.327C147.711 194.643 148.222 196.96 148.749 199.346C146.192 199.809 143.636 200.273 141.002 200.75C140.41 198.425 139.895 196.083 139.452 193.731C139.964 193.267 140.475 192.804 141.002 192.327Z" fill="#434343"/>
<path d="M147.2 209.173C150.268 209.868 150.268 209.868 153.398 210.577C153.909 212.893 154.42 215.21 154.947 217.596C151.879 218.059 148.811 218.523 145.65 219C146.162 215.757 146.673 212.514 147.2 209.173Z" fill="#434343"/>
<path d="M74.3745 138.981C76.9312 138.981 79.4878 138.981 82.1219 138.981C82.1219 140.371 82.1219 141.76 82.1219 143.192C81.0992 144.119 80.0766 145.045 79.023 146C76.9777 144.61 74.9324 143.22 72.8251 141.788C73.3364 140.862 73.8477 139.935 74.3745 138.981Z" fill="#434343"/>
<path d="M320.74 70.1923C321.763 70.6556 322.786 71.1189 323.839 71.5962C320.26 74.8391 316.681 78.0819 312.993 81.4231C311.97 80.9598 310.948 80.4966 309.894 80.0192C313.509 76.7436 317.125 73.468 320.74 70.1923Z" fill="#434343"/>
<path d="M119.309 226.019C118.862 226.801 118.414 227.583 117.953 228.388C116.146 231.754 114.608 235.167 113.111 238.654C112.6 238.654 112.089 238.654 111.562 238.654C110.994 230.933 110.994 230.933 113.692 227.599C116.21 226.019 116.21 226.019 119.309 226.019Z" fill="#434343"/>
</g>
<defs>
<clipPath id="clip0_14_1749">
<rect width="877" height="365" fill="white"/>
</clipPath>
</defs>
</svg>
