<svg width="77" height="44" viewBox="0 0 77 44" fill="none" xmlns="http://www.w3.org/2000/svg">
<mask id="mask0_14_539" style="mask-type:luminance" maskUnits="userSpaceOnUse" x="23" y="2" width="32" height="40">
<path d="M41.1457 12.55L42.9094 15.7089C43.0172 15.7196 43.1249 15.7196 43.1653 15.7196C43.1787 15.7196 43.1922 15.7196 43.1922 15.7196L41.3476 12.4215C41.2399 12.5179 41.1457 12.55 41.1457 12.55ZM40.4321 11.1472C40.2167 11.1472 38.8299 11.2436 38.8299 11.2436L38.9241 11.4042C38.9241 11.4042 40.2032 11.3293 40.5129 11.3079C40.5533 11.3079 40.5802 11.3079 40.6206 11.3079C40.9437 11.3079 41.0918 11.3935 41.0918 11.3935C40.9976 11.2115 40.6744 11.1472 40.4456 11.1365C40.4456 11.1472 40.4321 11.1472 40.4321 11.1472ZM37.4162 15.3556C38.1836 15.7946 39.0049 16.0944 39.7993 16.2979C39.7858 16.2979 39.7724 16.2979 39.7589 16.2979C39.3684 16.2979 38.9645 16.2979 38.5606 16.3086C37.5239 16.33 36.5006 16.3835 35.5043 16.4692C36.4333 16.1265 37.0796 15.6447 37.4162 15.3556ZM33.579 16.2979C34.8984 16.1587 35.8409 15.6554 36.4198 15.2485C36.918 14.9058 37.2142 14.5846 37.3085 14.4561C37.497 14.5739 37.672 14.6809 37.8605 14.788C38.8299 15.3234 39.8531 15.6447 40.7687 15.8267C41.8458 16.0516 42.7748 16.0944 43.3538 16.0944C43.4211 16.0944 43.4884 16.0944 43.5557 16.0944L43.7038 16.3728C43.7038 16.3728 43.5153 16.3835 43.2056 16.3835C42.1285 16.3835 39.4762 16.2336 37.3758 14.8951C37.3758 14.8951 35.9621 16.405 33.4443 16.6084L33.579 16.2979ZM34.4003 14.4025C34.4003 14.4025 35.6524 14.0063 36.4737 12.7535C37.4566 11.2329 38.5875 10.3977 40.8899 10.3977L43.1114 12.9141L42.1285 12.989C42.1285 12.989 41.765 11.6184 40.6206 11.6184C40.5802 11.6184 40.5398 11.6184 40.4994 11.6184C40.3109 11.6291 39.0184 11.7041 38.9915 11.7148C38.9915 11.7148 39.2203 12.4001 40.1224 12.5286C40.2301 12.5393 40.3244 12.55 40.4186 12.55C41.1053 12.55 41.415 12.1859 41.415 12.1859L43.4884 15.8803C43.448 15.8803 43.4076 15.8803 43.3538 15.8803C42.2228 15.8803 39.5973 15.6982 37.3489 14.2312L37.2815 14.1884L37.2411 14.2419C37.2277 14.2633 36.0429 15.7732 33.6328 16.0623L34.4003 14.4025ZM34.1579 13.76C34.0771 13.4923 33.9829 13.0105 33.9829 12.475C33.9829 11.7148 34.2118 10.6654 35.2485 10.0015C36.164 9.42321 37.1873 9.26259 37.9951 9.26259C38.1971 9.26259 38.3856 9.2733 38.5606 9.28401C39.2877 9.34825 39.8531 9.50888 40.0955 9.58384L40.5802 10.2049C40.5802 10.2049 40.2705 10.2156 39.53 10.312C39.0722 10.3762 38.5741 10.494 38.0624 10.7617C37.5374 11.0402 36.9853 11.4792 36.4737 12.1859C36.366 12.3358 36.2583 12.4858 36.164 12.6571C35.5447 13.6637 34.4272 14.1241 34.4272 14.1241L34.1579 13.76ZM32.3807 6.32854C31.6671 6.09296 31.2228 5.81455 30.7112 5.50401C30.3207 5.25772 29.9168 5.01143 29.3782 4.76514C28.8801 4.54027 28.355 4.43319 27.8299 4.43319H27.8164C26.6585 4.43319 25.5545 5.20418 25.5545 5.20418C25.5545 5.20418 27.0355 5.32197 27.7895 5.69676C27.0759 5.70747 26.9951 6.18934 26.9951 6.18934L27.426 6.38208C28.4088 6.86395 28.0049 7.0567 27.6145 7.0567C27.4933 7.0567 27.3856 7.04599 27.3048 7.01387L26.2008 6.56412C26.2008 6.56412 26.7662 8.18106 28.1126 8.28814L27.803 8.52372C27.803 8.52372 30.1591 8.84497 30.8997 9.43392C31.4113 9.84083 31.694 10.2477 31.3305 10.3762C31.2766 10.3977 31.2228 10.3977 31.1824 10.3977C30.9266 10.3977 30.6304 10.2156 30.415 10.0122C30.1187 9.73375 29.8899 9.17692 29.8899 9.17692C29.4456 9.86225 29.7956 10.6118 29.7956 10.6118C29.9841 11.0509 30.4015 11.6612 31.4113 11.9932C32.246 12.2716 32.5153 12.4429 32.7173 12.6035C33.5655 13.3317 34.0233 14.2526 34.0233 14.2526L32.9866 16.4799L32.8519 16.7905C30.5631 17.1224 28.4492 17.6257 26.6585 18.2575L25.3121 18.7501L26.1065 20.6989C25.2179 21.138 24.2081 21.834 23.9254 22.7656C23.7503 23.3332 23.8715 23.89 24.2754 24.3826C24.6255 24.8216 25.1506 25.1321 25.7834 25.2928L25.3391 27.1774C24.2485 27.7449 23.5753 28.4196 23.3464 29.1263C23.2926 29.2869 23.2656 29.4475 23.2656 29.5975V29.6617C23.2791 30.0365 23.4137 30.4006 23.683 30.7325C24.0196 31.1394 24.5178 31.45 25.0967 31.6106L24.7332 33.1526L24.8005 33.249C24.814 33.2811 25.2179 33.9236 25.9584 34.5661C26.7393 35.2407 27.9241 35.7547 28.5704 36.0117C28.4762 36.2044 28.328 36.515 28.3819 38.2069L28.4762 40.9053L31.0074 39.0956C31.0208 39.0849 31.8691 38.4853 33.2424 37.6822C33.6867 38.0676 34.5753 38.7958 35.5447 39.4062C36.9045 40.2628 38.4394 40.8197 38.6145 40.8839C39.2742 41.1195 39.2742 41.1195 39.3684 41.1195H39.5165L39.6243 41.0552C40.5667 40.4984 42.6132 39.0314 42.7075 38.9671L44.6059 37.5429L45.7638 36.6113L47.0429 35.5191L48.3892 34.2662L49.4664 33.1419L48.6585 32.9813L50.0049 32.7136L49.9241 32.1032L50.3011 32.1567L50.8935 31.45C51.2571 31.0324 52.0784 29.8973 52.4419 29.1156L52.6573 28.6337L52.5361 28.3767L52.94 27.6593C53.4921 26.6741 53.8691 25.1857 53.2766 23.9864L52.9131 23.2475C53.3844 22.8085 53.519 22.2195 53.6267 21.7376L54.0172 20.0993C54.0172 20.0993 51.6475 20.292 51.4994 20.3135C51.4994 20.3027 51.4859 20.3027 51.4859 20.292C51.4186 20.2171 51.3378 20.1528 51.2436 20.0886L51.661 18.0219L50.6243 17.7114C48.8066 17.1652 46.6524 16.769 44.3366 16.5442L44.1481 16.2229L42.519 13.321L43.9058 13.2246L41.1322 10.0871L40.0551 8.73789C40.0551 8.73789 39.8531 8.67364 39.732 8.64151C39.7589 8.53443 40.3244 6.018 37.6989 4.78656C37.1334 4.52956 36.5949 4.35823 36.0833 4.24044C36.0833 4.24044 35.7736 4.15478 35.2081 4.10124C34.9254 4.06911 34.6157 4.0584 34.3195 4.0584C33.4713 4.0584 32.6096 4.15478 32.1653 4.22973C31.7344 3.98345 30.967 2.99829 30.967 2.99829C30.967 2.99829 30.7246 5.11851 32.3807 6.32854Z" fill="white"/>
</mask>
<g mask="url(#mask0_14_539)">
<path d="M5.97803 8.78073L49.2914 -5.83597L71.251 35.2942L27.9376 49.9109L5.97803 8.78073Z" fill="url(#paint0_linear_14_539)"/>
</g>
<mask id="mask1_14_539" style="mask-type:luminance" maskUnits="userSpaceOnUse" x="23" y="2" width="31" height="40">
<path d="M53.9902 2.95546H23.2386V41.1195H53.9902V2.95546Z" fill="white"/>
</mask>
<g mask="url(#mask1_14_539)">
<path d="M29.1762 35.8618C29.0281 35.9903 28.9877 36.0759 28.9608 36.1295C28.88 36.2687 28.7454 36.5364 28.7992 38.1961L28.8666 40.1557L30.6976 38.8493C30.7111 38.8386 31.7074 38.1319 33.2827 37.2324C33.4847 37.4037 34.5752 38.3782 35.787 39.1492C37.1334 40.0058 38.6952 40.552 38.7625 40.5841L39.3415 40.7875C40.2705 40.2307 42.3843 38.7208 42.3843 38.7208L41.2129 38.2176L43.1114 38.1854L43.7576 37.7036L42.5459 37.3609L44.377 37.2324L45.0636 36.6756L43.4345 36.3329L45.5349 36.2901L46.2081 35.7226L44.3904 35.3263L46.6658 35.3049L47.541 34.5125L45.0636 34.1163H47.9584L48.6854 33.3775L46.8409 33.0134L49.4932 32.4887L49.399 31.7284L50.0587 31.8141L50.503 31.2786C50.8396 30.8824 51.6609 29.7581 51.9975 29.0192L52.1591 28.6658L51.9571 28.3232C51.9033 28.2268 51.8494 28.1411 51.7956 28.0555L52.2129 28.0448L52.4957 27.5201C53.0073 26.5992 53.3708 25.2071 52.8188 24.1149L52.3611 23.1725C52.8861 22.7978 53.0342 22.2195 53.1554 21.6734L53.4382 20.4848L51.9167 20.6133C51.6879 20.6347 51.459 20.6561 51.2435 20.6882C51.2032 20.624 51.1493 20.5597 51.0954 20.5062C50.9877 20.3991 50.8666 20.3135 50.7185 20.2385L51.1224 18.2361L50.4088 18.0219C47.4871 17.1438 43.6903 16.6512 39.7185 16.6512C39.328 16.6512 38.9241 16.6512 38.5336 16.662C34.1175 16.769 29.9437 17.4437 26.7797 18.5787L25.7833 18.9428L26.5642 20.8596C26.5508 20.8596 26.5508 20.8703 26.5373 20.8703C25.6622 21.2665 24.5581 21.9411 24.2754 22.8513C24.1273 23.3332 24.235 23.7936 24.5581 24.2005C24.9216 24.6503 25.5141 24.9501 26.2007 25.0358L25.6487 27.3809C24.8409 27.7771 23.9388 28.3981 23.6964 29.2013C23.5483 29.6724 23.656 30.1329 23.9792 30.5398C24.3292 30.9681 24.8812 31.2572 25.5275 31.3536L25.1236 33.099C25.1236 33.099 25.5006 33.7201 26.2142 34.3305C27.2778 35.23 29.1762 35.8618 29.1762 35.8618Z" fill="#3A225D"/>
</g>
<mask id="mask2_14_539" style="mask-type:luminance" maskUnits="userSpaceOnUse" x="23" y="2" width="31" height="40">
<path d="M53.9902 2.95546H23.2386V41.1195H53.9902V2.95546Z" fill="white"/>
</mask>
<g mask="url(#mask2_14_539)">
<path d="M29.1762 7.77414C30.3341 7.31369 30.9803 7.09953 31.0746 7.08882C31.1688 7.08882 29.8224 6.87466 29.1762 6.4142C28.4626 5.90021 27.6951 6.02871 27.6278 6.09296C27.6278 6.09296 28.7857 6.61766 28.476 7.12094C28.0856 7.74202 27.0758 7.3244 27.0758 7.3244C27.0758 7.3244 27.6951 8.3738 29.1762 7.77414Z" fill="#3A225D"/>
</g>
<mask id="mask3_14_539" style="mask-type:luminance" maskUnits="userSpaceOnUse" x="23" y="2" width="31" height="40">
<path d="M53.9902 2.95546H23.2386V41.1195H53.9902V2.95546Z" fill="white"/>
</mask>
<g mask="url(#mask3_14_539)">
<path d="M32.9596 6.84253C31.0208 6.4035 30.5899 5.68605 29.1762 5.06497C27.7625 4.44389 26.6989 5.01143 26.6989 5.01143C27.9779 5.18276 28.6107 5.761 29.8359 6.4035C31.0612 7.0567 32.9596 6.84253 32.9596 6.84253Z" fill="#3A225D"/>
</g>
<mask id="mask4_14_539" style="mask-type:luminance" maskUnits="userSpaceOnUse" x="23" y="2" width="31" height="40">
<path d="M53.9902 2.95546H23.2386V41.1195H53.9902V2.95546Z" fill="white"/>
</mask>
<g mask="url(#mask4_14_539)">
<path d="M33.7943 10.2477C33.7943 10.2477 34.1713 9.68021 34.8041 9.33755C34.8041 9.33755 34.7503 9.30543 34.6426 9.24118C34.3194 9.06985 33.5654 8.69506 32.7307 8.50231C32.7307 8.50231 33.8616 8.38452 35.5177 8.77002C35.5581 8.78072 35.5985 8.79143 35.6523 8.80214C35.6523 8.80214 35.9889 8.56656 37.3353 8.47019C38.2913 8.40594 39.0587 8.59868 39.0587 8.59868C39.0587 8.59868 39.0452 8.56656 39.0049 8.50231C38.7625 8.11682 37.6719 6.69262 35.0599 6.789C35.0599 6.789 35.9486 7.00316 36.2448 7.75274C36.2448 7.75274 35.0734 7.09954 32.5287 7.20662C29.984 7.3137 28.6511 8.34169 28.6511 8.34169C28.6511 8.34169 29.9437 8.57727 30.9265 8.84497C32.1248 9.17693 33.3904 9.98004 33.6732 10.1621C33.7135 10.1835 33.727 10.2049 33.727 10.2049L33.7943 10.2477Z" fill="#3A225D"/>
</g>
<mask id="mask5_14_539" style="mask-type:luminance" maskUnits="userSpaceOnUse" x="23" y="2" width="31" height="40">
<path d="M53.9902 2.95546H23.2386V41.1195H53.9902V2.95546Z" fill="white"/>
</mask>
<g mask="url(#mask5_14_539)">
<path d="M33.8212 6.98175C33.8212 6.98175 34.2655 6.57484 35.5715 6.56413C36.3928 6.55342 37.3488 6.89608 37.3488 6.89608C37.2411 6.05014 36.5544 5.56827 36.5544 5.56827C38.1701 5.88951 38.2778 7.37795 38.3047 7.39937C38.8567 7.72061 39.2876 8.53444 39.2876 8.53444C39.2876 8.53444 39.8531 6.15722 37.4565 5.04356C35.383 4.07983 33.4442 4.39036 33.4442 4.39036C33.4442 4.39036 34.3329 4.49745 34.9657 4.9579C35.5985 5.41835 35.383 6.17863 34.1848 5.93234C32.9999 5.68606 31.4785 4.10124 31.4785 4.10124C31.667 5.63252 33.8212 6.98175 33.8212 6.98175Z" fill="#3A225D"/>
</g>
<mask id="mask6_14_539" style="mask-type:luminance" maskUnits="userSpaceOnUse" x="23" y="2" width="31" height="40">
<path d="M53.9902 2.95546H23.2386V41.1195H53.9902V2.95546Z" fill="white"/>
</mask>
<g mask="url(#mask6_14_539)">
<path d="M33.4577 10.494C33.4577 10.4833 33.4712 10.4833 33.4712 10.4726C33.4846 10.4512 33.4981 10.4298 33.5116 10.3977C33.4981 10.3869 32.3537 9.45533 31.115 9.19833C31.115 9.19833 32.1113 9.91578 31.8959 10.3869C31.5862 11.0616 30.2802 10.5476 30.0648 10.0764C30.0648 10.0764 30.1321 11.1901 31.5593 11.6719C32.3133 11.9182 32.7576 12.1538 32.9461 12.3358C33.0403 12.4215 33.0807 12.4858 33.0807 12.4858C33.0807 12.4858 32.973 11.3186 33.4577 10.494Z" fill="#3A225D"/>
</g>
<mask id="mask7_14_539" style="mask-type:luminance" maskUnits="userSpaceOnUse" x="23" y="2" width="31" height="40">
<path d="M53.9902 2.95546H23.2386V41.1195H53.9902V2.95546Z" fill="white"/>
</mask>
<g mask="url(#mask7_14_539)">
<path d="M33.8348 12.3037C33.8348 11.1686 34.2926 10.2799 35.1542 9.74446C36.3391 8.99488 37.672 8.93063 38.5741 9.00559C39.1799 9.05913 39.6781 9.17692 39.9743 9.26259L39.7589 8.98417C39.7589 8.98417 37.2681 8.14894 35.1542 9.34825C33.6463 10.2049 33.2828 11.7683 33.6463 12.882L33.9425 13.2889C33.8752 13.0105 33.8348 12.6785 33.8348 12.3037Z" fill="#3A225D"/>
</g>
<mask id="mask8_14_539" style="mask-type:luminance" maskUnits="userSpaceOnUse" x="23" y="2" width="31" height="40">
<path d="M53.9902 2.95546H23.2386V41.1195H53.9902V2.95546Z" fill="white"/>
</mask>
<g mask="url(#mask8_14_539)">
<path d="M40.0954 9.58383C39.853 9.50887 39.2741 9.34825 38.5605 9.284C37.6854 9.20904 36.3928 9.27329 35.2484 10.0014C34.2117 10.6654 33.9828 11.7148 33.9828 12.475C33.9828 13.0105 34.0905 13.4816 34.1578 13.76L34.4271 14.1348C34.4271 14.1348 35.5446 13.6744 36.1639 12.6678C37.2545 10.8795 38.4932 10.4726 39.5299 10.3227C40.2839 10.2156 40.5936 10.2049 40.5936 10.2049L40.0954 9.58383Z" fill="#3A225D"/>
</g>
<mask id="mask9_14_539" style="mask-type:luminance" maskUnits="userSpaceOnUse" x="23" y="2" width="31" height="40">
<path d="M53.9902 2.95546H23.2386V41.1195H53.9902V2.95546Z" fill="white"/>
</mask>
<g mask="url(#mask9_14_539)">
<path d="M43.5423 16.1051C42.5325 16.1266 39.7185 16.0195 37.3085 14.4668C37.2008 14.5953 36.9046 14.9165 36.4199 15.2592C35.8544 15.6554 34.8984 16.1587 33.579 16.3086L33.4443 16.6084C35.9486 16.405 37.3758 14.8951 37.3758 14.8951C40.0955 16.6298 43.7038 16.3728 43.7038 16.3728L43.5423 16.1051Z" fill="#3A225D"/>
</g>
<mask id="mask10_14_539" style="mask-type:luminance" maskUnits="userSpaceOnUse" x="23" y="2" width="31" height="40">
<path d="M53.9902 2.95546H23.2386V41.1195H53.9902V2.95546Z" fill="white"/>
</mask>
<g mask="url(#mask10_14_539)">
<path d="M41.4014 12.1752C41.4014 12.1752 41.0109 12.6464 40.1089 12.5179C39.2068 12.3894 38.9779 11.7041 38.9779 11.7041C39.0048 11.7041 40.2974 11.6291 40.4858 11.6077C41.7245 11.5113 42.115 12.9676 42.115 12.9676L43.0978 12.8927L40.8763 10.3762C38.574 10.3762 37.443 11.2222 36.4601 12.732C35.6388 13.9849 34.3867 14.3811 34.3867 14.3811L33.6193 16.0302C36.0293 15.741 37.2141 14.2205 37.2141 14.2098L37.2545 14.1562L37.3218 14.1991C39.6646 15.7303 42.4246 15.8588 43.4614 15.8481L41.4014 12.1752ZM38.8298 11.2543C38.8298 11.2543 40.2839 11.1472 40.4455 11.1579C40.6743 11.1686 41.0109 11.2329 41.0917 11.4149C41.0917 11.4149 40.9032 11.3078 40.5128 11.3293C40.2031 11.3507 38.924 11.4256 38.924 11.4256L38.8298 11.2543ZM42.9094 15.7089L41.1456 12.55C41.1456 12.55 41.2533 12.5179 41.3475 12.4322L43.1786 15.7196C43.1786 15.7196 43.044 15.7196 42.9094 15.7089Z" fill="#3A225D"/>
</g>
<mask id="mask11_14_539" style="mask-type:luminance" maskUnits="userSpaceOnUse" x="35" y="9" width="4" height="4">
<path d="M35.2754 9.96934L36.4602 12.1859C36.9718 11.4792 37.5104 11.0402 38.049 10.7617L37.268 9.29472C36.6352 9.38039 35.9351 9.57314 35.2754 9.96934Z" fill="white"/>
</mask>
<g mask="url(#mask11_14_539)">
<path d="M34.0906 9.6588L37.7124 8.58798L39.2338 11.8433L35.612 12.9141L34.0906 9.6588Z" fill="url(#paint1_linear_14_539)"/>
</g>
<mask id="mask12_14_539" style="mask-type:luminance" maskUnits="userSpaceOnUse" x="36" y="11" width="5" height="5">
<path d="M36.6353 12.5072L37.6585 14.4132C38.6414 14.9915 39.6781 15.3448 40.6206 15.559L38.1836 11.008C37.5643 11.3614 37.0796 11.8754 36.6353 12.5072Z" fill="white"/>
</mask>
<g mask="url(#mask12_14_539)">
<path d="M34.7638 11.5649L40.1359 9.98004L42.4921 15.0129L37.12 16.5977L34.7638 11.5649Z" fill="url(#paint2_linear_14_539)"/>
</g>
<mask id="mask13_14_539" style="mask-type:luminance" maskUnits="userSpaceOnUse" x="37" y="14" width="4" height="3">
<path d="M37.8605 14.7987L38.1432 15.3341C39.0857 15.7946 40.0686 16.0516 40.9572 16.2015L40.7687 15.8374C39.8531 15.6447 38.8433 15.3234 37.8605 14.7987Z" fill="white"/>
</mask>
<g mask="url(#mask13_14_539)">
<path d="M37.2815 14.9701L40.5801 13.9849L41.5361 16.0302L38.2374 17.0046L37.2815 14.9701Z" fill="url(#paint3_linear_14_539)"/>
</g>
<mask id="mask14_14_539" style="mask-type:luminance" maskUnits="userSpaceOnUse" x="27" y="17" width="23" height="4">
<path d="M28.5165 18.8786L28.2607 19.414L28.1934 19.4354L28.0184 19.0178L27.5471 19.1356L27.978 20.1743L28.4492 20.0565L28.2742 19.6388L28.7454 19.5211L28.9204 19.9387L29.3917 19.8209L29.1762 19.2962C29.1493 19.2426 29.0281 19.2212 28.8935 19.2533L28.7319 19.2962L29.0147 18.7608L28.5165 18.8786ZM48.4835 18.7608L48.5508 18.5466L49.0355 18.643L48.9682 18.8571L48.4835 18.7608ZM48.1065 18.3432L47.7968 19.2962L48.2815 19.3926L48.4162 18.9642L48.9009 19.0606L48.7662 19.4889L49.2509 19.5853L49.5606 18.6323C49.574 18.568 49.4933 18.5038 49.3586 18.4824L48.3892 18.2789C48.3488 18.2682 48.3084 18.2682 48.2815 18.2682C48.1873 18.2682 48.1199 18.3003 48.1065 18.3432ZM31.492 18.4609L31.9767 18.3753L32.1518 19.0285L31.6671 19.1141L31.492 18.4609ZM32.1652 18.129L31.1958 18.2896C31.0612 18.311 30.9669 18.3753 30.9804 18.4395L31.2093 19.2962C31.2228 19.3604 31.3439 19.3818 31.4786 19.3604L32.448 19.1998C32.5826 19.1784 32.6769 19.1141 32.6634 19.0499L32.4345 18.1932C32.421 18.1504 32.3537 18.1183 32.2595 18.1183C32.2326 18.1183 32.1922 18.129 32.1652 18.129ZM34.4137 17.8292L34.5753 18.9214L36.0563 18.7822L35.989 18.3217L35.5043 18.3967L35.5447 18.6216L35.0465 18.6644L34.9119 17.7863L34.4137 17.8292ZM44.7001 17.9791L45.1983 18.0326L45.0367 18.9107L45.5214 18.9642L45.683 18.0862L46.1677 18.1397L46.2081 17.9255L44.727 17.7542L44.7001 17.9791ZM41.7919 18.0112L41.8054 17.7863L42.3035 17.8077L42.2901 18.0326L41.7919 18.0112ZM41.3207 17.6578L41.2534 18.643L41.7515 18.6644L41.7785 18.2254L42.2766 18.2468L42.2497 18.6858L42.7479 18.7072L42.8152 17.7221C42.8152 17.6578 42.7209 17.6043 42.5728 17.6043L41.5765 17.5615C41.563 17.5615 41.563 17.5615 41.5496 17.5615C41.4284 17.5615 41.3207 17.6043 41.3207 17.6578ZM38.8299 17.5507L38.399 18.0005H38.3317L38.3182 17.5615L37.8201 17.5722L37.8739 18.6644L38.3721 18.6537L38.3586 18.2147L38.8568 18.2039L38.8703 18.643L39.3684 18.6323L39.3415 18.0862C39.3415 18.0219 39.2203 17.9791 39.0857 17.9791H38.9106L39.3684 17.5293L38.8299 17.5507Z" fill="white"/>
</mask>
<g mask="url(#mask14_14_539)">
<path d="M26.3623 17.9362L46.2081 11.2436L50.7589 19.7673L30.9131 26.4707L26.3623 17.9362Z" fill="url(#paint4_linear_14_539)"/>
</g>
<mask id="mask15_14_539" style="mask-type:luminance" maskUnits="userSpaceOnUse" x="32" y="19" width="17" height="2">
<path d="M38.8163 19.3497C36.5275 19.414 34.2925 19.6388 32.3133 20.0779L32.246 20.3777C34.2656 20.0029 36.4467 19.7459 38.7894 19.6924C42.7747 19.6067 45.9522 20.035 48.82 20.6882L48.8873 20.4634C46.3427 19.6924 43.3671 19.3176 40.1358 19.3176C39.705 19.3283 39.2741 19.339 38.8163 19.3497Z" fill="white"/>
</mask>
<g mask="url(#mask15_14_539)">
<path d="M31.6266 19.5425L46.3561 14.5632L49.5201 20.4955L34.7906 25.4641L31.6266 19.5425Z" fill="url(#paint5_linear_14_539)"/>
</g>
<mask id="mask16_14_539" style="mask-type:luminance" maskUnits="userSpaceOnUse" x="30" y="31" width="20" height="8">
<path d="M39.9339 32.6493C34.306 33.9878 30.3341 36.1509 30.2264 36.3758C30.1052 36.6113 30.1456 38.0784 30.1456 38.0784C30.1456 38.0784 32.7576 36.2044 36.3929 34.5768C42.7209 31.7284 49.4125 31.4607 49.4125 31.4607C49.4125 31.4607 49.2778 31.4607 49.0355 31.4607C47.9449 31.45 44.5385 31.5464 39.9339 32.6493Z" fill="white"/>
</mask>
<g mask="url(#mask16_14_539)">
<path d="M27.1028 32.4566L46.4639 25.9246L52.4014 37.0611L33.0538 43.5931L27.1028 32.4566Z" fill="url(#paint6_linear_14_539)"/>
</g>
<mask id="mask17_14_539" style="mask-type:luminance" maskUnits="userSpaceOnUse" x="34" y="32" width="13" height="8">
<path d="M37.3892 37.9499C36.716 37.393 36.0294 36.5899 36.0294 36.5899C36.0294 36.5899 36.6083 36.0974 37.5239 35.5834C38.4933 35.0265 39.4627 34.6625 39.4627 34.6625C39.4627 34.6625 39.4896 35.9582 39.4761 36.8469C39.4627 37.6072 39.3819 39.267 39.3819 39.267C39.3819 39.267 38.1836 38.5924 37.3892 37.9499ZM46.8678 32.3495C46.5716 32.3495 44.552 32.403 40.4455 33.688C35.989 35.0801 34.3195 36.515 34.3195 36.515C34.3195 36.515 35.4639 37.5537 36.716 38.3461C37.9547 39.1385 39.4357 39.6525 39.4357 39.6525C39.4357 39.6525 40.0685 39.2991 41.0918 38.5817C41.0245 38.5495 40.9437 38.5174 40.8629 38.4853C40.284 38.2283 39.7185 38.1533 39.7185 38.1533C39.7185 38.1533 41.0783 37.8856 42.0477 37.8749L42.0612 37.8642C41.9669 37.8321 41.8727 37.8 41.765 37.7678C40.4725 37.3502 39.7454 37.2217 39.7454 37.2217C39.7454 37.2217 42.1554 36.7506 43.3672 36.7506C42.6671 36.6114 42.5594 36.6114 42.1151 36.5364C40.9706 36.3651 40.2166 36.2366 40.2166 36.2366C40.2166 36.2366 42.2228 35.9474 44.6193 35.7975C44.2827 35.7119 43.8115 35.6583 43.2191 35.6048C41.8592 35.4763 40.7148 35.3264 40.7148 35.3264C40.7148 35.3264 41.8323 35.1336 43.4211 34.9623C44.3905 34.8552 45.104 34.791 45.5887 34.7588C45.2252 34.6946 44.7405 34.6196 44.2154 34.5768C43.071 34.4804 43.071 34.4804 41.2668 34.4697C41.2668 34.4697 43.5153 33.6987 46.3427 33.6987C45.9927 33.6131 45.0636 33.4953 43.9865 33.506C43.246 33.5167 42.0343 33.5595 42.0343 33.5595C42.0343 33.5595 44.6867 32.6814 46.8947 32.3709C46.9082 32.3495 46.8947 32.3495 46.8678 32.3495Z" fill="white"/>
</mask>
<g mask="url(#mask17_14_539)">
<path d="M31.0208 33.4631L44.9828 28.7408L50.2068 38.5281L36.2447 43.2397L31.0208 33.4631Z" fill="url(#paint7_linear_14_539)"/>
</g>
<mask id="mask18_14_539" style="mask-type:luminance" maskUnits="userSpaceOnUse" x="25" y="20" width="28" height="15">
<path d="M29.2032 32.6065C29.9437 32.6386 31.0881 34.4162 34.0636 33.9236C30.8996 34.1163 30.0783 32.3388 29.2705 32.3388L29.2032 32.6065ZM34.2252 29.5225C33.6193 29.726 33.3904 29.8973 33.1346 30.0258L33.0673 30.2507C33.0673 30.2507 33.2558 30.3149 33.0134 31.193L32.798 31.9319C33 32.0389 33.8078 32.3602 34.1713 32.4351L34.8984 29.9187C34.9792 29.651 34.7368 29.4797 34.4541 29.4797C34.3733 29.4797 34.2925 29.4904 34.2252 29.5225ZM27.4125 29.2227L26.5777 32.8206C26.7527 33.0455 26.7527 33.0455 26.9008 33.2061L27.8837 28.9764C27.7356 29.0514 27.5606 29.137 27.4125 29.2227ZM30.765 29.2441C30.6438 29.9723 30.1726 30.3685 29.634 30.604L29.5802 30.8075C30.2668 30.6148 30.7246 30.1757 30.9265 29.6296C30.9804 29.5011 31.0343 29.3619 31.0612 29.2227C30.7919 29.0192 30.3611 28.6766 30.1591 28.4731C30.2803 28.7836 30.6842 29.1691 30.765 29.2441ZM33.552 29.3726C34.5079 28.9443 35.0061 29.0299 35.1004 29.2227L35.2081 28.8372C35.2619 28.6659 35.1542 28.5159 34.7368 28.4731C34.4137 28.441 34.1175 28.3874 33.8482 28.3339L33.552 29.3726ZM41.4284 28.7408C41.5496 28.7194 41.9535 28.5909 42.1824 28.5481L41.9939 29.212C41.7246 29.2762 41.4284 29.3512 41.2399 29.4154L41.4284 28.7408ZM42.7478 27.8734C41.6034 28.1304 40.5398 28.4517 39.8127 28.4945L39.7454 28.7301C39.7454 28.7301 39.8935 29.0299 39.705 29.651L39.1126 31.5571C39.4357 31.5464 39.5569 31.7177 39.6511 31.8355C40.0281 31.7498 42.1285 31.2358 42.5324 31.1609L43.1114 30.2935C42.9094 30.2828 41.8458 30.4648 40.8494 30.7325L41.0649 29.983C41.6303 29.8223 42.7074 29.7581 43.1518 29.8438L43.5961 28.3339C43.6768 28.0234 43.5961 27.8092 43.1921 27.8092C43.0844 27.8199 42.9363 27.8413 42.7478 27.8734ZM47.0159 26.717C46.5716 26.8669 46.0869 27.2738 45.8445 27.5094L45.9792 27.0382C45.3329 27.231 44.7001 27.4023 44.0942 27.5629L44.0269 27.7878C44.0269 27.7878 44.2019 27.9056 43.9865 28.7301L43.3133 31.011C43.825 30.9146 44.5655 30.7861 44.9021 30.7432L45.6426 28.1947C45.8176 28.0662 46.1003 27.8842 46.4369 27.7021L46.1138 28.7944C46.41 28.6873 47.0832 28.5802 47.6083 28.5052L47.7295 28.109L47.7968 27.8949L47.918 27.4772C48.0795 26.9418 47.7833 26.642 47.366 26.642C47.2448 26.6634 47.1371 26.6848 47.0159 26.717ZM26.7393 27.927C25.4064 28.5374 24.6793 29.3083 25.1909 29.9401C25.6083 30.4541 26.3892 30.4006 26.6585 30.3578L26.9278 29.3191C26.8335 29.2976 26.6181 29.2334 26.6854 29.0192C26.8066 28.6337 28.3684 27.852 29.6744 27.5308C29.9571 27.8842 30.4688 28.3874 30.9669 28.7194C31.115 28.8265 31.2901 28.9121 31.4651 28.9978C31.3709 29.3405 31.2497 29.6724 31.0612 29.9508C30.7381 30.4327 30.1995 30.8932 29.3378 30.9681L30.011 28.1412C29.4051 28.3553 28.8396 28.5802 28.3011 28.8158L27.2105 33.4524C27.6817 33.9129 28.0453 34.202 28.5434 34.4055L29.0955 31.8997C30.3476 31.9747 31.2901 34.1913 35.3292 33.5916C36.2852 33.4524 37.1738 32.9598 37.8874 32.478C37.5239 32.6279 36.9853 32.7564 36.1371 32.8742C34.2252 33.1312 32.9596 32.5958 32.0844 32.0496C31.3574 31.5999 30.9131 31.1609 30.6034 31.1609C33.0134 30.7754 33.1077 29.1584 33.3097 28.441C32.8384 28.3232 32.4614 28.1733 32.1652 28.0019C31.3035 27.488 30.8458 27.0703 30.5361 26.6634C29.6609 26.8669 27.8433 27.4344 26.7393 27.927ZM30.3476 25.4534C30.8727 25.8282 31.7613 27.7342 34.1983 28.109C31.8556 27.5094 31.1689 25.6569 30.4284 25.0893L30.3476 25.4534ZM49.0086 28.4624C49.1701 28.6123 49.8029 29.1156 49.574 29.4261C49.4798 29.5546 49.224 29.469 48.8604 29.3833C48.6181 29.3298 48.3354 29.2762 48.0257 29.2869C48.2411 29.0728 48.47 28.9014 49.0086 28.4624ZM50.1934 26.4064C50.3819 26.3101 50.4761 26.2565 50.7723 26.0531C50.9339 26.0959 51.1628 26.4171 51.082 26.7063C50.8531 26.7598 50.4088 26.9633 49.9645 27.1988L50.1934 26.4064ZM48.3757 26.3422L48.3354 26.5563C48.3354 26.5563 48.6046 26.6848 48.4835 27.1774L48.2546 27.9912L48.5508 28.1947C48.3757 28.3553 47.3929 29.1477 47.2717 29.2655C46.7601 29.2762 46.2215 29.4154 46.1003 29.4476L45.7503 30.6362C46.2619 30.5719 48.4431 30.3363 49.8029 30.6469C50.0991 30.3042 50.8666 29.2548 51.1628 28.5909C50.8935 28.1197 50.6377 27.7985 50.328 27.5522C50.6781 27.3273 51.3513 27.0489 51.7013 27.0489C52.1995 26.1601 52.3745 25.0786 52.011 24.329C51.1628 25.0037 49.2509 25.9888 48.3757 26.3422ZM36.7295 23.1618C36.164 23.3225 35.5043 23.5688 35.3023 23.6651L35.4504 23.1833C35.0061 23.3974 34.0367 23.7294 33.5251 23.8258L33.4712 24.0292C33.4712 24.0292 33.6732 23.9328 33.4308 24.9287C33.6059 25.2178 34.3598 26.1494 34.5349 26.3101L35.1273 24.3076C35.2888 24.2434 35.5447 24.1577 35.8409 24.072L35.1273 26.5456C35.5043 26.3957 36.2717 26.1494 36.7429 26.0209L37.3892 23.5688C37.47 23.2796 37.2276 23.119 36.9449 23.119C36.8641 23.1297 36.7968 23.1404 36.7295 23.1618ZM38.951 22.9691C38.5471 23.0548 37.9951 23.2903 37.7931 23.3867L37.7393 23.5902C37.7393 23.5902 37.8739 23.9114 37.6854 24.5325L37.1199 26.6527C37.5508 26.385 38.2913 26.128 38.7895 25.9888L39.53 23.4081C39.6242 23.0976 39.3415 22.9584 39.0722 22.9584C39.0453 22.9584 39.0049 22.9584 38.951 22.9691ZM36.3929 31.3001L36.9584 29.4047C37.1199 29.5011 37.3488 29.6617 37.5373 29.8223L37.0257 31.5357C36.8776 31.4714 36.4602 31.3215 36.3929 31.3001ZM41.6438 23.3653C41.8323 23.301 42.0746 23.2154 42.3574 23.1511L41.8054 25.0465C41.6573 25.0786 41.3207 25.1536 41.1052 25.2071L41.6438 23.3653ZM43.246 22.3052C42.7613 22.348 41.6438 22.5622 39.9204 23.3439L39.8531 23.5688C39.8531 23.5688 39.9877 23.89 39.8127 24.5218L39.4223 25.8603C40.0012 25.6997 40.3513 25.7425 40.5263 25.946C40.6744 25.8924 41.186 25.7746 41.6169 25.6783L41.3611 26.46C40.9437 26.7063 40.459 26.8776 39.9474 26.9954L40.0281 26.7491C40.1358 26.385 39.6781 26.2565 39.4627 26.2993C39.0183 26.3957 38.5471 26.5563 38.1701 26.7277L38.1028 26.974C38.1028 26.974 38.1567 27.0061 38.1701 27.1774C37.4296 27.1667 36.7968 27.0703 36.5006 26.9525L36.6218 26.4707C36.164 26.5885 35.6389 26.7705 35.3292 26.9097C35.9216 27.2952 36.8237 27.6593 38.0759 27.7771C38.0624 27.8199 38.0489 27.8627 38.0355 27.9163L37.6854 29.137C37.5104 28.9978 37.3488 28.88 37.2007 28.7836C36.7968 28.8265 35.8813 29.1156 35.3562 29.3191L35.2754 29.5546C35.2754 29.5546 35.4639 29.6724 35.235 30.5077L34.8445 31.8355C35.3427 31.9104 36.2044 32.3923 36.4467 32.6172C36.7833 32.5101 37.5104 32.3495 37.9412 32.2638C38.0759 32.0604 38.3452 31.8034 38.5336 31.7284L39.6915 27.7878C40.3917 27.7342 41.1591 27.6165 42.0073 27.413C42.0343 27.2952 42.1824 26.8348 42.7075 26.5778L43.8384 22.8085C43.9461 22.4444 43.6095 22.3052 43.3133 22.3052C43.3133 22.2945 43.2729 22.2945 43.246 22.3052ZM28.1934 22.4979L27.0489 27.3595C27.2105 27.2952 27.3855 27.231 27.5606 27.1667L28.7319 22.2088C28.5434 22.2945 28.3549 22.4016 28.1934 22.4979ZM38.5202 21.8019L38.2105 22.8406C38.5606 22.68 39.53 22.3694 39.7992 22.5836L40.0147 21.8769C40.1089 21.5877 39.9339 21.4807 39.6646 21.4807C39.3011 21.4699 38.7895 21.652 38.5202 21.8019ZM49.951 20.8489C49.5606 20.9452 48.9143 21.2129 48.7123 21.3093L48.645 21.5235C48.645 21.5235 48.8201 21.5984 48.6989 22.1124C48.6046 22.1446 48.5373 22.1874 48.3488 22.2516L48.1469 23.0012C48.3354 22.9477 48.4431 22.9156 48.5508 22.8834C48.4161 23.3653 47.8237 25.2606 47.6756 25.8068C47.9584 25.7425 48.1738 25.8817 48.2411 25.9567C49.224 25.5391 50.503 24.8109 51.2839 24.3183C50.6108 24.5111 49.7895 24.6396 49.5336 24.6717L50.153 22.5836C50.3953 22.5515 50.7858 22.5408 51.2301 22.5301C51.9841 22.4872 52.0783 22.2838 52.2803 21.395C51.6205 21.4485 51.0012 21.577 50.3953 21.7055L50.5165 21.2986C50.6108 20.9881 50.3684 20.8167 50.0991 20.8167C50.0587 20.8275 50.0049 20.8382 49.951 20.8489ZM31.0881 22.7121L31.0208 22.9798C33.5789 22.7656 34.6157 21.4378 33.9021 20.7311C34.2791 21.1059 33.6597 22.4016 31.0881 22.7121ZM45.8445 20.699C45.8176 20.7097 45.7907 20.7097 45.7638 20.7204C45.2656 20.8703 44.8482 21.063 44.6597 21.1594L44.5924 21.3736C44.5924 21.3736 44.6462 21.4914 44.6462 21.7162C44.6462 21.8661 44.6193 22.0696 44.552 22.3266L43.1383 27.0918L44.7674 26.6527L45.6426 23.6865C45.8311 23.6223 46.0869 23.5366 46.3562 23.4724L45.481 26.4707L47.0159 26.0316L47.891 23.0119C47.9045 22.9691 47.9045 22.937 47.9045 22.9048C47.9045 22.6264 47.5275 22.5194 47.2717 22.5729C47.0159 22.6264 46.5581 22.7335 45.8445 22.9691L46.3831 21.1594C46.3966 21.1166 46.3966 21.0845 46.3966 21.0523C46.3966 20.8167 46.1273 20.699 45.9253 20.699C45.9119 20.6775 45.8715 20.6882 45.8445 20.699ZM34.1444 20.4955C34.4541 20.6454 34.7234 21.0416 34.3329 21.7698C33.5924 23.1404 31.1016 23.2903 30.6169 23.3118L31.3709 20.2492C30.4688 20.4741 28.4627 21.0416 27.3317 21.5449C25.9718 22.166 25.2313 22.9584 25.7564 23.6009C26.1873 24.1256 26.9816 24.072 27.2509 24.0292L27.5202 22.9691C27.4259 22.9477 27.2105 22.8834 27.2778 22.6586C27.399 22.2731 28.3549 21.8447 29.3109 21.5235L28.0183 26.9847C28.6242 26.7705 29.3378 26.5563 29.9302 26.4386L30.2803 24.6824C31.3843 24.8966 32.1114 28.8265 37.4969 28.0983C33.6059 27.7878 33.2693 24.7895 31.7209 23.9328C33 23.7187 37.8201 22.7014 37.0661 20.2171C36.0697 20.2706 35.1004 20.367 34.1444 20.4955Z" fill="white"/>
</mask>
<g mask="url(#mask18_14_539)">
<path d="M18.2435 22.3801L48.1468 12.2823L58.7968 32.2531L28.9069 42.3402L18.2435 22.3801Z" fill="url(#paint8_linear_14_539)"/>
</g>
<mask id="mask19_14_539" style="mask-type:luminance" maskUnits="userSpaceOnUse" x="23" y="2" width="31" height="40">
<path d="M53.9902 2.95546H23.2386V41.1195H53.9902V2.95546Z" fill="white"/>
</mask>
<g mask="url(#mask19_14_539)">
<path d="M30.765 7.74202C31.3439 7.59211 31.9363 7.49573 32.5557 7.46361C33.1615 7.43148 33.7674 7.4529 34.3733 7.54927C34.9657 7.63494 35.6389 7.76344 36.1909 7.96689C35.6523 7.74202 35.0734 7.57069 34.4675 7.46361C33.8616 7.35653 33.2423 7.3244 32.6364 7.34582C32.0171 7.37794 31.4112 7.47432 30.8188 7.61352C30.2264 7.76344 29.6609 7.95618 29.1358 8.22389L29.0146 8.28814L29.1628 8.30956C29.5801 8.3631 29.9975 8.43805 30.4149 8.52372C30.8323 8.60938 31.2362 8.71647 31.6266 8.84497C32.0306 8.97346 32.6095 9.21975 32.6095 9.21975C32.6095 9.21975 32.2998 9.027 31.6536 8.78072C31.2631 8.6308 30.8457 8.53443 30.4284 8.43805C30.0648 8.35239 29.6878 8.28814 29.3109 8.2346C29.5128 8.13822 29.6878 8.07397 29.9167 7.98831C30.1995 7.91335 30.4822 7.81698 30.765 7.74202Z" fill="#F2C028"/>
</g>
<mask id="mask20_14_539" style="mask-type:luminance" maskUnits="userSpaceOnUse" x="23" y="2" width="31" height="40">
<path d="M53.9902 2.95546H23.2386V41.1195H53.9902V2.95546Z" fill="white"/>
</mask>
<g mask="url(#mask20_14_539)">
<path d="M27.3317 4.99002C27.7625 5.04356 28.2068 5.18277 28.5973 5.36481C28.7858 5.45047 28.9743 5.55756 29.1493 5.66464C29.2301 5.71818 29.3109 5.78243 29.3916 5.84668C29.4724 5.91093 29.5532 5.96447 29.634 6.01801C29.7956 6.1358 29.9706 6.23217 30.1591 6.32855C30.3476 6.41421 30.5495 6.48917 30.7515 6.54271C30.9535 6.59625 31.1689 6.63908 31.3843 6.67121C31.5997 6.70333 31.8017 6.71404 32.0171 6.74617C31.8017 6.73546 31.5728 6.72475 31.3574 6.70333C31.1419 6.68192 30.9265 6.64979 30.7111 6.60696C30.4957 6.56413 30.2937 6.48917 30.0918 6.4035C29.9167 6.31784 29.7282 6.22146 29.5532 6.09297C29.4724 6.03942 29.3916 5.97518 29.3109 5.91093C29.2301 5.84668 29.1493 5.79314 29.0685 5.72889C28.9069 5.6111 28.7319 5.51472 28.5434 5.41835C28.3549 5.32198 28.1664 5.24702 27.9645 5.17206C27.749 5.0971 27.5471 5.03285 27.3317 4.99002Z" fill="#F2C028"/>
</g>
<mask id="mask21_14_539" style="mask-type:luminance" maskUnits="userSpaceOnUse" x="23" y="2" width="31" height="40">
<path d="M53.9902 2.95546H23.2386V41.1195H53.9902V2.95546Z" fill="white"/>
</mask>
<g mask="url(#mask21_14_539)">
<path d="M35.7466 6.92821C36.0293 6.94962 36.3255 7.00316 36.5948 7.07812C36.8641 7.15308 37.1334 7.26016 37.3892 7.37795C37.6315 7.50645 37.8739 7.64566 38.0758 7.80628C38.2913 7.9669 38.4663 8.14894 38.6279 8.34169C38.4394 8.17036 38.2239 8.00974 38.0085 7.85982C37.7931 7.70991 37.5642 7.58141 37.3219 7.45291C37.0795 7.33512 36.8237 7.22804 36.5679 7.14237C36.2986 7.06741 36.0293 6.98175 35.7466 6.92821Z" fill="#F2C028"/>
</g>
<mask id="mask22_14_539" style="mask-type:luminance" maskUnits="userSpaceOnUse" x="23" y="2" width="31" height="40">
<path d="M53.9902 2.95546H23.2386V41.1195H53.9902V2.95546Z" fill="white"/>
</mask>
<g mask="url(#mask22_14_539)">
<path d="M34.4406 4.54027C35.033 4.55098 35.6119 4.63664 36.1774 4.78656C36.7429 4.93647 37.268 5.15064 37.7392 5.46117C37.9681 5.61109 38.17 5.78242 38.3585 5.97517C38.5336 6.16791 38.6951 6.37137 38.8029 6.58553C38.924 6.7997 39.0048 7.03528 39.0587 7.26015C39.1125 7.49573 39.1395 7.7206 39.126 7.95618C39.0991 7.7206 39.0317 7.55998 38.9644 7.33511C38.8971 7.11024 38.8029 6.88536 38.6817 6.68191C38.4393 6.26429 38.0758 5.8895 37.6315 5.60038C37.1872 5.30055 36.6621 5.08639 36.1235 4.92576C35.8543 4.8401 35.5715 4.77585 35.2888 4.72231C34.9926 4.66877 34.7368 4.63664 34.4406 4.54027Z" fill="#F2C028"/>
</g>
<mask id="mask23_14_539" style="mask-type:luminance" maskUnits="userSpaceOnUse" x="23" y="2" width="31" height="40">
<path d="M53.9902 2.95546H23.2386V41.1195H53.9902V2.95546Z" fill="white"/>
</mask>
<g mask="url(#mask23_14_539)">
<path d="M35.5043 5.61109C35.5177 5.77171 35.3966 5.97517 35.2485 6.08225C35.0869 6.20004 34.8715 6.25358 34.6695 6.275C34.4541 6.29641 34.2521 6.275 34.0367 6.23216C33.8348 6.18933 33.6463 6.12508 33.4578 6.05013C33.0942 5.8895 32.7576 5.68605 32.4749 5.45047C32.1922 5.21489 31.9767 4.92576 31.7748 4.63664C32.0171 4.90435 32.2729 5.15064 32.5691 5.37551C32.8654 5.60038 33.1885 5.79313 33.5386 5.94304C33.7136 6.018 33.9021 6.08225 34.0906 6.12508C34.2791 6.16792 34.481 6.18933 34.683 6.17862C34.8849 6.16792 35.0734 6.12508 35.235 6.02871C35.3966 5.92163 35.4908 5.77171 35.5043 5.61109Z" fill="#F2C028"/>
</g>
<mask id="mask24_14_539" style="mask-type:luminance" maskUnits="userSpaceOnUse" x="23" y="2" width="31" height="40">
<path d="M53.9902 2.95546H23.2386V41.1195H53.9902V2.95546Z" fill="white"/>
</mask>
<g mask="url(#mask24_14_539)">
<path d="M28.0317 6.16792C28.6376 6.18934 28.9877 6.48917 29.2166 6.72475C29.5935 7.11024 30.2129 7.15308 30.4418 7.13166C29.9167 7.1852 29.4185 7.12095 29.1762 6.86396C28.8665 6.54271 28.5703 6.30713 28.0317 6.16792Z" fill="#F2C028"/>
</g>
<mask id="mask25_14_539" style="mask-type:luminance" maskUnits="userSpaceOnUse" x="23" y="2" width="31" height="40">
<path d="M53.9902 2.95546H23.2386V41.1195H53.9902V2.95546Z" fill="white"/>
</mask>
<g mask="url(#mask25_14_539)">
<path d="M27.6144 7.60281C28.2337 7.67777 28.5434 7.33511 28.5972 7.27086C28.5838 7.34582 28.4895 7.48502 28.4222 7.54927C28.301 7.64565 28.1799 7.68848 27.951 7.68848C27.8029 7.68848 27.7086 7.64565 27.6144 7.60281Z" fill="#F2C028"/>
</g>
<mask id="mask26_14_539" style="mask-type:luminance" maskUnits="userSpaceOnUse" x="23" y="2" width="31" height="40">
<path d="M53.9902 2.95546H23.2386V41.1195H53.9902V2.95546Z" fill="white"/>
</mask>
<g mask="url(#mask26_14_539)">
<path d="M31.5055 9.43393C31.6805 9.48747 31.8421 9.55172 32.0037 9.62668C32.1652 9.70163 32.3268 9.77659 32.4749 9.86226C32.623 9.94792 32.7711 10.0443 32.9057 10.1514C33.0404 10.2585 33.1616 10.3655 33.2558 10.494C33.1212 10.387 32.9865 10.2906 32.8384 10.2049C32.6903 10.1193 32.5557 10.0229 32.4076 9.93722C32.1114 9.76588 31.8017 9.60526 31.5055 9.43393Z" fill="#F2C028"/>
</g>
<mask id="mask27_14_539" style="mask-type:luminance" maskUnits="userSpaceOnUse" x="23" y="2" width="31" height="40">
<path d="M53.9902 2.95546H23.2386V41.1195H53.9902V2.95546Z" fill="white"/>
</mask>
<g mask="url(#mask27_14_539)">
<path d="M30.5092 10.6332C30.6438 10.751 30.8054 10.8474 30.9804 10.9009C31.1554 10.9652 31.3439 10.9866 31.5324 10.9652C31.7209 10.9545 31.8825 10.8795 31.9767 10.751C32.071 10.6225 32.1114 10.4726 32.1248 10.312C32.1652 10.4619 32.1518 10.6332 32.0575 10.7832C32.0036 10.8581 31.9363 10.9224 31.8421 10.9759C31.7478 11.0187 31.6401 11.0509 31.5459 11.0616C31.3439 11.083 31.1285 11.0509 30.94 10.9759C30.7515 10.8902 30.6034 10.7724 30.5092 10.6332Z" fill="#F2C028"/>
</g>
<mask id="mask28_14_539" style="mask-type:luminance" maskUnits="userSpaceOnUse" x="23" y="2" width="31" height="40">
<path d="M53.9902 2.95546H23.2386V41.1195H53.9902V2.95546Z" fill="white"/>
</mask>
<g mask="url(#mask28_14_539)">
<path d="M34.9522 36.7077C38.0085 34.5768 41.7514 33.431 41.7514 33.431C36.9044 34.7267 34.6694 36.4935 34.6694 36.4935L34.9522 36.7077Z" fill="#3A225D"/>
</g>
<mask id="mask29_14_539" style="mask-type:luminance" maskUnits="userSpaceOnUse" x="23" y="2" width="31" height="40">
<path d="M53.9902 2.95546H23.2386V41.1195H53.9902V2.95546Z" fill="white"/>
</mask>
<g mask="url(#mask29_14_539)">
<path d="M46.8544 25.8924L47.7026 23.0012C47.7295 22.9156 47.7161 22.8513 47.6622 22.8085C47.5949 22.7442 47.4737 22.7121 47.3795 22.7121C47.4737 22.7871 47.5141 22.8941 47.4737 23.0441L46.6255 25.9567L46.8544 25.8924Z" fill="#3A225D"/>
</g>
<mask id="mask30_14_539" style="mask-type:luminance" maskUnits="userSpaceOnUse" x="23" y="2" width="31" height="40">
<path d="M53.9902 2.95546H23.2386V41.1195H53.9902V2.95546Z" fill="white"/>
</mask>
<g mask="url(#mask30_14_539)">
<path d="M35.0061 28.7944C35.033 28.6873 34.9387 28.6551 34.831 28.6444L34.7502 28.9229C34.858 28.9121 34.9253 28.9336 34.9522 28.955L35.0061 28.7944Z" fill="#3A225D"/>
</g>
<mask id="mask31_14_539" style="mask-type:luminance" maskUnits="userSpaceOnUse" x="23" y="2" width="31" height="40">
<path d="M53.9902 2.95546H23.2386V41.1195H53.9902V2.95546Z" fill="white"/>
</mask>
<g mask="url(#mask31_14_539)">
<path d="M49.7626 26.4814L49.5337 27.2952C49.6145 27.2631 49.6818 27.2203 49.776 27.1988L50.0184 26.385L49.7626 26.4814Z" fill="#3A225D"/>
</g>
<mask id="mask32_14_539" style="mask-type:luminance" maskUnits="userSpaceOnUse" x="23" y="2" width="31" height="40">
<path d="M53.9902 2.95546H23.2386V41.1195H53.9902V2.95546Z" fill="white"/>
</mask>
<g mask="url(#mask32_14_539)">
<path d="M26.6854 29.4368C26.443 29.3512 26.4296 29.1584 26.47 29.0192C26.5642 28.698 27.0893 28.366 28.0856 27.9912C27.197 28.3125 26.3892 28.6444 26.2545 29.0621C26.1738 29.3191 26.268 29.5546 26.645 29.6296L26.6854 29.4368Z" fill="#3A225D"/>
</g>
<mask id="mask33_14_539" style="mask-type:luminance" maskUnits="userSpaceOnUse" x="23" y="2" width="31" height="40">
<path d="M53.9902 2.95546H23.2386V41.1195H53.9902V2.95546Z" fill="white"/>
</mask>
<g mask="url(#mask33_14_539)">
<path d="M42.115 31.0966C42.1958 31.0859 42.3439 31.0431 42.3708 31.0431C42.492 30.8289 42.6535 30.6255 42.7478 30.4648C42.6805 30.4755 42.6401 30.4862 42.5593 30.497C42.3977 30.6683 42.2362 30.8932 42.115 31.0966Z" fill="#3A225D"/>
</g>
<mask id="mask34_14_539" style="mask-type:luminance" maskUnits="userSpaceOnUse" x="23" y="2" width="31" height="40">
<path d="M53.9902 2.95546H23.2386V41.1195H53.9902V2.95546Z" fill="white"/>
</mask>
<g mask="url(#mask34_14_539)">
<path d="M40.8091 29.5225C40.8764 29.5011 40.9437 29.4797 41.0245 29.4583L41.213 28.7943C41.1457 28.8051 41.0784 28.8158 41.011 28.8372L40.8091 29.5225Z" fill="#3A225D"/>
</g>
<mask id="mask35_14_539" style="mask-type:luminance" maskUnits="userSpaceOnUse" x="23" y="2" width="31" height="40">
<path d="M53.9902 2.95546H23.2386V41.1195H53.9902V2.95546Z" fill="white"/>
</mask>
<g mask="url(#mask35_14_539)">
<path d="M43.1382 27.9591C43.1113 27.9591 43.0979 27.9591 43.0844 27.9591H43.0709C43.1921 28.0234 43.2594 28.1411 43.219 28.3018L42.842 29.6189C42.9094 29.6189 42.9767 29.6296 43.0305 29.6296L43.4479 28.2161C43.4614 28.1519 43.4614 28.0983 43.4075 28.0555C43.3402 28.0019 43.219 27.9591 43.1382 27.9591Z" fill="#3A225D"/>
</g>
<mask id="mask36_14_539" style="mask-type:luminance" maskUnits="userSpaceOnUse" x="23" y="2" width="31" height="40">
<path d="M53.9902 2.95546H23.2386V41.1195H53.9902V2.95546Z" fill="white"/>
</mask>
<g mask="url(#mask36_14_539)">
<path d="M45.4541 23.6437C45.3733 23.6758 45.2925 23.6972 45.2252 23.7187L44.4039 26.5563L44.6194 26.4921L45.4541 23.6437Z" fill="#3A225D"/>
</g>
<mask id="mask37_14_539" style="mask-type:luminance" maskUnits="userSpaceOnUse" x="23" y="2" width="31" height="40">
<path d="M53.9902 2.95546H23.2386V41.1195H53.9902V2.95546Z" fill="white"/>
</mask>
<g mask="url(#mask37_14_539)">
<path d="M39.3549 23.4188C39.4222 23.1618 39.1529 23.0869 39.0317 23.119C39.1395 23.1725 39.1798 23.301 39.1395 23.4617L38.4393 25.871C38.5067 25.8496 38.5874 25.8282 38.6548 25.8175L39.3549 23.4188Z" fill="#3A225D"/>
</g>
<mask id="mask38_14_539" style="mask-type:luminance" maskUnits="userSpaceOnUse" x="23" y="2" width="31" height="40">
<path d="M53.9902 2.95546H23.2386V41.1195H53.9902V2.95546Z" fill="white"/>
</mask>
<g mask="url(#mask38_14_539)">
<path d="M40.432 30.8503C40.4993 30.8289 40.5666 30.8075 40.634 30.7861L40.8629 29.9937C40.7955 30.0044 40.7282 30.0258 40.6609 30.0365L40.432 30.8503Z" fill="#3A225D"/>
</g>
<mask id="mask39_14_539" style="mask-type:luminance" maskUnits="userSpaceOnUse" x="23" y="2" width="31" height="40">
<path d="M53.9902 2.95546H23.2386V41.1195H53.9902V2.95546Z" fill="white"/>
</mask>
<g mask="url(#mask39_14_539)">
<path d="M45.9118 20.8489C45.9791 20.9238 46.0195 21.0309 45.9791 21.1701L45.4406 23.0012C45.5213 22.9691 45.6021 22.9477 45.6694 22.9155L46.1945 21.1487C46.2215 21.063 46.208 20.9988 46.1541 20.9452C46.1003 20.881 45.9791 20.8489 45.9118 20.8489Z" fill="#3A225D"/>
</g>
<mask id="mask40_14_539" style="mask-type:luminance" maskUnits="userSpaceOnUse" x="23" y="2" width="31" height="40">
<path d="M53.9902 2.95546H23.2386V41.1195H53.9902V2.95546Z" fill="white"/>
</mask>
<g mask="url(#mask40_14_539)">
<path d="M39.8262 21.8233C39.8801 21.6413 39.7454 21.6091 39.6646 21.6198L39.4492 22.348C39.53 22.3373 39.6108 22.348 39.6512 22.3694L39.8262 21.8233Z" fill="#3A225D"/>
</g>
<mask id="mask41_14_539" style="mask-type:luminance" maskUnits="userSpaceOnUse" x="23" y="2" width="31" height="40">
<path d="M53.9902 2.95546H23.2386V41.1195H53.9902V2.95546Z" fill="white"/>
</mask>
<g mask="url(#mask41_14_539)">
<path d="M47.2582 28.3982C47.3255 28.3874 47.4063 28.3767 47.4602 28.366L47.716 27.4987C47.7833 27.2845 47.7833 26.7705 47.2448 26.8348C47.5679 26.8776 47.6083 27.1774 47.5006 27.5736L47.3794 27.9912L47.2582 28.3982Z" fill="#3A225D"/>
</g>
<mask id="mask42_14_539" style="mask-type:luminance" maskUnits="userSpaceOnUse" x="23" y="2" width="31" height="40">
<path d="M53.9902 2.95546H23.2386V41.1195H53.9902V2.95546Z" fill="white"/>
</mask>
<g mask="url(#mask42_14_539)">
<path d="M44.5386 30.6362C44.5924 30.6255 44.6732 30.604 44.7405 30.5933L45.4137 28.3018C45.306 28.3767 45.2118 28.441 45.131 28.4945L44.5386 30.6362Z" fill="#3A225D"/>
</g>
<mask id="mask43_14_539" style="mask-type:luminance" maskUnits="userSpaceOnUse" x="23" y="2" width="31" height="40">
<path d="M53.9902 2.95546H23.2386V41.1195H53.9902V2.95546Z" fill="white"/>
</mask>
<g mask="url(#mask43_14_539)">
<path d="M45.4271 27.6057C45.5079 27.5201 45.6022 27.4344 45.6964 27.3487L45.7099 27.2845C45.6425 27.3059 45.5618 27.3273 45.4944 27.3487L45.4271 27.6057Z" fill="#3A225D"/>
</g>
<mask id="mask44_14_539" style="mask-type:luminance" maskUnits="userSpaceOnUse" x="23" y="2" width="31" height="40">
<path d="M53.9902 2.95546H23.2386V41.1195H53.9902V2.95546Z" fill="white"/>
</mask>
<g mask="url(#mask44_14_539)">
<path d="M34.9253 24.2862C34.831 24.3183 34.7637 24.3504 34.6964 24.3719L34.2925 25.6354C34.3463 25.689 34.3867 25.7532 34.4406 25.8068L34.9253 24.2862Z" fill="#3A225D"/>
</g>
<mask id="mask45_14_539" style="mask-type:luminance" maskUnits="userSpaceOnUse" x="23" y="2" width="31" height="40">
<path d="M53.9902 2.95546H23.2386V41.1195H53.9902V2.95546Z" fill="white"/>
</mask>
<g mask="url(#mask45_14_539)">
<path d="M31.1285 20.4741C31.0612 20.4955 30.9804 20.5169 30.8996 20.5383L30.1995 23.3653C30.2668 23.3653 30.3341 23.3546 30.4149 23.3546L31.1285 20.4741Z" fill="#3A225D"/>
</g>
<mask id="mask46_14_539" style="mask-type:luminance" maskUnits="userSpaceOnUse" x="23" y="2" width="31" height="40">
<path d="M53.9902 2.95546H23.2386V41.1195H53.9902V2.95546Z" fill="white"/>
</mask>
<g mask="url(#mask46_14_539)">
<path d="M31.9902 30.4755C32.6904 30.0472 32.8654 29.2441 33.0673 28.5481C33.0135 28.5374 32.9327 28.5052 32.8788 28.4838C32.6769 29.1691 32.4615 30.09 31.9902 30.4755Z" fill="#3A225D"/>
</g>
<mask id="mask47_14_539" style="mask-type:luminance" maskUnits="userSpaceOnUse" x="23" y="2" width="31" height="40">
<path d="M53.9902 2.95546H23.2386V41.1195H53.9902V2.95546Z" fill="white"/>
</mask>
<g mask="url(#mask47_14_539)">
<path d="M35.1677 23.4938C35.0869 23.5152 35.0061 23.5473 34.9388 23.5795L34.8715 23.815C34.9253 23.7936 35.033 23.7615 35.1138 23.7294L35.1677 23.4938Z" fill="#3A225D"/>
</g>
<mask id="mask48_14_539" style="mask-type:luminance" maskUnits="userSpaceOnUse" x="23" y="2" width="31" height="40">
<path d="M53.9902 2.95546H23.2386V41.1195H53.9902V2.95546Z" fill="white"/>
</mask>
<g mask="url(#mask48_14_539)">
<path d="M32.4749 28.3446C31.7478 28.0448 30.7784 27.2845 30.4284 26.8455C30.3745 26.8562 30.2937 26.8883 30.2399 26.899C30.5361 27.2631 31.4651 28.0341 32.4749 28.3446Z" fill="#3A225D"/>
</g>
<mask id="mask49_14_539" style="mask-type:luminance" maskUnits="userSpaceOnUse" x="23" y="2" width="31" height="40">
<path d="M53.9902 2.95546H23.2386V41.1195H53.9902V2.95546Z" fill="white"/>
</mask>
<g mask="url(#mask49_14_539)">
<path d="M27.3047 23.0869C27.0623 23.0012 27.0489 22.8085 27.0893 22.6586C27.1835 22.3373 27.7221 21.9839 28.7319 21.6091C27.8298 21.9304 26.995 22.2838 26.8604 22.7014C26.7796 22.9584 26.8738 23.2047 27.2508 23.2796L27.3047 23.0869Z" fill="#3A225D"/>
</g>
<mask id="mask50_14_539" style="mask-type:luminance" maskUnits="userSpaceOnUse" x="23" y="2" width="31" height="40">
<path d="M53.9902 2.95546H23.2386V41.1195H53.9902V2.95546Z" fill="white"/>
</mask>
<g mask="url(#mask50_14_539)">
<path d="M34.3867 29.651C34.3598 29.651 34.3194 29.651 34.2925 29.6617C34.4271 29.7367 34.5214 29.8652 34.4675 30.0258L33.8885 32.0389C33.9424 32.0603 34.0636 32.0818 34.0636 32.0818L34.6964 29.9187C34.7233 29.8437 34.7098 29.7902 34.656 29.7367C34.6021 29.6938 34.4944 29.651 34.3867 29.651Z" fill="#3A225D"/>
</g>
<mask id="mask51_14_539" style="mask-type:luminance" maskUnits="userSpaceOnUse" x="23" y="2" width="31" height="40">
<path d="M53.9902 2.95546H23.2386V41.1195H53.9902V2.95546Z" fill="white"/>
</mask>
<g mask="url(#mask51_14_539)">
<path d="M28.2742 34.0092C28.328 34.0414 28.3819 34.0735 28.4223 34.0949L28.9339 31.889C28.88 31.889 28.8262 31.889 28.7589 31.8997L28.2742 34.0092Z" fill="#3A225D"/>
</g>
<mask id="mask52_14_539" style="mask-type:luminance" maskUnits="userSpaceOnUse" x="23" y="2" width="31" height="40">
<path d="M53.9902 2.95546H23.2386V41.1195H53.9902V2.95546Z" fill="white"/>
</mask>
<g mask="url(#mask52_14_539)">
<path d="M29.9032 24.5753L29.5262 26.3636C29.607 26.3422 29.6474 26.3315 29.7417 26.3208L30.1052 24.6074C30.0379 24.586 29.9706 24.586 29.9032 24.5753Z" fill="#3A225D"/>
</g>
<mask id="mask53_14_539" style="mask-type:luminance" maskUnits="userSpaceOnUse" x="23" y="2" width="31" height="40">
<path d="M53.9902 2.95546H23.2386V41.1195H53.9902V2.95546Z" fill="white"/>
</mask>
<g mask="url(#mask53_14_539)">
<path d="M28.9608 31.0752C29.0147 31.0645 29.082 31.0645 29.1358 31.0538L29.7821 28.366C29.7148 28.3874 29.6475 28.4196 29.5802 28.441L28.9608 31.0752Z" fill="#3A225D"/>
</g>
<mask id="mask54_14_539" style="mask-type:luminance" maskUnits="userSpaceOnUse" x="23" y="2" width="31" height="40">
<path d="M53.9902 2.95546H23.2386V41.1195H53.9902V2.95546Z" fill="white"/>
</mask>
<g mask="url(#mask54_14_539)">
<path d="M37.1738 23.6544C37.2276 23.4188 37.093 23.2689 36.8641 23.301C36.9583 23.376 37.0122 23.4831 36.9583 23.633L36.339 25.946C36.4198 25.9246 36.4871 25.8924 36.5679 25.871L37.1738 23.6544Z" fill="#3A225D"/>
</g>
<mask id="mask55_14_539" style="mask-type:luminance" maskUnits="userSpaceOnUse" x="23" y="2" width="31" height="40">
<path d="M53.9902 2.95546H23.2386V41.1195H53.9902V2.95546Z" fill="white"/>
</mask>
<g mask="url(#mask55_14_539)">
<path d="M49.1162 24.7467C49.1835 24.736 49.2509 24.7252 49.3316 24.7145L49.951 22.6264C49.8837 22.6371 49.8029 22.6371 49.7356 22.6479L49.1162 24.7467Z" fill="#3A225D"/>
</g>
<mask id="mask56_14_539" style="mask-type:luminance" maskUnits="userSpaceOnUse" x="23" y="2" width="31" height="40">
<path d="M53.9902 2.95546H23.2386V41.1195H53.9902V2.95546Z" fill="white"/>
</mask>
<g mask="url(#mask56_14_539)">
<path d="M50.2876 21.32C50.3818 21.0202 50.0587 20.9774 49.9645 21.0095C50.0722 21.0416 50.0991 21.2022 50.0587 21.3522L49.9241 21.8126C50.0049 21.8019 50.0722 21.7912 50.153 21.7698L50.2876 21.32Z" fill="#3A225D"/>
</g>
<mask id="mask57_14_539" style="mask-type:luminance" maskUnits="userSpaceOnUse" x="23" y="2" width="31" height="40">
<path d="M53.9902 2.95546H23.2386V41.1195H53.9902V2.95546Z" fill="white"/>
</mask>
<g mask="url(#mask57_14_539)">
<path d="M35.1407 22.5943C36.1775 22.0803 36.918 21.395 36.7429 20.367L36.5141 20.3777C36.5679 20.7311 36.6083 21.7483 35.1407 22.5943Z" fill="#3A225D"/>
</g>
<mask id="mask58_14_539" style="mask-type:luminance" maskUnits="userSpaceOnUse" x="23" y="2" width="31" height="40">
<path d="M53.9902 2.95546H23.2386V41.1195H53.9902V2.95546Z" fill="white"/>
</mask>
<g mask="url(#mask58_14_539)">
<path d="M30.1187 31.3429C30.8457 31.4714 32.2459 33.3882 34.6425 33.0776C32.2056 33.1526 30.9265 31.2679 30.3341 31.2787L30.1187 31.3429Z" fill="#3A225D"/>
</g>
<mask id="mask59_14_539" style="mask-type:luminance" maskUnits="userSpaceOnUse" x="23" y="2" width="31" height="40">
<path d="M53.9902 2.95546H23.2386V41.1195H53.9902V2.95546Z" fill="white"/>
</mask>
<g mask="url(#mask59_14_539)">
<path d="M31.4381 23.9757L31.115 24.0078C32.1382 24.3504 33.4173 27.5308 35.8947 27.9484C33.4039 27.231 32.5287 24.5753 31.4381 23.9757Z" fill="#3A225D"/>
</g>
<mask id="mask60_14_539" style="mask-type:luminance" maskUnits="userSpaceOnUse" x="23" y="2" width="31" height="40">
<path d="M53.9902 2.95546H23.2386V41.1195H53.9902V2.95546Z" fill="white"/>
</mask>
<g mask="url(#mask60_14_539)">
<path d="M49.224 29.651C47.8372 29.2976 46.6658 29.5011 46.3292 29.5653L46.2754 29.7367C46.7466 29.6189 47.7564 29.4475 49.224 29.651Z" fill="#3A225D"/>
</g>
<mask id="mask61_14_539" style="mask-type:luminance" maskUnits="userSpaceOnUse" x="23" y="2" width="31" height="40">
<path d="M53.9902 2.95546H23.2386V41.1195H53.9902V2.95546Z" fill="white"/>
</mask>
<g mask="url(#mask61_14_539)">
<path d="M36.164 31.4286C36.2448 31.4607 36.4602 31.5249 36.6218 31.5892L36.5948 31.6963C36.4333 31.632 36.0428 31.4928 35.962 31.4714L36.6218 29.2334C36.6756 29.2655 36.7295 29.2976 36.7833 29.3405L36.164 31.4286Z" fill="#3A225D"/>
</g>
<mask id="mask62_14_539" style="mask-type:luminance" maskUnits="userSpaceOnUse" x="23" y="2" width="31" height="40">
<path d="M53.9902 2.95546H23.2386V41.1195H53.9902V2.95546Z" fill="white"/>
</mask>
<g mask="url(#mask62_14_539)">
<path d="M39.5031 26.4492C39.4896 26.4492 39.4761 26.4492 39.4627 26.4492C39.5838 26.5242 39.6512 26.642 39.5973 26.8133L38.1836 31.6641C38.2509 31.6106 38.3317 31.5678 38.4125 31.5464L39.8262 26.7491C39.8531 26.6634 39.8397 26.5992 39.7858 26.5563C39.705 26.4814 39.5838 26.4492 39.5031 26.4492Z" fill="#3A225D"/>
</g>
<mask id="mask63_14_539" style="mask-type:luminance" maskUnits="userSpaceOnUse" x="23" y="2" width="31" height="40">
<path d="M53.9902 2.95546H23.2386V41.1195H53.9902V2.95546Z" fill="white"/>
</mask>
<g mask="url(#mask63_14_539)">
<path d="M40.9033 25.2392L41.4419 23.4188C41.388 23.4295 41.2938 23.4724 41.213 23.4938L40.6744 25.3142C40.7418 25.2928 40.8225 25.2606 40.9033 25.2392Z" fill="#3A225D"/>
</g>
<mask id="mask64_14_539" style="mask-type:luminance" maskUnits="userSpaceOnUse" x="23" y="2" width="31" height="40">
<path d="M53.9902 2.95546H23.2386V41.1195H53.9902V2.95546Z" fill="white"/>
</mask>
<g mask="url(#mask64_14_539)">
<path d="M36.9718 28.9978C37.066 29.0621 37.1738 29.1477 37.2815 29.2334L37.3219 29.0835C37.268 29.0406 37.2007 28.9978 37.1334 28.955C37.0795 28.9764 37.0257 28.9871 36.9718 28.9978Z" fill="#3A225D"/>
</g>
<mask id="mask65_14_539" style="mask-type:luminance" maskUnits="userSpaceOnUse" x="23" y="2" width="31" height="40">
<path d="M53.9902 2.95546H23.2386V41.1195H53.9902V2.95546Z" fill="white"/>
</mask>
<g mask="url(#mask65_14_539)">
<path d="M43.6633 22.8085C43.6903 22.7121 43.6768 22.6264 43.623 22.5729C43.5556 22.4979 43.4345 22.4658 43.3402 22.4658C43.4479 22.5515 43.5018 22.6693 43.4479 22.8513L42.3304 26.6099C41.9265 26.7705 41.738 27.1774 41.6572 27.3702C41.7245 27.3595 41.7919 27.3487 41.8592 27.338C41.9265 27.1453 42.1015 26.7705 42.5458 26.5349L43.6633 22.8085Z" fill="#3A225D"/>
</g>
<mask id="mask66_14_539" style="mask-type:luminance" maskUnits="userSpaceOnUse" x="23" y="2" width="31" height="40">
<path d="M53.9902 2.95546H23.2386V41.1195H53.9902V2.95546Z" fill="white"/>
</mask>
<g mask="url(#mask66_14_539)">
<path d="M49.7626 30.4006C50.0992 29.9722 50.6781 29.1691 50.9474 28.5802C50.7589 28.2696 50.4088 27.8092 50.1665 27.5736L49.9915 27.6807C50.1934 27.8627 50.5839 28.3446 50.7454 28.6123C50.4896 29.1798 49.978 30.1007 49.7626 30.4006Z" fill="#3A225D"/>
</g>
<mask id="mask67_14_539" style="mask-type:luminance" maskUnits="userSpaceOnUse" x="23" y="2" width="31" height="40">
<path d="M53.9902 2.95546H23.2386V41.1195H53.9902V2.95546Z" fill="white"/>
</mask>
<g mask="url(#mask67_14_539)">
<path d="M51.7013 26.7705C51.8763 26.4064 52.2129 25.2606 51.9706 24.7038L51.7551 24.8537C51.9033 25.0144 51.9436 26.0638 51.7013 26.7705Z" fill="#3A225D"/>
</g>
<mask id="mask68_14_539" style="mask-type:luminance" maskUnits="userSpaceOnUse" x="23" y="2" width="31" height="40">
<path d="M53.9902 2.95546H23.2386V41.1195H53.9902V2.95546Z" fill="white"/>
</mask>
<g mask="url(#mask68_14_539)">
<path d="M51.809 21.6413L51.6071 22.2731C51.6744 22.2731 51.8494 22.2088 51.9302 21.9518L52.0379 21.6091C51.9706 21.6199 51.8494 21.6413 51.809 21.6413Z" fill="#3A225D"/>
</g>
<defs>
<linearGradient id="paint0_linear_14_539" x1="21.4891" y1="27.8176" x2="50.0192" y2="12.5907" gradientUnits="userSpaceOnUse">
<stop stop-color="#F2C028"/>
<stop offset="0.0675" stop-color="#F2C028"/>
<stop offset="0.1091" stop-color="#F2C12C"/>
<stop offset="0.1458" stop-color="#F3C636"/>
<stop offset="0.1808" stop-color="#F5CE48"/>
<stop offset="0.2146" stop-color="#F8D962"/>
<stop offset="0.2476" stop-color="#FBE783"/>
<stop offset="0.2796" stop-color="#FFF7AA"/>
<stop offset="0.2822" stop-color="#FFF9AE"/>
<stop offset="0.4094" stop-color="#FAE278"/>
<stop offset="0.5282" stop-color="#F6D04D"/>
<stop offset="0.6204" stop-color="#F3C432"/>
<stop offset="0.6748" stop-color="#F2C028"/>
<stop offset="0.7034" stop-color="#F4C739"/>
<stop offset="0.76" stop-color="#F8DA65"/>
<stop offset="0.8387" stop-color="#FFF8AC"/>
<stop offset="0.8405" stop-color="#FFF9AE"/>
<stop offset="0.8581" stop-color="#FCEE94"/>
<stop offset="0.8879" stop-color="#F9DD6D"/>
<stop offset="0.9174" stop-color="#F6D14F"/>
<stop offset="0.9462" stop-color="#F4C739"/>
<stop offset="0.9741" stop-color="#F2C22C"/>
<stop offset="1" stop-color="#F2C028"/>
</linearGradient>
<linearGradient id="paint1_linear_14_539" x1="34.9751" y1="11.2482" x2="39.0332" y2="9.34972" gradientUnits="userSpaceOnUse">
<stop stop-color="#3A225D"/>
<stop offset="0.15" stop-color="#3A225D"/>
<stop offset="0.3699" stop-color="#584373"/>
<stop offset="0.5" stop-color="#65527D"/>
<stop offset="0.5949" stop-color="#604D7A"/>
<stop offset="0.7086" stop-color="#533E70"/>
<stop offset="0.8316" stop-color="#3E2660"/>
<stop offset="0.85" stop-color="#3A225D"/>
<stop offset="1" stop-color="#3A225D"/>
</linearGradient>
<linearGradient id="paint2_linear_14_539" x1="36.2462" y1="13.991" x2="40.3049" y2="12.0921" gradientUnits="userSpaceOnUse">
<stop stop-color="#3A225D"/>
<stop offset="0.15" stop-color="#3A225D"/>
<stop offset="0.3699" stop-color="#584373"/>
<stop offset="0.5" stop-color="#65527D"/>
<stop offset="0.5949" stop-color="#604D7A"/>
<stop offset="0.7086" stop-color="#533E70"/>
<stop offset="0.8316" stop-color="#3E2660"/>
<stop offset="0.85" stop-color="#3A225D"/>
<stop offset="1" stop-color="#3A225D"/>
</linearGradient>
<linearGradient id="paint3_linear_14_539" x1="37.2583" y1="16.1341" x2="41.3168" y2="14.2354" gradientUnits="userSpaceOnUse">
<stop stop-color="#3A225D"/>
<stop offset="0.15" stop-color="#3A225D"/>
<stop offset="0.3699" stop-color="#584373"/>
<stop offset="0.5" stop-color="#65527D"/>
<stop offset="0.5949" stop-color="#604D7A"/>
<stop offset="0.7086" stop-color="#533E70"/>
<stop offset="0.8316" stop-color="#3E2660"/>
<stop offset="0.85" stop-color="#3A225D"/>
<stop offset="1" stop-color="#3A225D"/>
</linearGradient>
<linearGradient id="paint4_linear_14_539" x1="28.9894" y1="22.0836" x2="46.4226" y2="12.7793" gradientUnits="userSpaceOnUse">
<stop stop-color="#F2C028"/>
<stop offset="0.0675" stop-color="#F2C028"/>
<stop offset="0.1091" stop-color="#F2C12C"/>
<stop offset="0.1458" stop-color="#F3C636"/>
<stop offset="0.1808" stop-color="#F5CE48"/>
<stop offset="0.2146" stop-color="#F8D962"/>
<stop offset="0.2476" stop-color="#FBE783"/>
<stop offset="0.2796" stop-color="#FFF7AA"/>
<stop offset="0.2822" stop-color="#FFF9AE"/>
<stop offset="0.3637" stop-color="#FAE278"/>
<stop offset="0.4398" stop-color="#F6D04D"/>
<stop offset="0.4989" stop-color="#F3C432"/>
<stop offset="0.5337" stop-color="#F2C028"/>
<stop offset="0.7618" stop-color="#FFF8AB"/>
<stop offset="0.7669" stop-color="#FFF9AE"/>
<stop offset="0.8891" stop-color="#F8DC6A"/>
<stop offset="1" stop-color="#F2C028"/>
</linearGradient>
<linearGradient id="paint5_linear_14_539" x1="33.3514" y1="22.4551" x2="46.2723" y2="15.559" gradientUnits="userSpaceOnUse">
<stop stop-color="#F2C028"/>
<stop offset="0.0675" stop-color="#F2C028"/>
<stop offset="0.096" stop-color="#F2C12C"/>
<stop offset="0.1212" stop-color="#F3C636"/>
<stop offset="0.1452" stop-color="#F5CE48"/>
<stop offset="0.1683" stop-color="#F8D962"/>
<stop offset="0.191" stop-color="#FBE783"/>
<stop offset="0.2129" stop-color="#FFF7AA"/>
<stop offset="0.2147" stop-color="#FFF9AE"/>
<stop offset="0.2803" stop-color="#FAE278"/>
<stop offset="0.3416" stop-color="#F6D04D"/>
<stop offset="0.3891" stop-color="#F3C432"/>
<stop offset="0.4172" stop-color="#F2C028"/>
<stop offset="0.5792" stop-color="#FFF8AB"/>
<stop offset="0.5828" stop-color="#FFF9AE"/>
<stop offset="0.7598" stop-color="#F8DC6A"/>
<stop offset="0.9202" stop-color="#F2C028"/>
<stop offset="1" stop-color="#F2C028"/>
</linearGradient>
<linearGradient id="paint6_linear_14_539" x1="23.3879" y1="40.2875" x2="45.0218" y2="28.7413" gradientUnits="userSpaceOnUse">
<stop stop-color="#F2C028"/>
<stop offset="0.0675" stop-color="#F2C028"/>
<stop offset="0.1091" stop-color="#F2C12C"/>
<stop offset="0.1458" stop-color="#F3C636"/>
<stop offset="0.1808" stop-color="#F5CE48"/>
<stop offset="0.2146" stop-color="#F8D962"/>
<stop offset="0.2476" stop-color="#FBE783"/>
<stop offset="0.2796" stop-color="#FFF7AA"/>
<stop offset="0.2822" stop-color="#FFF9AE"/>
<stop offset="0.4412" stop-color="#FAE278"/>
<stop offset="0.5897" stop-color="#F6D04D"/>
<stop offset="0.705" stop-color="#F3C432"/>
<stop offset="0.773" stop-color="#F2C028"/>
<stop offset="0.9951" stop-color="#FFF8AB"/>
<stop offset="1" stop-color="#FFF9AE"/>
</linearGradient>
<linearGradient id="paint7_linear_14_539" x1="32.7936" y1="38.634" x2="49.602" y2="29.6631" gradientUnits="userSpaceOnUse">
<stop stop-color="#F2C028"/>
<stop offset="0.0675" stop-color="#F2C028"/>
<stop offset="0.1091" stop-color="#F2C12C"/>
<stop offset="0.1458" stop-color="#F3C636"/>
<stop offset="0.1808" stop-color="#F5CE48"/>
<stop offset="0.2146" stop-color="#F8D962"/>
<stop offset="0.2476" stop-color="#FBE783"/>
<stop offset="0.2796" stop-color="#FFF7AA"/>
<stop offset="0.2822" stop-color="#FFF9AE"/>
<stop offset="0.3637" stop-color="#FAE278"/>
<stop offset="0.4398" stop-color="#F6D04D"/>
<stop offset="0.4989" stop-color="#F3C432"/>
<stop offset="0.5337" stop-color="#F2C028"/>
<stop offset="0.7618" stop-color="#FFF8AB"/>
<stop offset="0.7669" stop-color="#FFF9AE"/>
<stop offset="0.8891" stop-color="#F8DC6A"/>
<stop offset="1" stop-color="#F2C028"/>
</linearGradient>
<linearGradient id="paint8_linear_14_539" x1="25.9105" y1="31.5714" x2="50.6662" y2="18.3591" gradientUnits="userSpaceOnUse">
<stop stop-color="#F2C028"/>
<stop offset="0.0675" stop-color="#F2C028"/>
<stop offset="0.1091" stop-color="#F2C12C"/>
<stop offset="0.1458" stop-color="#F3C636"/>
<stop offset="0.1808" stop-color="#F5CE48"/>
<stop offset="0.2146" stop-color="#F8D962"/>
<stop offset="0.2476" stop-color="#FBE783"/>
<stop offset="0.2796" stop-color="#FFF7AA"/>
<stop offset="0.2822" stop-color="#FFF9AE"/>
<stop offset="0.3736" stop-color="#FAE278"/>
<stop offset="0.459" stop-color="#F6D04D"/>
<stop offset="0.5253" stop-color="#F3C432"/>
<stop offset="0.5644" stop-color="#F2C028"/>
<stop offset="0.6965" stop-color="#FFF8AB"/>
<stop offset="0.6994" stop-color="#FFF9AE"/>
<stop offset="0.8055" stop-color="#F8DC6A"/>
<stop offset="0.9018" stop-color="#F2C028"/>
<stop offset="1" stop-color="#F2C028"/>
</linearGradient>
</defs>
</svg>
