<svg width="43" height="27" viewBox="0 0 43 27" fill="none" xmlns="http://www.w3.org/2000/svg">
<path d="M29.0332 14.0093C32.791 11.5496 34.9274 8.41844 34.2925 5.62303C33.2114 0.896857 24.7434 -1.27735 15.3831 0.770939C6.01427 2.81083 -0.703524 8.30931 0.3775 13.0355C1.10676 16.2422 5.24211 18.2737 10.7588 18.6095L10.0295 18.6011H8.80262L8.03904 21.3797L5.30216 18.727L5.44802 18.1142H2.23068L0 25.98H5.22495L5.89415 23.2433L8.71682 26.0471H12.509C12.509 26.0471 15.1343 26.1647 16.6186 24.9223L16.3097 25.9464H21.2172L22.0666 24.8215H23.997L24.2801 25.9044H28.8959L29.6509 23.1006L32.5594 25.9212L37.2782 25.9296L38.0589 25.896C39.4831 25.7869 40.6585 24.6704 40.6585 23.2685C40.6585 23.2685 40.7958 21.7071 39.423 21.002H40.384C40.384 21.002 41.362 20.9768 41.791 20.3976C42.0055 20.1038 42.2114 19.684 42.22 19.2307L42.2457 18.7354L42.2286 18.2066H40.6842L41.8253 14.0009H29.385L29.0332 14.0093Z" fill="white"/>
<path fill-rule="evenodd" clip-rule="evenodd" d="M5.97997 17.2832C7.74736 17.0817 10.0381 16.3681 12.3546 14.9075C12.3546 14.9075 10.8446 15.1341 9.08577 15.0754C7.33554 15.0166 5.34508 14.6724 4.40991 13.5392C5.31077 14.0596 6.95804 14.2443 9.41179 13.5392C9.1973 13.4888 8.21065 13.2873 7.42991 12.6493C6.65775 12.0197 6.08292 10.962 6.67491 9.24111C6.6406 10.089 7.17253 10.8865 8.79406 11.0879C8.70827 10.8109 8.45946 10.2317 8.65679 9.30826C8.85412 8.39325 9.50616 7.15085 11.2049 5.53068C10.4671 6.4373 10.0295 7.47824 10.5786 8.28412C10.8446 7.75526 11.2221 7.04172 12.1315 6.1351C13.0238 5.24527 14.4394 4.17915 16.7559 2.93675C15.5204 3.72584 14.3365 4.75838 13.8817 5.86647C14.6453 5.20329 15.5119 4.51494 16.8331 3.82658C18.1458 3.14661 19.9046 2.45825 22.4699 1.78668C20.917 2.32394 19.2011 3.15501 17.8541 4.30507C18.8579 3.81818 20.0419 3.30611 21.5776 2.94514C23.1048 2.58417 24.9837 2.37431 27.3688 2.49183C25.7301 2.58417 23.7225 2.98712 21.6806 3.91892C22.4527 3.7846 23.774 3.59153 25.2668 3.71745C26.7596 3.84336 28.4498 4.27989 29.977 5.42995C28.7072 4.85912 26.854 4.55691 24.4689 4.91788C24.7091 4.98503 25.7987 5.28724 26.7596 6.09312C27.7291 6.9074 28.5699 8.25054 28.2611 10.4499C28.0552 9.12358 27.1457 7.90636 25.1381 7.33553C25.3269 7.61255 25.5928 8.43522 25.4985 9.51813C25.4041 10.6178 24.9408 11.9945 23.6538 13.3629C22.7616 14.345 22.0066 14.6053 22.0066 14.6053C22.0066 14.6053 22.5213 14.0428 22.9246 13.153C23.3278 12.2716 23.6281 11.0795 23.2077 9.82034C22.8131 12.0281 20.8483 13.8498 18.9437 15.0838C17.0133 16.343 15.1515 16.9977 15.0571 16.8718C15.0571 16.8718 15.855 16.3262 16.773 15.4951C17.6825 14.6724 18.6177 13.8498 19.1153 12.7417C16.3784 15.4531 12.1401 17.1321 8.24497 17.3335C7.04383 17.4175 6.20304 17.2999 5.97997 17.2832Z" fill="url(#paint0_linear_14_57)"/>
<path d="M18.8579 8.20018C18.5061 7.63774 17.3479 7.67132 16.2668 8.25894C15.1772 8.85496 14.5681 9.80355 14.9113 10.3744C15.263 10.9536 16.4384 10.92 17.5366 10.3072C18.6262 9.71121 19.2096 8.75423 18.8579 8.20018Z" fill="white"/>
<path d="M26.8969 7.28516C26.1934 6.09312 24.9408 5.49711 23.4908 5.31242C22.0409 5.12774 20.3936 5.36279 18.8836 5.84129C19.9217 5.43835 20.8826 5.16132 21.5004 5.06898C23.2506 4.43099 24.8206 4.27149 26.0218 4.36383C24.3402 4.00286 22.5642 4.1036 20.9084 4.48975C19.2439 4.8843 17.6996 5.56427 16.4727 6.35336C17.2621 5.76574 18.0514 5.27885 18.6434 5.01861C19.9217 4.1036 21.406 3.50758 22.6929 3.18019C20.6338 3.53277 18.8407 4.17915 17.3908 4.95985C15.9322 5.74895 14.8169 6.67235 14.1563 7.56218C14.5166 6.93259 14.9799 6.37015 15.4089 6.00918C16.0009 5.05219 17.1076 4.22952 18.2144 3.62511C16.2325 4.51494 14.7826 5.5139 13.8474 6.47928C12.9037 7.45306 12.4747 8.39325 12.5519 9.15716C12.3717 8.65349 12.3803 8.1582 12.5433 7.78884C12.3202 7.03332 12.8436 6.15189 13.5729 5.42156C12.0371 6.67235 11.2478 7.80563 11.059 8.72064C10.8703 9.65244 11.2907 10.3492 12.1744 10.7437C11.428 10.5507 10.9218 10.2653 10.7502 9.98823C9.66916 9.66084 9.44609 8.9389 9.62626 8.21696C8.19348 11.004 10.2526 12.1708 13.3069 11.7847C12.1658 12.0281 11.2221 12.1037 10.7073 12.0281C9.42893 12.473 7.85029 12.0533 7.31836 11.5496C7.84171 12.6913 9.09433 13.1782 10.6558 13.1698C12.2173 13.1614 14.0619 12.6493 15.7521 11.8267C14.6024 12.4814 13.5128 12.9767 12.7835 13.1782C12.3031 13.9337 9.02569 14.4626 7.74734 14.4626C9.06001 14.7312 10.8188 14.6724 12.3288 14.3366C14.6882 13.8078 16.9189 12.3891 18.6434 10.7773L18.652 10.7689C18.652 10.7773 18.6434 10.7773 18.6434 10.7773C18.12 11.5412 15.589 13.4636 15.589 13.4636C15.3917 14.2191 13.0838 15.2601 10.6644 16.3765C13.3841 15.7134 16.3269 14.5129 18.4289 12.6493C19.4584 11.7427 20.0504 10.9536 20.385 10.3576C20.8483 9.53492 20.8397 9.03964 20.8397 9.03964C20.977 10.0134 20.4451 10.9704 20.4451 10.9704C20.222 13.3964 17.9742 14.8991 17.9742 14.8991C18.4889 14.6137 19.1152 14.1855 19.1152 14.1855C21.0714 12.6157 22.0838 11.1719 22.4098 9.98823C22.7272 8.81298 22.3669 7.87279 21.5776 7.30195C22.2811 7.64613 22.7701 8.06586 22.916 8.43523C24.1343 9.12358 24.3917 10.2317 24.1343 11.3398C25.018 9.52653 24.8807 8.23375 24.1686 7.39429C23.4651 6.56322 22.1953 6.16028 20.7711 6.14349C21.8006 6.07634 22.6758 6.11831 23.1562 6.25262C24.9837 6.18547 26.1934 6.64717 26.8969 7.28516ZM17.3221 10.0638C16.2239 10.6598 15.0485 10.685 14.7054 10.1309C14.3622 9.57689 14.9713 8.65349 16.0609 8.06586C17.1419 7.48663 18.3002 7.46145 18.652 8.0071C19.0037 8.55275 18.4117 9.47616 17.3221 10.0638Z" fill="url(#paint1_radial_14_57)"/>
<path d="M27.2487 5.6566C31.3154 6.71432 31.6414 11.0963 26.1848 13.4216C30.7148 10.8361 29.5909 7.02493 27.2401 5.67339L27.2487 5.6566Z" fill="#F79433"/>
<path d="M26.6996 14.0512C33.1085 11.8351 35.0904 2.91997 26.794 3.22217C31.5813 1.71114 33.9236 4.49816 33.1771 7.78045C32.7911 9.48456 31.6843 10.9788 30.3287 12.0869C29.2477 12.9767 27.9779 13.6483 26.6996 14.0512Z" fill="#00A65D"/>
<path d="M7.51568 13.3545C2.8484 12.6157 3.42324 7.52861 9.42893 5.69858C4.14392 8.1666 4.64153 12.6661 7.52426 13.3293L7.51568 13.3545Z" fill="#00A65D"/>
<path d="M8.81977 4.85912C2.20493 6.37854 -1.02098 15.1845 7.25829 15.7637C0.12868 17.1992 -0.857966 10.2988 4.84744 6.56323C5.69681 6.00918 6.64914 5.53908 7.61863 5.2033C8.01329 5.06059 8.40795 4.95146 8.81977 4.85912Z" fill="#F79433"/>
<path d="M24.7691 14.2359L22.3583 15.8309L22.3497 15.8141L20.8569 14.2947L19.8445 17.9463H20.9083L21.406 16.1583L22.1095 16.897L23.1733 16.2003L22.6843 17.9463H23.7568L24.7691 14.2359Z" fill="white"/>
<path d="M25.6529 17.8456C25.1467 17.8456 24.7263 17.7113 24.4775 17.4594C24.2287 17.2244 24.1515 16.897 24.2458 16.5444L24.7606 14.6892H25.4813L25.0094 16.3849C24.9236 16.6955 24.9751 16.9642 25.1639 17.1488C25.3097 17.2916 25.5328 17.3671 25.8073 17.3671C26.425 17.3671 26.9656 16.9726 27.12 16.4185L27.6004 14.6892H28.3211L27.8149 16.5109C27.6004 17.2748 26.6739 17.8456 25.6529 17.8456Z" fill="url(#paint2_linear_14_57)"/>
<path d="M38.2734 17.77L38.1275 17.174H36.4202L35.9483 17.77H35.2019L37.261 15.302L37.7844 14.6724H38.6938L38.4707 14.9411V14.9494C38.4107 15.0334 38.3849 15.1341 38.4021 15.2349V15.2433L39.0627 17.77H38.2734ZM36.772 16.7291H38.0246L37.7329 15.5119L36.772 16.7291Z" fill="url(#paint3_linear_14_57)"/>
<path d="M41.1303 14.5045H40.0579L39.1141 17.9295H40.178L41.1303 14.5045Z" fill="white"/>
<path d="M35.7424 15.5287C35.8368 15.1761 35.7081 14.9495 35.5794 14.8235C35.3821 14.6305 35.056 14.5213 34.6614 14.5213H32.3792L31.4269 17.9463H33.9235C34.73 17.9463 35.4078 17.5266 35.5794 16.9306C35.6738 16.5864 35.5536 16.301 35.2534 16.1247C35.5022 15.982 35.6738 15.7721 35.7424 15.5287ZM34.5327 16.8466C34.4898 17.0145 34.2581 17.1405 34.0007 17.1405H32.7224L32.8768 16.5948H34.2238C34.3439 16.5948 34.4469 16.6284 34.4984 16.6788C34.5498 16.7375 34.5413 16.7963 34.5327 16.8466ZM34.6699 15.5287C34.6356 15.663 34.4812 15.7889 34.2238 15.7889H33.0999L33.2286 15.3272H34.4297C34.4984 15.3272 34.6013 15.3356 34.6442 15.386C34.6871 15.4363 34.6785 15.5035 34.6699 15.5287Z" fill="white"/>
<path d="M31.65 17.7784L32.508 14.6808H34.6614C35.0132 14.6808 35.2963 14.7732 35.4679 14.9327C35.6052 15.067 35.6481 15.2517 35.588 15.4783C35.5366 15.6798 35.3821 15.8561 35.1762 15.982L34.9274 16.1247L35.1762 16.2674C35.4164 16.4017 35.5022 16.62 35.425 16.8886C35.2792 17.4175 34.67 17.7868 33.9322 17.7868H31.65V17.7784ZM32.508 17.3083H34.0008C34.3354 17.3083 34.6271 17.1321 34.6958 16.8886C34.7301 16.7627 34.7043 16.6452 34.61 16.5612C34.5242 16.4773 34.3869 16.4353 34.2153 16.4353H32.7396L32.508 17.3083ZM32.8769 15.9568H34.2239C34.5757 15.9568 34.7816 15.7637 34.833 15.5707C34.8674 15.4531 34.8416 15.344 34.7558 15.2685C34.6872 15.1929 34.5671 15.1593 34.4212 15.1593H33.0914L32.8769 15.9568Z" fill="url(#paint4_linear_14_57)"/>
<path d="M30.4059 17.9463H31.4783L32.4221 14.5213H32.0875L30.0798 15.8309L28.8015 14.5213H28.5098L27.566 17.9463H28.6299L29.1275 16.1583L29.8396 16.897L30.8949 16.2003L30.4059 17.9463Z" fill="white"/>
<path d="M40.1094 17.6609C40.1094 17.6609 40.1094 17.6441 40.118 17.6189L40.9245 14.6724H40.221L39.3373 17.7616H39.363H40.0751H40.1781C40.118 17.7365 40.1094 17.7029 40.1094 17.6609Z" fill="url(#paint5_linear_14_57)"/>
<path d="M31.384 17.6945C31.384 17.6945 31.384 17.6777 31.384 17.6609L31.4955 17.258L32.2077 14.6976H32.1476L30.0628 16.0575L28.7329 14.6892H28.6471L27.7892 17.7868H28.5099L29.0504 15.8309L29.8654 16.6871L31.1781 15.8141L30.629 17.7952L31.3497 17.7868H31.4441C31.384 17.7533 31.384 17.7281 31.384 17.6945Z" fill="url(#paint6_linear_14_57)"/>
<path d="M23.6539 17.6945V17.6861L24.529 14.5969L22.3412 16.0491L20.9427 14.6221L20.0676 17.7868H20.7883L21.3288 15.8309L22.1439 16.6871L23.4566 15.8141L22.9075 17.7868H22.9418H22.9504H23.3622H23.6196H23.6281H23.7225C23.6539 17.7533 23.6539 17.7281 23.6539 17.6945Z" fill="url(#paint7_linear_14_57)"/>
<path d="M17.0905 24.0996L16.6701 25.661H21.0285L21.8779 24.5529H24.2372L24.5118 25.619H28.7072L29.5137 22.6054L32.6795 25.6526H37.0036L37.7844 25.619C39.2086 25.5099 40.384 24.5025 40.384 23.1006C40.384 22.7061 40.2896 22.3367 40.1266 22.0093C40.1266 22.0093 39.6804 20.9013 37.9388 20.9768C37.9388 20.9768 37.2181 20.9684 37.0379 20.9768C36.8663 20.9852 36.7376 20.9684 36.7376 20.9684C36.7891 20.9684 36.6947 20.9684 36.6862 20.918C36.6776 20.8845 36.7033 20.8425 36.7376 20.8257C36.7376 20.8257 36.8921 20.7082 37.6213 20.7082C38.342 20.7082 40.0837 20.7082 40.0837 20.7082C40.0837 20.7082 41.1218 20.7669 41.5508 20.1877C41.7996 19.8435 41.9283 19.4154 41.9369 18.9621V18.5004L37.9645 18.5088C37.9645 18.5088 36.2057 18.45 35.2019 19.2223L35.3134 18.8026H32.7396L31.9245 21.8079L28.8702 18.8362H28.4927L31.9074 22.152C31.9074 22.152 31.9846 22.2192 32.0704 22.194C32.1476 22.1772 32.1733 22.1269 32.1905 22.0597C32.2076 21.9925 32.9884 19.0628 32.9884 19.0628H34.9617L34.6271 20.2884C34.6271 20.2884 35.1762 18.7186 37.9731 18.769C38.7538 18.7858 41.6451 18.769 41.6451 18.769V18.9621C41.6366 19.3734 41.5079 19.7512 41.2848 20.0618C41.2848 20.0618 40.9245 20.4815 40.0408 20.4228H37.6042C36.7205 20.4228 36.4888 20.683 36.4888 20.683C36.4116 20.7418 36.3687 20.8257 36.3687 20.9264C36.3687 21.0943 36.5317 21.1867 36.6947 21.1951C36.6947 21.1951 37.4326 21.2622 37.9216 21.2286C38.4107 21.1951 39.3716 21.3126 39.792 22.0513C39.9721 22.3619 40.0579 22.7229 40.0579 23.1006C40.0579 24.3514 39.0112 25.2832 37.6128 25.3756L32.8339 25.384L29.5909 22.2948C29.5909 22.2948 29.5051 22.1604 29.3935 22.1856C29.282 22.2108 29.2734 22.3619 29.2734 22.3619L28.5013 25.3504H24.7005L24.4174 24.2759H21.7234L20.8655 25.384H16.9961L17.7339 22.6473C17.7339 22.6473 16.8245 25.2497 12.998 25.4092L8.98279 25.426L5.75688 22.3619C5.75688 22.3619 5.71399 22.2612 5.61103 22.2864C5.50808 22.3115 5.48234 22.5046 5.48234 22.5046L4.72734 25.384H0.780743L2.69398 18.727H4.92467L5.01046 18.4332H2.48807L0.437561 25.6862H4.95041L5.7483 22.6893L8.87984 25.703H12.3889C12.3889 25.703 15.4432 25.9044 17.0905 24.0996Z" fill="#ED1C24"/>
<path d="M4.74451 18.9789L8.12485 22.236C8.12485 22.236 8.18491 22.3115 8.27928 22.2864C8.38224 22.2696 8.3994 22.1353 8.3994 22.1353L9.21446 19.1636H14.1734C14.1734 19.1636 15.2888 19.088 16.284 19.4406C17.2792 19.7848 18.1715 20.7669 17.957 21.9422L18.7206 19.13H20.6939L19.1067 24.9223L23.9198 19.0964H26.3564L25.6529 19.9443C25.6529 19.9443 25.3612 20.1961 25.5242 20.5823L26.6567 24.8383L28.3125 18.8278H28.0123L26.6653 23.7974L25.7987 20.5571C25.7987 20.5571 25.6786 20.2968 25.936 20.0366L26.9141 18.853H23.7654L19.6987 23.7722L21.0285 18.853H18.4975L18.0171 20.6242C18.0171 20.6242 17.631 19.6588 16.3526 19.2139C15.1858 18.811 14.1477 18.9201 14.1477 18.9201H8.97422L8.15917 21.9002L5.12201 18.9789H4.74451Z" fill="#ED1C24"/>
<path d="M13.1439 23.6715C14.3879 23.6631 15.4604 23.0335 15.692 22.1688C15.7607 21.9338 15.7778 21.5896 15.4861 21.3126C15.2201 21.0523 14.7654 20.918 14.1649 20.9264H12.8693L12.1229 23.6799L13.1439 23.6715Z" fill="white"/>
<path d="M17.3049 20.087C16.8674 19.6588 16.0094 19.1636 14.4308 19.1719L11.0933 19.1887L9.41174 25.4259L12.8607 25.4175C15.3059 25.4259 17.3993 24.0744 17.8712 22.3199C18.1114 21.4553 17.9141 20.6662 17.3049 20.087ZM15.9579 22.2276C15.692 23.2182 14.508 23.9317 13.1438 23.9401H11.7625L12.6634 20.6326H14.1734C14.8426 20.6242 15.366 20.7921 15.692 21.1027C15.9837 21.3881 16.0781 21.7911 15.9579 22.2276Z" fill="white"/>
<path d="M2.83982 25.1321C2.71112 25.0902 2.70254 25.0146 2.70254 24.9307C2.70254 24.9307 2.70254 24.8887 2.71112 24.8551L4.30692 18.9789H2.93419L1.18396 25.1321H2.83982Z" fill="url(#paint8_linear_14_57)"/>
<path d="M15.958 22.2276C15.692 23.2182 14.508 23.9317 13.1439 23.9401H11.7626L12.6634 20.6326H14.1734C14.8426 20.6242 15.366 20.7921 15.692 21.1027C15.9837 21.3881 16.0781 21.7911 15.958 22.2276Z" fill="#ED1B2F"/>
<path d="M13.1439 23.6715C14.3879 23.6631 15.4604 23.0335 15.692 22.1688C15.7607 21.9338 15.7778 21.5896 15.4861 21.3126C15.2201 21.0523 14.7654 20.918 14.1649 20.9264H12.8693L12.1229 23.6799L13.1439 23.6715Z" fill="white"/>
<path d="M24.0828 22.8572H22.8645L23.7997 21.7323L24.0828 22.8572Z" fill="#ED1C24"/>
<path d="M38.2734 23.0335C38.1018 22.8824 37.9645 22.8908 37.5356 22.8992H36.9607C36.4631 22.8824 36.0341 22.8068 35.6052 22.6473C35.3392 22.5466 35.0646 22.3787 35.0561 22.3703C34.4726 21.959 34.4212 21.4553 34.4383 21.1783C34.4383 21.1447 34.4383 21.0943 34.4469 21.0272L33.6576 23.9149C33.8807 23.7554 34.1552 23.6631 34.4469 23.6631L37.2267 23.7302C37.4927 23.705 38.2133 23.7302 38.3163 23.3525C38.342 23.2685 38.3334 23.0838 38.2734 23.0335ZM37.2353 23.4616L34.4555 23.3944C34.3096 23.3944 34.1638 23.4112 34.0351 23.4532L34.4126 22.0681C34.5241 22.236 34.6957 22.4039 34.9274 22.555C35.6223 23.0083 36.4288 23.1174 36.9607 23.1342L37.5527 23.1426C37.8873 23.1426 38.0503 23.1174 38.0761 23.2098C38.119 23.4112 37.853 23.4532 37.2353 23.4616Z" fill="#ED1B2F"/>
<path d="M24.9408 25.0482L24.6748 23.9653L21.6033 23.9821L20.7454 25.0734L19.3212 25.0818L23.079 20.5319L24.0313 19.3734L25.7472 19.365L25.3097 19.8939L25.3011 19.9023C25.1982 20.0534 25.1553 20.2297 25.1724 20.3976V20.4143L26.4079 25.0398L24.9408 25.0482ZM22.2811 23.109L24.4775 23.1006L23.9627 20.9852L22.2811 23.109Z" fill="url(#paint9_linear_14_57)"/>
<path d="M9.76355 25.1237L11.3079 19.4322L14.4308 19.4154C15.9151 19.407 16.7044 19.8687 17.0991 20.2549C17.631 20.7669 17.8026 21.4637 17.5967 22.2192C17.1505 23.8562 15.1172 25.0986 12.8522 25.1069L9.76355 25.1237ZM11.3851 24.1919L13.1353 24.1835C14.6196 24.1751 15.9237 23.3693 16.224 22.2696C16.3698 21.7323 16.2411 21.237 15.8722 20.8845C15.4947 20.5235 14.9027 20.3304 14.1563 20.3388L12.4318 20.3472L11.3851 24.1919Z" fill="url(#paint10_linear_14_57)"/>
<path d="M18.8578 24.8803C18.8578 24.8719 18.8836 24.7124 18.8836 24.6956C18.8922 24.6033 18.9436 24.4186 18.9608 24.343L20.3078 19.3818L18.9351 19.3902L17.5366 24.5361L17.3907 25.0818L18.7635 25.0734H18.7892H18.9951C18.8664 25.0146 18.8578 24.9642 18.8578 24.8803Z" fill="url(#paint11_linear_14_57)"/>
<path d="M33.1771 19.323L32.5336 21.6819V21.6903L32.3963 22.1856L32.3878 22.2024L32.2762 22.6053C32.2248 22.7313 32.1218 22.7145 32.0617 22.6893L31.71 22.3535C31.71 22.3535 31.7014 22.3451 31.6928 22.3451L31.6842 22.3367L31.0665 21.7323L31.0322 21.6987L28.4841 19.1971L26.8969 25.0398L28.2953 25.0314H28.5012C28.3811 24.9726 28.3725 24.9139 28.3725 24.8383C28.3725 24.8299 28.3983 24.6704 28.3983 24.6536C28.4154 24.5361 28.4841 24.2759 28.4841 24.2759L28.9216 22.6809L28.9988 22.3871L29.0675 22.1352L29.1704 21.7575C29.2219 21.6316 29.3249 21.6484 29.3849 21.6735L29.7024 21.9841L29.7109 21.9925L29.9941 22.2696L30.4059 22.6641L32.8768 25.0734H32.9969L34.4812 19.6253C34.5069 19.5161 34.5498 19.4154 34.6013 19.323H33.1771Z" fill="url(#paint12_linear_14_57)"/>
<path d="M39.4917 22.0933C39.6719 22.3535 39.8006 22.6977 39.8006 23.0671C39.8006 24.1584 38.7968 24.9726 37.8616 25.0314L37.1667 25.0734C36.9264 25.0818 36.7463 25.0818 36.712 25.0818C36.712 25.0818 36.3945 25.0902 36.0256 25.0734C33.5718 24.9474 33.3488 25.0902 33.3488 25.0902C33.3402 25.0146 33.3574 24.9055 33.3659 24.8383C33.3745 24.788 33.3917 24.7208 33.4174 24.6536C33.5804 24.2171 33.9665 23.9233 34.4555 23.9233L37.2267 23.9905C37.5099 23.9905 38.3764 23.9821 38.5909 23.3777C38.6767 23.1426 38.5995 22.9747 38.5394 22.8992C38.385 22.6893 38.0761 22.6053 37.5356 22.6053L36.9693 22.597C36.5489 22.5802 35.9655 22.471 35.6052 22.3283C35.3564 22.2276 35.2191 22.1185 35.2191 22.1185C34.7644 21.7911 34.6958 21.3965 34.7129 21.1531C34.7215 20.9264 34.7901 19.1384 37.6385 19.046C37.6385 19.046 37.9388 19.0292 38.0847 19.0292L38.9941 19.0376C39.2858 19.0544 39.7491 19.0544 40.0494 19.0628C40.2553 19.0628 40.4183 19.0628 40.6242 19.0628C40.8387 19.0544 41.0875 19.0544 41.3535 19.0041C41.3535 19.0041 41.3449 19.2979 41.2849 19.4658C41.1218 19.9023 40.8216 20.1121 40.3325 20.1121L37.4927 20.1457C37.2096 20.1541 36.2916 20.1793 36.12 20.7501V20.7585C36.0685 20.918 36.0857 21.0775 36.18 21.2034C36.3345 21.4133 36.6433 21.4973 37.1838 21.4973L38.1276 21.4889C38.1362 21.4973 39.0542 21.4469 39.4917 22.0933Z" fill="url(#paint13_linear_14_57)"/>
<path d="M24.9064 14.1436L24.9751 13.9085L22.3926 15.621L20.7797 13.9757L19.63 18.1226H21.0456L21.5003 16.4941L22.0923 17.1237L22.8902 16.5948L22.4698 18.1226H23.8855L24.0571 17.493C24.0571 17.493 24.3402 17.9631 25.0265 18.1142C25.9617 18.3409 26.7768 17.9715 26.9226 17.9128C27.0856 17.8372 27.3516 17.6861 27.506 17.5518L27.3516 18.1226H28.7758L29.2219 16.4941L29.8139 17.1237L30.6118 16.5948L30.1914 18.1226H33.8549C33.8549 18.1226 34.404 18.1562 34.8759 17.9295L35.2191 17.5098C35.2191 17.5098 35.0303 17.6861 34.7729 17.7868C34.5155 17.896 34.241 17.9631 33.8377 17.9547H30.4145L30.9035 16.2003L29.8483 16.9054L29.1447 16.1667L28.6471 17.9547H27.5747L27.8835 16.8299C27.8835 16.8299 27.7119 17.2244 27.2572 17.535C26.914 17.7701 26.5108 17.9379 26.0389 17.9967C25.8502 18.0219 25.2496 18.0723 24.7606 17.8456C24.6147 17.7784 24.0914 17.5182 24.0485 16.9138L23.7653 17.9547H22.6929L23.1819 16.2086L22.1267 16.9138L21.4231 16.1751L20.9255 17.9631H19.8531L20.8655 14.3115L22.3755 15.8393L24.9064 14.1436Z" fill="#ED1C24"/>
<path d="M24.8464 14.3534L24.8035 14.5213H25.6957L25.1981 16.3178C25.1981 16.3178 25.0609 16.6788 25.1895 16.9222C25.3268 17.1572 25.6957 17.3 26.1934 17.1405C26.2963 17.1069 26.7682 16.9306 26.9312 16.4185C26.9484 16.3598 27.1972 15.4447 27.1972 15.4447L27.4546 14.5213H28.7844L30.0713 15.8309L32.0875 14.5213H34.6442C34.6442 14.5213 35.3392 14.4878 35.648 14.8991C35.9826 15.386 35.5537 15.8729 35.5537 15.8729C35.5537 15.8729 35.425 16.024 35.2448 16.1247C35.2448 16.1247 35.8883 16.4437 35.4593 17.1992L37.6985 14.5129H39.0369L38.6165 15.0166C38.6165 15.0166 38.5136 15.109 38.5565 15.2517C38.608 15.4028 39.1828 17.6357 39.1828 17.6357L40.0493 14.4962H41.1218L40.1694 17.9212H38.1275L37.9817 17.3251H36.4888L36.0169 17.9212H35.056L34.9188 18.0891H36.1027L36.5746 17.493H37.853L37.9988 18.0891H40.3067L41.3448 14.3283H39.9292L39.1914 16.981L38.7281 15.2181C38.7281 15.2181 38.7023 15.1593 38.7538 15.1006C38.8053 15.0418 39.3973 14.3367 39.3973 14.3367H37.6213L35.7681 16.5612C35.7681 16.5612 35.751 16.3346 35.5279 16.1163C35.5279 16.1163 35.9912 15.7805 35.9311 15.1677C35.914 15.025 35.7939 14.4374 34.8415 14.3451C34.7815 14.3367 34.6099 14.3367 34.6099 14.3367H32.0275L30.0971 15.5958L28.8616 14.3367H27.3259L26.7853 16.301C26.7853 16.301 26.6738 16.7963 26.1247 16.9726C25.9789 17.0145 25.6185 17.0817 25.4126 16.9222C25.2067 16.7627 25.3268 16.4269 25.3268 16.4269L25.9017 14.3367L24.8464 14.3534Z" fill="#ED1C24"/>
<path d="M34.4383 15.3272H33.22L33.0913 15.7889H34.2495C34.4726 15.7805 34.6614 15.6546 34.6785 15.4867C34.6957 15.3272 34.4383 15.3272 34.4383 15.3272ZM34.2753 15.6294H33.323L33.3573 15.4951H34.4297C34.4297 15.4951 34.4984 15.4951 34.5069 15.5035C34.5241 15.5119 34.4211 15.621 34.2753 15.6294Z" fill="#ED1C24"/>
<path d="M34.2581 16.6032H32.8768L32.7224 17.1488H34.0522C34.2925 17.1321 34.5327 16.9977 34.5413 16.8047C34.5499 16.6032 34.2581 16.6032 34.2581 16.6032ZM34.0437 16.9726H32.9455L33.0055 16.7627H34.2581C34.2581 16.7627 34.3697 16.7543 34.3697 16.8047C34.3611 16.855 34.2496 16.9642 34.0437 16.9726Z" fill="#ED1C24"/>
<path d="M37.2352 16.5025L37.6127 16.0659L37.7157 16.5025H37.2352Z" fill="#ED1C24"/>
<path d="M9.41179 19.449L8.7769 21.8079V21.8163L8.63963 22.3115L8.63105 22.3199L8.51951 22.7229C8.46804 22.8488 8.36508 22.832 8.30503 22.8068L7.95327 22.471L7.94468 22.4626L7.93611 22.4542L7.31838 21.8498L7.28406 21.8163L4.71877 19.3147L3.14014 25.1321H4.70161C4.60724 25.0818 4.59866 25.023 4.59866 24.9474C4.59866 24.9391 4.6244 24.7796 4.6244 24.7628C4.64156 24.6452 4.71019 24.385 4.71019 24.385L5.14775 22.79L5.22497 22.5046L5.2936 22.2528L5.39656 21.875C5.44804 21.7407 5.55099 21.7659 5.61105 21.7911L5.93707 22.1017L5.94565 22.1101L6.22877 22.3871L6.6406 22.7816L9.06003 25.1321H9.24878L10.7245 19.7344C10.7502 19.6253 10.7931 19.5245 10.8446 19.4322L9.41179 19.449Z" fill="url(#paint14_linear_14_57)"/>
<defs>
<linearGradient id="paint0_linear_14_57" x1="24.3591" y1="3.76754" x2="10.8109" y2="16.2352" gradientUnits="userSpaceOnUse">
<stop stop-color="#004081"/>
<stop offset="0.1156" stop-color="#00488A"/>
<stop offset="0.4913" stop-color="#0061A5"/>
<stop offset="0.7996" stop-color="#0070B8"/>
<stop offset="1" stop-color="#0077C0"/>
</linearGradient>
<radialGradient id="paint1_radial_14_57" cx="0" cy="0" r="1" gradientUnits="userSpaceOnUse" gradientTransform="translate(17.1184 9.78634) scale(6.80464 6.65796)">
<stop stop-color="#FFCC32"/>
<stop offset="0.35" stop-color="#FFCC32"/>
<stop offset="0.74" stop-color="#ED1B2F"/>
<stop offset="1" stop-color="#ED1B2F"/>
</radialGradient>
<linearGradient id="paint2_linear_14_57" x1="26.2643" y1="17.8422" x2="26.2544" y2="15.9156" gradientUnits="userSpaceOnUse">
<stop stop-color="#003B7A"/>
<stop offset="0.1838" stop-color="#004080"/>
<stop offset="0.4834" stop-color="#004D90"/>
<stop offset="0.8594" stop-color="#0062AA"/>
<stop offset="1" stop-color="#006CB7"/>
</linearGradient>
<linearGradient id="paint3_linear_14_57" x1="37.1195" y1="17.7806" x2="37.1098" y2="15.892" gradientUnits="userSpaceOnUse">
<stop stop-color="#003B7A"/>
<stop offset="0.1838" stop-color="#004080"/>
<stop offset="0.4834" stop-color="#004D90"/>
<stop offset="0.8594" stop-color="#0062AA"/>
<stop offset="1" stop-color="#006CB7"/>
</linearGradient>
<linearGradient id="paint4_linear_14_57" x1="33.6288" y1="17.7822" x2="33.6192" y2="15.8928" gradientUnits="userSpaceOnUse">
<stop stop-color="#003B7A"/>
<stop offset="0.1838" stop-color="#004080"/>
<stop offset="0.4834" stop-color="#004D90"/>
<stop offset="0.8594" stop-color="#0062AA"/>
<stop offset="1" stop-color="#006CB7"/>
</linearGradient>
<linearGradient id="paint5_linear_14_57" x1="40.1264" y1="17.7627" x2="40.1168" y2="15.8822" gradientUnits="userSpaceOnUse">
<stop stop-color="#003B7A"/>
<stop offset="0.1838" stop-color="#004080"/>
<stop offset="0.4834" stop-color="#004D90"/>
<stop offset="0.8594" stop-color="#0062AA"/>
<stop offset="1" stop-color="#006CB7"/>
</linearGradient>
<linearGradient id="paint6_linear_14_57" x1="29.9945" y1="17.7909" x2="29.9847" y2="15.8955" gradientUnits="userSpaceOnUse">
<stop stop-color="#003B7A"/>
<stop offset="0.1838" stop-color="#004080"/>
<stop offset="0.4834" stop-color="#004D90"/>
<stop offset="0.8594" stop-color="#0062AA"/>
<stop offset="1" stop-color="#006CB7"/>
</linearGradient>
<linearGradient id="paint7_linear_14_57" x1="22.2952" y1="17.788" x2="22.2853" y2="15.8476" gradientUnits="userSpaceOnUse">
<stop stop-color="#003B7A"/>
<stop offset="0.1838" stop-color="#004080"/>
<stop offset="0.4834" stop-color="#004D90"/>
<stop offset="0.8594" stop-color="#0062AA"/>
<stop offset="1" stop-color="#006CB7"/>
</linearGradient>
<linearGradient id="paint8_linear_14_57" x1="2.75604" y1="25.1332" x2="2.73697" y2="21.3856" gradientUnits="userSpaceOnUse">
<stop stop-color="#003B7A"/>
<stop offset="0.1838" stop-color="#004080"/>
<stop offset="0.4834" stop-color="#004D90"/>
<stop offset="0.8594" stop-color="#0062AA"/>
<stop offset="1" stop-color="#006CB7"/>
</linearGradient>
<linearGradient id="paint9_linear_14_57" x1="22.8623" y1="25.0545" x2="22.8447" y2="21.5921" gradientUnits="userSpaceOnUse">
<stop stop-color="#003B7A"/>
<stop offset="0.1838" stop-color="#004080"/>
<stop offset="0.4834" stop-color="#004D90"/>
<stop offset="0.8594" stop-color="#0062AA"/>
<stop offset="1" stop-color="#006CB7"/>
</linearGradient>
<linearGradient id="paint10_linear_14_57" x1="13.731" y1="25.1016" x2="13.7134" y2="21.6386" gradientUnits="userSpaceOnUse">
<stop stop-color="#003B7A"/>
<stop offset="0.1838" stop-color="#004080"/>
<stop offset="0.4834" stop-color="#004D90"/>
<stop offset="0.8594" stop-color="#0062AA"/>
<stop offset="1" stop-color="#006CB7"/>
</linearGradient>
<linearGradient id="paint11_linear_14_57" x1="18.8539" y1="25.0753" x2="18.8363" y2="21.6121" gradientUnits="userSpaceOnUse">
<stop stop-color="#003B7A"/>
<stop offset="0.1838" stop-color="#004080"/>
<stop offset="0.4834" stop-color="#004D90"/>
<stop offset="0.8594" stop-color="#0062AA"/>
<stop offset="1" stop-color="#006CB7"/>
</linearGradient>
<linearGradient id="paint12_linear_14_57" x1="30.7504" y1="25.0784" x2="30.7321" y2="21.4866" gradientUnits="userSpaceOnUse">
<stop stop-color="#003B7A"/>
<stop offset="0.1838" stop-color="#004080"/>
<stop offset="0.4834" stop-color="#004D90"/>
<stop offset="0.8594" stop-color="#0062AA"/>
<stop offset="1" stop-color="#006CB7"/>
</linearGradient>
<linearGradient id="paint13_linear_14_57" x1="37.3665" y1="25.0803" x2="37.3476" y2="21.4021" gradientUnits="userSpaceOnUse">
<stop stop-color="#004081"/>
<stop offset="1" stop-color="#0077C0"/>
</linearGradient>
<linearGradient id="paint14_linear_14_57" x1="6.9922" y1="25.1474" x2="6.97397" y2="21.5877" gradientUnits="userSpaceOnUse">
<stop stop-color="#003B7A"/>
<stop offset="0.1838" stop-color="#004080"/>
<stop offset="0.4834" stop-color="#004D90"/>
<stop offset="0.8594" stop-color="#0062AA"/>
<stop offset="1" stop-color="#006CB7"/>
</linearGradient>
</defs>
</svg>
